<svg width="24" height="24" viewBox="0 0 24 24" fill="none" xmlns="http://www.w3.org/2000/svg">
<path d="M12.8994 11.9962L19.653 5.23595C19.7722 5.11621 19.839 4.95414 19.8389 4.78523C19.8388 4.61631 19.7717 4.45433 19.6524 4.33475C19.4136 4.09715 18.993 4.09595 18.7518 4.33595L12 11.0962L5.24583 4.33415C5.00583 4.09715 4.58522 4.09835 4.34642 4.33535C4.28715 4.39439 4.24023 4.46464 4.2084 4.542C4.17657 4.61937 4.16046 4.70229 4.16102 4.78595C4.16102 4.95635 4.22702 5.11595 4.34642 5.23415L11.1 11.9956L4.34702 18.7576C4.22786 18.8775 4.16112 19.0398 4.16146 19.2088C4.1618 19.3779 4.22918 19.5399 4.34883 19.6594C4.46463 19.774 4.62842 19.84 4.79762 19.84H4.80122C4.97102 19.8394 5.13482 19.7728 5.24822 19.657L12 12.8968L18.7542 19.6588C18.8736 19.7776 19.0332 19.8436 19.2024 19.8436C19.2861 19.8438 19.369 19.8275 19.4463 19.7956C19.5237 19.7637 19.5939 19.7168 19.6531 19.6576C19.7123 19.5985 19.7591 19.5282 19.7911 19.4508C19.823 19.3735 19.8393 19.2906 19.839 19.207C19.839 19.0372 19.773 18.877 19.653 18.7588L12.8994 11.9962Z" fill="black"/>
</svg>
