<svg width="84" height="84" viewBox="0 0 84 84" fill="none" xmlns="http://www.w3.org/2000/svg">
<path fill-rule="evenodd" clip-rule="evenodd" d="M41.9996 49.427L60.5601 67.9875C61.545 68.9724 62.8808 69.5257 64.2736 69.5257C65.6664 69.5257 67.0022 68.9724 67.9871 67.9875C68.972 67.0026 69.5253 65.6669 69.5253 64.274C69.5253 62.8812 68.972 61.5454 67.9871 60.5605L49.4196 42L67.9836 23.4395C68.471 22.9519 68.8576 22.373 69.1213 21.7359C69.385 21.0988 69.5207 20.416 69.5205 19.7265C69.5204 19.037 69.3844 18.3543 69.1204 17.7174C68.8564 17.0804 68.4695 16.5017 67.9818 16.0143C67.4942 15.5268 66.9153 15.1402 66.2782 14.8765C65.6411 14.6128 64.9584 14.4772 64.2689 14.4773C63.5794 14.4775 62.8966 14.6135 62.2597 14.8775C61.6227 15.1415 61.044 15.5284 60.5566 16.016L41.9996 34.5765L23.4391 16.016C22.955 15.5144 22.3759 15.1141 21.7355 14.8387C21.0951 14.5633 20.4063 14.4181 19.7092 14.4117C19.0121 14.4053 18.3207 14.5378 17.6754 14.8015C17.0301 15.0652 16.4437 15.4547 15.9506 15.9474C15.4574 16.4401 15.0673 17.0261 14.803 17.6712C14.5387 18.3163 14.4056 19.0075 14.4113 19.7046C14.417 20.4017 14.5615 21.0907 14.8364 21.7313C15.1112 22.372 15.5109 22.9515 16.0121 23.436L34.5796 42L16.0156 60.564C15.5144 61.0486 15.1147 61.628 14.8399 62.2687C14.565 62.9093 14.4205 63.5983 14.4148 64.2954C14.4091 64.9925 14.5422 65.6838 14.8065 66.3288C15.0708 66.9739 15.4609 67.5599 15.9541 68.0526C16.4472 68.5453 17.0336 68.9349 17.6789 69.1985C18.3242 69.4622 19.0156 69.5947 19.7127 69.5883C20.4098 69.5819 21.0986 69.4368 21.739 69.1613C22.3794 68.8859 22.9585 68.4857 23.4426 67.984L41.9996 49.427Z" fill="#626262"/>
</svg>
