<svg width="84" height="84" viewBox="0 0 84 84" fill="none" xmlns="http://www.w3.org/2000/svg">
<path d="M42 73.5C33.95 73.5 26.936 70.8318 20.958 65.4955C14.98 60.1592 11.5523 53.494 10.675 45.5H17.85C18.6667 51.5667 21.3652 56.5833 25.9455 60.55C30.5258 64.5167 35.8773 66.5 42 66.5C48.825 66.5 54.6152 64.1235 59.3705 59.3705C64.1258 54.6175 66.5023 48.8273 66.5 42C66.4977 35.1727 64.1212 29.3837 59.3705 24.633C54.6198 19.8823 48.8297 17.5047 42 17.5C37.975 17.5 34.2125 18.4333 30.7125 20.3C27.2125 22.1667 24.2667 24.7333 21.875 28H31.5V35H10.5V14H17.5V22.225C20.475 18.4917 24.1068 15.6042 28.3955 13.5625C32.6842 11.5208 37.219 10.5 42 10.5C46.375 10.5 50.4735 11.3318 54.2955 12.9955C58.1175 14.6592 61.4425 16.9038 64.2705 19.7295C67.0985 22.5552 69.3443 25.8802 71.008 29.7045C72.6717 33.5288 73.5023 37.6273 73.5 42C73.4977 46.3727 72.667 50.4712 71.008 54.2955C69.349 58.1198 67.1032 61.4448 64.2705 64.2705C61.4378 67.0962 58.1128 69.342 54.2955 71.008C50.4782 72.674 46.3797 73.5047 42 73.5ZM51.8 56.7L38.5 43.4V24.5H45.5V40.6L56.7 51.8L51.8 56.7Z" fill="#626262"/>
</svg>
