<svg width="84" height="84" viewBox="0 0 84 84" fill="none" xmlns="http://www.w3.org/2000/svg">
<path d="M68.6 73.5L46.55 51.45C44.8 52.85 42.7875 53.9583 40.5125 54.775C38.2375 55.5917 35.8167 56 33.25 56C26.8917 56 21.511 53.7973 17.108 49.392C12.705 44.9867 10.5023 39.606 10.5 33.25C10.4977 26.894 12.7003 21.5133 17.108 17.108C21.5157 12.7027 26.8963 10.5 33.25 10.5C39.6037 10.5 44.9855 12.7027 49.3955 17.108C53.8055 21.5133 56.007 26.894 56 33.25C56 35.8167 55.5917 38.2375 54.775 40.5125C53.9583 42.7875 52.85 44.8 51.45 46.55L73.5 68.6L68.6 73.5ZM33.25 49C37.625 49 41.3443 47.4693 44.408 44.408C47.4717 41.3467 49.0023 37.6273 49 33.25C48.9977 28.8727 47.467 25.1545 44.408 22.0955C41.349 19.0365 37.6297 17.5047 33.25 17.5C28.8703 17.4953 25.1522 19.0272 22.0955 22.0955C19.0388 25.1638 17.507 28.882 17.5 33.25C17.493 37.618 19.0248 41.3373 22.0955 44.408C25.1662 47.4787 28.8843 49.0093 33.25 49Z" fill="black"/>
</svg>
