<svg width="14" height="14" viewBox="0 0 14 14" fill="none" xmlns="http://www.w3.org/2000/svg">
<path d="M4.90998 5.47H3.47998V10.19H4.90998V5.47Z" fill="black"/>
<path d="M7.89997 2.95999H6.46997V10.18H7.89997V2.95999Z" fill="black"/>
<path d="M10.9 4.60001H9.46997V10.18H10.9V4.60001Z" fill="black"/>
<path d="M14 14H12.5V13H13V12.5H14V14Z" fill="black"/>
<path d="M10.3 14H8.09995V13H10.3V14ZM5.89995 14H3.69995V13H5.89995V14Z" fill="black"/>
<path d="M1.5 14H0V12.5H1V13H1.5V14Z" fill="black"/>
<path d="M1 10.3H0V8.1H1V10.3ZM1 5.9H0V3.7H1V5.9Z" fill="black"/>
<path d="M1 1.5H0V0H1.5V1H1V1.5Z" fill="black"/>
<path d="M10.3 1H8.09995V0H10.3V1ZM5.89995 1H3.69995V0H5.89995V1Z" fill="black"/>
<path d="M14 1.5H13V1H12.5V0H14V1.5Z" fill="black"/>
<path d="M14 10.3H13V8.1H14V10.3ZM14 5.9H13V3.7H14V5.9Z" fill="black"/>
</svg>
