<svg width="14" height="14" viewBox="0 0 14 14" fill="none" xmlns="http://www.w3.org/2000/svg">
<path d="M4.26256 6.39394H2.81812V11.1616H4.26256V6.39394Z" fill="black"/>
<path d="M7.28282 3.85858H5.83838V11.1515H7.28282V3.85858Z" fill="black"/>
<path d="M10.3131 5.51515H8.86865V11.1515H10.3131V5.51515Z" fill="black"/>
<path d="M12.3434 3.42424C12.2626 3.42424 12.1919 3.41414 12.1212 3.40404V12.9899H1.0101V1.87878H10.3636C10.3232 1.71717 10.2929 1.54545 10.2929 1.37373C10.2929 1.20202 10.3232 1.0303 10.3636 0.868683H0V14H13.1313V3.26262C12.8889 3.36363 12.6263 3.42424 12.3434 3.42424Z" fill="black"/>
<path d="M12.7676 2.38384C13.4259 2.38384 13.9595 1.8502 13.9595 1.19192C13.9595 0.53364 13.4259 0 12.7676 0C12.1093 0 11.5757 0.53364 11.5757 1.19192C11.5757 1.8502 12.1093 2.38384 12.7676 2.38384Z" fill="black"/>
</svg>
