<?xml version="1.0" encoding="UTF-8"?>
<svg id="_레이어_2" data-name="레이어_2" xmlns="http://www.w3.org/2000/svg" viewBox="0 0 32 32">
  <defs>
    <style>
      .cls-1 {
        fill: #8d51ff;
      }

      .cls-2 {
        fill: #5277ff;
      }

      .cls-3 {
        fill: #48e348;
      }
    </style>
  </defs>
  <g id="_레이어_1-2" data-name="레이어_1">
    <path class="cls-3" d="M30,16c0,7.73-6.27,14-14,14S2,23.73,2,16,8.27,2,16,2V0C7.16,0,0,7.16,0,16s7.16,16,16,16,16-7.16,16-16h-2Z"/>
    <path class="cls-2" d="M5,16h2c0-4.97,4.03-9,9-9s9,4.03,9,9-4.03,9-9,9v2c6.08,0,11-4.92,11-11s-4.92-11-11-11-11,4.92-11,11Z"/>
    <path class="cls-1" d="M16,19v2c2.76,0,5-2.24,5-5s-2.24-5-5-5-5,2.24-5,5h2c0-1.66,1.34-3,3-3s3,1.34,3,3-1.34,3-3,3Z"/>
  </g>
</svg>