<?xml version="1.0" encoding="UTF-8"?>
<svg id="_레이어_2" data-name="레이어 2" xmlns="http://www.w3.org/2000/svg" viewBox="0 0 14 14">
  <defs>
    <style>
      .cls-1 {
        fill: #5e5e5e;
      }

      .cls-1, .cls-2 {
        stroke-width: 0px;
      }

      .cls-2 {
        fill: none;
      }
    </style>
  </defs>
  <g id="_레이어_1-2" data-name="레이어 1">
    <g>
      <path class="cls-1" d="m2.05,10.57c-.28,0-.5-.22-.5-.5v-5.07l-.72.48c-.23.15-.54.09-.69-.14-.15-.23-.09-.54.14-.69l1.5-1c.15-.1.35-.11.51-.02.16.09.26.26.26.44v6c0,.28-.22.5-.5.5Z"/>
      <path class="cls-1" d="m7.97,10.43h-3c-.19,0-.36-.11-.45-.28-.08-.17-.07-.37.05-.52l2.74-3.66c.1-.15.16-.34.16-.54,0-.4-.24-.77-.61-.92-.51-.22-1.1.02-1.31.53-.11.25-.4.37-.66.27-.25-.11-.37-.4-.27-.66.43-1.02,1.61-1.49,2.62-1.06.74.31,1.22,1.04,1.22,1.84,0,.4-.12.79-.34,1.12l-2.16,2.88h2c.28,0,.5.22.5.5s-.22.5-.5.5Z"/>
      <path class="cls-1" d="m11.7,10.57c-.6,0-1.17-.23-1.59-.66-.2-.2-.2-.51,0-.71s.51-.2.71,0c.24.24.55.37.88.37.69,0,1.25-.56,1.25-1.25s-.56-1.25-1.25-1.25c-.19,0-.36-.1-.44-.27-.09-.17-.07-.36.03-.52l1.2-1.71h-2.04c-.28,0-.5-.22-.5-.5s.22-.5.5-.5h3c.19,0,.36.1.44.27.09.17.07.36-.03.52l-1.31,1.88c.82.33,1.4,1.14,1.4,2.09,0,1.24-1.01,2.25-2.25,2.25Z"/>
    </g>
    <rect class="cls-2" width="14" height="14"/>
  </g>
</svg>