<?xml version="1.0" encoding="UTF-8"?>
<svg id="_레이어_2" data-name="레이어 2" xmlns="http://www.w3.org/2000/svg" viewBox="0 0 14 14">
  <defs>
    <style>
      .cls-1 {
        fill: #fff;
        stroke-width: 0px;
      }
    </style>
  </defs>
  <g id="_레이어_1-2" data-name="레이어 1">
    <g>
      <path class="cls-1" d="m7,14c-3.86,0-7-3.14-7-7S3.14,0,7,0s7,3.14,7,7-3.14,7-7,7Zm0-13C3.69,1,1,3.69,1,7s2.69,6,6,6,6-2.69,6-6S10.31,1,7,1Z"/>
      <path class="cls-1" d="m7,13.94c-1.91,0-3.72-.75-4.96-2.05-.15-.15-.18-.38-.08-.57.97-1.94,2.91-3.15,5.05-3.15s4.04,1.21,5.05,3.15c.1.19.06.43-.09.58-1.3,1.3-3.11,2.04-4.96,2.04Zm-3.98-2.49c1.04.95,2.47,1.49,3.98,1.49s2.89-.54,3.97-1.49c-.87-1.42-2.36-2.28-3.97-2.28s-3.14.87-3.98,2.28Z"/>
      <path class="cls-1" d="m7,7.67c-1.42,0-2.57-1.15-2.57-2.57s1.15-2.57,2.57-2.57,2.57,1.15,2.57,2.57-1.15,2.57-2.57,2.57Zm0-4.14c-.87,0-1.57.7-1.57,1.57s.7,1.57,1.57,1.57,1.57-.7,1.57-1.57-.7-1.57-1.57-1.57Z"/>
    </g>
  </g>
</svg>