<?xml version="1.0" encoding="utf-8"?>
<!-- Generator: Adobe Illustrator 27.9.6, SVG Export Plug-In . SVG Version: 9.03 Build 54986)  -->
<svg version="1.1" id="_레이어_2" xmlns="http://www.w3.org/2000/svg" xmlns:xlink="http://www.w3.org/1999/xlink" x="0px"
	 y="0px" viewBox="0 0 14 14" style="enable-background:new 0 0 14 14;" xml:space="preserve">
<style type="text/css">
	.st0{fill:#5E5E5E;}
</style>
<g id="_레이어_1-2">
	<polygon class="st0" points="1,14 1,7.1 5.6,7.1 5.6,14 6.6,14 6.6,0 5.6,0 5.6,6.1 1,6.1 1,0 0,0 0,14 	"/>
	<path class="st0" d="M14,4.4V3.7H9.2v1h3.4l-1.9,3.1c-0.1,0.2-0.1,0.4,0,0.5s0.3,0.3,0.4,0.3c1,0,1.9,1,1.9,2.2S12.2,13,11.1,13
		c-0.5,0-0.9-0.2-1.3-0.6L9.5,12l-0.7,0.7l0.5,0.5c0.5,0.5,1.2,0.8,1.9,0.8c1.6,0,2.9-1.4,2.9-3.2c0-1.4-0.9-2.7-2.1-3.1l1.5-2.5
		L14,4.4L14,4.4L14,4.4L14,4.4z"/>
</g>
</svg>
