<?xml version="1.0" encoding="UTF-8"?>
<svg id="_레이어_2" data-name="레이어 2" xmlns="http://www.w3.org/2000/svg" viewBox="0 0 14 14">
  <defs>
    <style>
      .cls-1 {
        fill: #fff;
        stroke-width: 0px;
      }
    </style>
  </defs>
  <g id="_레이어_1-2" data-name="레이어 1">
    <path class="cls-1" d="m7.71,7L13.85.85c.2-.2.2-.51,0-.71s-.51-.2-.71,0l-6.15,6.15L.85.15C.66-.05.34-.05.15.15S-.05.66.15.85l6.15,6.15L.15,13.15c-.2.2-.2.51,0,.71.1.1.23.15.35.15s.26-.05.35-.15l6.15-6.15,6.15,6.15c.1.1.23.15.35.15s.26-.05.35-.15c.2-.2.2-.51,0-.71l-6.15-6.15Z"/>
  </g>
</svg>