<?xml version="1.0" encoding="UTF-8"?>
<svg id="_레이어_2" data-name="레이어 2" xmlns="http://www.w3.org/2000/svg" viewBox="0 0 14 14">
  <defs>
    <style>
      .cls-1 {
        fill: #5e5e5e;
      }

      .cls-1, .cls-2 {
        stroke-width: 0px;
      }

      .cls-2 {
        fill: none;
      }
    </style>
  </defs>
  <g id="_레이어_1-2" data-name="레이어 1">
    <path class="cls-1" d="m12.06,13.28H1.94c-1.07,0-1.94-.87-1.94-1.94V2.67C0,1.59.87.72,1.94.72h10.11c1.07,0,1.94.87,1.94,1.94v8.67c0,1.07-.87,1.94-1.94,1.94Zm-2.39-1h2.39c.52,0,.94-.42.94-.94v-2.39h-3.33v3.33Zm-4.33,0h3.33v-3.33h-3.33v3.33Zm-4.33-3.33v2.39c0,.52.42.94.94.94h2.39v-3.33H1Zm8.67-1h3.33v-3.33h-3.33v3.33Zm-4.33,0h3.33v-3.33h-3.33v3.33Zm-4.33,0h3.33v-3.33H1v3.33ZM9.17,3.61h3.83v-.94c0-.52-.42-.94-.94-.94H1.94c-.52,0-.94.42-.94.94v.94h8.17Z"/>
    <rect class="cls-2" width="14" height="14"/>
  </g>
</svg>