<?xml version="1.0" encoding="UTF-8"?>
<svg id="_레이어_2" data-name="레이어 2" xmlns="http://www.w3.org/2000/svg" viewBox="0 0 14 14">
  <defs>
    <style>
      .cls-1 {
        fill: #fff;
        stroke-width: 0px;
      }
    </style>
  </defs>
  <g id="_레이어_1-2" data-name="레이어 1">
    <path class="cls-1" d="m12.42,14H1.58c-.87,0-1.58-.71-1.58-1.58V1.58C0,.71.71,0,1.58,0h10.83c.87,0,1.58.71,1.58,1.58v10.83c0,.87-.71,1.58-1.58,1.58ZM1.58,1c-.32,0-.58.26-.58.58v10.83c0,.32.26.58.58.58h10.83c.32,0,.58-.26.58-.58V1.58c0-.32-.26-.58-.58-.58H1.58Z"/>
    <path class="cls-1" d="m2.98,13.88v-5.15c0-.4.33-.73.73-.73h6.58c.4,0,.73.33.73.73v5.15h1v-5.15c0-.95-.78-1.73-1.73-1.73H3.71c-.95,0-1.73.78-1.73,1.73v5.15h1Z"/>
    <path class="cls-1" d="m10.01.4s.01.04.01.06v2.62c0,.36-.29.65-.65.65h-4.75c-.36,0-.65-.29-.65-.65V.46s.01-.04.01-.06h-1.01s0,.04,0,.06v2.62c0,.91.74,1.65,1.65,1.65h4.75c.91,0,1.65-.74,1.65-1.65V.46s0-.04,0-.06h-1.01Z"/>
  </g>
</svg>