<?xml version="1.0" encoding="UTF-8"?>
<svg id="_레이어_2" data-name="레이어 2" xmlns="http://www.w3.org/2000/svg" viewBox="0 0 14 14">
  <defs>
    <style>
      .cls-1 {
        fill: #5e5e5e;
      }

      .cls-1, .cls-2 {
        stroke-width: 0px;
      }

      .cls-2 {
        fill: none;
      }
    </style>
  </defs>
  <g id="_레이어_1-2" data-name="레이어 1">
    <path class="cls-1" d="m13.77,7.49s0-.03,0-.05c0-.02-.02-.03-.02-.04-.82-2.96-3.53-5.15-6.74-5.15h-.03c-3.17.01-5.84,2.16-6.69,5.09-.02.03-.04.06-.05.1-.01.04,0,.08,0,.12-.14.56-.23,1.15-.23,1.76v1.43c0,.55.45,1,1,1h12c.55,0,1-.45,1-1v-1.53c0-.6-.09-1.18-.23-1.73Zm-.77,3.26h-6.52l3.66-4.76c.17-.22.13-.53-.09-.7s-.53-.13-.7.09l-4.12,5.37H1s-.5,0-.5,0h.5v-1.43c0-.39.04-.76.11-1.13l1.42.38s.09.02.13.02c.22,0,.42-.15.48-.37.07-.27-.09-.54-.35-.61l-1.41-.38c.79-2.16,2.76-3.75,5.12-3.95v1.47c0,.28.22.5.5.5s.5-.22.5-.5v-1.47c2.37.2,4.35,1.78,5.14,3.95l-1.42.38c-.27.07-.42.35-.35.61.06.22.26.37.48.37.04,0,.09,0,.13-.02l1.42-.38c.06.34.1.7.1,1.06v1.5Z"/>
    <rect class="cls-2" width="14" height="14"/>
  </g>
</svg>