<?xml version="1.0" encoding="UTF-8"?>
<svg id="_레이어_2" data-name="레이어 2" xmlns="http://www.w3.org/2000/svg" viewBox="0 0 14 14">
  <defs>
    <style>
      .cls-1 {
        fill: #fff;
        stroke-width: 0px;
      }
    </style>
  </defs>
  <g id="_레이어_1-2" data-name="레이어 1">
    <path class="cls-1" d="m7,14c-1.94,0-3.75-.78-5.07-2.17v2.14H.93v-3.75h3.75v1h-1.95c1.12,1.14,2.65,1.78,4.27,1.78,3.31,0,6-2.69,6-6h1c0,3.86-3.14,7-7,7ZM1,7H0C0,3.14,3.14,0,7,0c1.94,0,3.75.78,5.07,2.17V.04h1v3.75h-3.75v-1h1.95c-1.12-1.14-2.65-1.78-4.27-1.78C3.69,1,1,3.69,1,7Z"/>
  </g>
</svg>