<?xml version="1.0" encoding="utf-8"?>
<!-- Generator: Adobe Illustrator 27.9.6, SVG Export Plug-In . SVG Version: 9.03 Build 54986)  -->
<svg version="1.1" id="_레이어_2" xmlns="http://www.w3.org/2000/svg" xmlns:xlink="http://www.w3.org/1999/xlink" x="0px"
	 y="0px" viewBox="0 0 14 14" style="enable-background:new 0 0 14 14;" xml:space="preserve">
<style type="text/css">
	.st0{fill:#5E5E5E;}
</style>
<g id="_레이어_1-2">
	<polygon class="st0" points="1,14 1,7.1 5.6,7.1 5.6,14 6.6,14 6.6,0 5.6,0 5.6,6.1 1,6.1 1,0 0,0 0,14 	"/>
	<path class="st0" d="M13.6,8.1c0.2-0.4,0.4-1,0.4-1.5c0-1.1-0.6-2.1-1.4-2.6c-0.6-0.2-1.2-0.3-1.7,0c-0.6,0.2-1,0.7-1.3,1.3
		L9.2,6.1l0.9,0.4l0.4-0.8c0.2-0.4,0.4-0.7,0.8-0.8c0.3-0.1,0.6-0.1,0.9,0.1C12.7,5.2,13,5.9,13,6.6c0,0.4-0.1,0.7-0.2,1L9.5,13
		l-0.1,0.1V14h1H14v-1h-3.3L13.6,8.1L13.6,8.1z"/>
</g>
</svg>
