<?xml version="1.0" encoding="UTF-8"?>
<svg id="_레이어_2" data-name="레이어_2" xmlns="http://www.w3.org/2000/svg" viewBox="0 0 13 13">
  <defs>
    <style>
      .cls-1 {
        fill: #fff;
      }
    </style>
  </defs>
  <g id="_레이어_2-2" data-name="_레이어_2">
    <path class="cls-1" d="M12.35,7.8c-.36,0-.65.29-.65.65v2.6c0,.36-.29.65-.65.65H1.95c-.36,0-.65-.29-.65-.65v-2.6c0-.36-.29-.65-.65-.65s-.65.29-.65.65v2.6c0,1.08.87,1.95,1.95,1.95h9.1c1.08,0,1.95-.87,1.95-1.95v-2.6c0-.36-.29-.65-.65-.65Z"/>
    <path class="cls-1" d="M2.79,3.44c-.25.25-.25.67,0,.92s.67.25.92,0l2.14-2.14v6.23c0,.36.29.65.65.65s.65-.29.65-.65V2.22l2.14,2.14c.25.25.67.25.92,0s.25-.67,0-.92L6.96.19c-.06-.06-.13-.11-.21-.14s-.16-.05-.25-.05-.17.02-.25.05c-.08.03-.15.08-.21.14,0,0-3.25,3.25-3.25,3.25Z"/>
  </g>
</svg>