<?xml version="1.0" encoding="UTF-8"?>
<svg id="_레이어_2" data-name="레이어 2" xmlns="http://www.w3.org/2000/svg" viewBox="0 0 14 14">
  <defs>
    <style>
      .cls-1 {
        fill: #fff;
        stroke-width: 0px;
      }
    </style>
  </defs>
  <g id="_레이어_1-2" data-name="레이어 1">
    <path class="cls-1" d="m12.42,14H1.58c-.87,0-1.58-.71-1.58-1.58V1.58C0,.71.71,0,1.58,0h10.83c.87,0,1.58.71,1.58,1.58v10.83c0,.87-.71,1.58-1.58,1.58ZM1.58,1c-.32,0-.58.26-.58.58v10.83c0,.32.26.58.58.58h10.83c.32,0,.58-.26.58-.58V1.58c0-.32-.26-.58-.58-.58H1.58Z"/>
    <polygon class="cls-1" points="8.4 10.73 4.22 6.82 .87 10.48 .13 9.8 4.17 5.4 8.48 9.44 11.15 7.51 13.83 9.93 13.17 10.68 11.08 8.79 8.4 10.73"/>
    <path class="cls-1" d="m9.8,6.14c-1.11,0-2.01-.9-2.01-2.01s.9-2.01,2.01-2.01,2.01.9,2.01,2.01-.9,2.01-2.01,2.01Zm0-3.14c-.62,0-1.13.51-1.13,1.13s.51,1.13,1.13,1.13,1.13-.51,1.13-1.13-.51-1.13-1.13-1.13Z"/>
  </g>
</svg>