<?xml version="1.0" encoding="UTF-8"?>
<svg id="_레이어_2" data-name="레이어 2" xmlns="http://www.w3.org/2000/svg" viewBox="0 0 14 14">
  <defs>
    <style>
      .cls-1 {
        fill: #5e5e5e;
        stroke-width: 0px;
      }
    </style>
  </defs>
  <g id="_레이어_1-2" data-name="레이어 1">
    <path class="cls-1" d="m7,0L0,5.5l3,8.5h8l3-8.5L7,0Zm1.29,9.63l-2.99.67-.71-3.91,2.45-2.1,2.72,2.04-1.47,3.31Zm.1,1l1.27,2.36h-5.33l.9-1.66,3.16-.7ZM3.8,5.75l-1.93-.44L6.5,1.66v1.76l-2.7,2.32Zm3.7-2.37v-1.71l4.63,3.64-1.57.36-3.06-2.29ZM1.31,6.2l2.33.54.74,4.08-.87,1.61L1.31,6.2Zm9.19,6.23l-1.29-2.39,1.5-3.38,1.98-.46-2.2,6.23Z"/>
  </g>
</svg>