<?xml version="1.0" encoding="UTF-8"?>
<svg id="_레이어_2" data-name="레이어_2" xmlns="http://www.w3.org/2000/svg" viewBox="0 0 14 14.04">
  <defs>
    <style>
      .cls-1 {
        fill: #fff;
      }
    </style>
  </defs>
  <g id="_레이어_1-2" data-name="레이어_1">
    <path class="cls-1" d="M13.5,2.34h-1.83V.5c0-.28-.23-.5-.5-.5s-.5.23-.5.5v1.83h-1.83c-.28,0-.5.23-.5.5s.23.5.5.5h1.83v1.83c0,.28.23.5.5.5s.5-.23.5-.5v-1.83h1.83c.28,0,.5-.23.5-.5s-.23-.5-.5-.5Z"/>
    <path class="cls-1" d="M12,6.42v5.54c0,.59-.48,1.08-1.08,1.08H2.08c-.59,0-1.08-.48-1.08-1.08V3.11c0-.59.48-1.08,1.08-1.08h5.59v-1H2.08C.93,1.04,0,1.97,0,3.11v8.85c0,1.15.93,2.08,2.08,2.08h8.85c1.15,0,2.08-.93,2.08-2.08v-5.54h-1Z"/>
  </g>
</svg>