<?xml version="1.0" encoding="UTF-8"?>
<svg id="_레이어_2" data-name="레이어 2" xmlns="http://www.w3.org/2000/svg" viewBox="0 0 28.01 27.54">
  <defs>
    <style>
      .cls-1 {
        fill: #fff;
        stroke-width: 0px;
      }
    </style>
  </defs>
  <g id="_레이어_1-2" data-name="레이어 1">
    <g id="Acorbat">
      <path class="cls-1" d="m14.21,1.53C13.91.46,13.21-.07,12.58,0c-.78.07-1.47.53-1.84,1.22-.88,2,1,7.82,1.24,8.79-1.64,4.95-6.91,14.31-10.1,16.43-.22.14-.51.07-.65-.15-.07-.11-.09-.25-.05-.38.32-1,1.33-2.56,4.15-4.37.2-.21.38-.43.55-.66-3.35,1.63-7.69,4.26-5.08,6.22.19.13.39.23.61.3,2,.74,4.8-1.68,7.61-7.17,2.97-1.05,6.03-1.83,9.14-2.33,3.87,2.63,6.46,3.17,8.22,2.49.7-.31,1.24-.9,1.48-1.63-1.43,1.76-4.78.53-7.45-1.15,2.46-.27,5-.43,6.11-.08,1.4.44,1.35,1.13,1.34,1.23.2-.47.2-1.01,0-1.48-1.18-1.92-6.59-.8-8.56-.6-2.79-1.82-4.93-4.49-6.1-7.61.81-3.1,1.67-5.35,1-7.58m-1.34,6.49c-.46-1.65-1.09-5.12-.37-6.76.1-.24.38-.35.62-.25.04.02.09.05.12.08,1.63,1.45.36,4.3-.37,6.93m4.27,9.12c-2.72.54-5.38,1.37-7.93,2.47,1.32-2.85,2.43-5.79,3.3-8.81,1.12,2.39,2.69,4.54,4.64,6.33"/>
    </g>
  </g>
</svg>