<?xml version="1.0" encoding="UTF-8"?>
<svg id="_레이어_2" data-name="레이어 2" xmlns="http://www.w3.org/2000/svg" viewBox="0 0 14.01 14">
  <defs>
    <style>
      .cls-1 {
        fill: #5e5e5e;
        stroke-width: 0px;
      }
    </style>
  </defs>
  <g id="_레이어_1-2" data-name="레이어 1">
    <path class="cls-1" d="m8.26,9.5c-.96,0-1.91-.36-2.64-1.09l.7-.72c.53.52,1.21.81,1.95.81h0c.73,0,1.42-.29,1.94-.81l2.09-2.09c.95-1.04.95-2.64-.02-3.7-.5-.55-1.18-.86-1.91-.9-.73-.03-1.44.22-1.99.72l-1.45,1.45c-.2.2-.51.2-.71,0s-.2-.51,0-.71l1.46-1.46C8.45.3,9.42-.04,10.42,0c1,.05,1.93.48,2.61,1.22,1.32,1.44,1.32,3.62,0,5.07l-2.11,2.1c-.73.73-1.69,1.1-2.65,1.1Z"/>
    <path class="cls-1" d="m3.77,14c-.06,0-.12,0-.18,0-1-.05-1.93-.48-2.61-1.22-1.32-1.44-1.32-3.62,0-5.07l2.11-2.1c1.46-1.46,3.83-1.47,5.3,0l-.7.72c-.53-.52-1.21-.81-1.95-.81h0c-.73,0-1.42.29-1.94.81l-2.09,2.09c-.95,1.04-.95,2.64.02,3.7.5.55,1.18.86,1.91.9.73.03,1.44-.22,1.99-.72l1.45-1.45c.2-.2.51-.2.71,0s.2.51,0,.71l-1.46,1.46c-.71.65-1.61,1-2.55,1Z"/>
  </g>
</svg>