<?xml version="1.0" encoding="UTF-8"?>
<svg id="_레이어_2" data-name="레이어 2" xmlns="http://www.w3.org/2000/svg" viewBox="0 0 14 14">
  <defs>
    <style>
      .cls-1 {
        fill: #5e5e5e;
      }

      .cls-1, .cls-2 {
        stroke-width: 0px;
      }

      .cls-2 {
        fill: none;
      }
    </style>
  </defs>
  <g id="_레이어_1-2" data-name="레이어 1">
    <g>
      <path class="cls-1" d="m13.5,13.67h-6.5c-.28,0-.5-.22-.5-.5s.22-.5.5-.5h6.5c.28,0,.5.22.5.5s-.22.5-.5.5Z"/>
      <path class="cls-1" d="m.5,13.67c-.13,0-.26-.05-.35-.15-.12-.12-.17-.3-.13-.47l.72-2.89c.02-.09.07-.17.13-.23L9.9.9c.77-.77,2.1-.77,2.87,0,.79.79.79,2.08,0,2.87L3.74,12.8c-.06.06-.14.11-.23.13l-2.89.72s-.08.02-.12.02Zm1.17-3.13l-.49,1.95,1.95-.49L12.06,3.07c.4-.4.4-1.06,0-1.46-.39-.39-1.07-.39-1.46,0h0L1.67,10.54ZM10.25,1.26h0,0Z"/>
    </g>
    <rect class="cls-2" width="14" height="14"/>
  </g>
</svg>