<?xml version="1.0" encoding="UTF-8"?>
<svg id="_레이어_2" data-name="레이어 2" xmlns="http://www.w3.org/2000/svg" viewBox="0 0 14 14">
  <defs>
    <style>
      .cls-1 {
        fill: none;
      }

      .cls-1, .cls-2 {
        stroke-width: 0px;
      }

      .cls-2 {
        fill: #000;
      }
    </style>
  </defs>
  <g id="_레이어_1-2" data-name="레이어 1">
    <path class="cls-2" d="m7,9.5c-1.38,0-2.5-1.12-2.5-2.5s1.12-2.5,2.5-2.5,2.5,1.12,2.5,2.5-1.12,2.5-2.5,2.5Zm0-3.99c-.82,0-1.5.67-1.5,1.5s.67,1.5,1.5,1.5,1.5-.67,1.5-1.5-.67-1.5-1.5-1.5Z"/>
    <path class="cls-2" d="m7.5,13.99h-1c-.83,0-1.5-.67-1.5-1.5v-.3c0-.36-.19-.68-.5-.86-.31-.18-.69-.18-1,0l-.26.15c-.71.41-1.63.17-2.05-.55l-.5-.86c-.2-.35-.25-.75-.15-1.14.1-.39.35-.71.7-.91l.26-.15c.31-.18.5-.5.5-.86s-.19-.68-.5-.86l-.26-.15c-.71-.41-.96-1.33-.55-2.05l.5-.86c.41-.72,1.33-.96,2.05-.55l.26.15c.31.18.68.18,1,0,.31-.18.5-.5.5-.86v-.3C5,.69,5.68.01,6.5.01h1c.83,0,1.5.67,1.5,1.5v.3c0,.36.19.68.5.86.31.18.68.18,1,0l.26-.15c.35-.2.75-.25,1.14-.15.39.1.71.35.91.7l.5.86c.2.35.25.75.15,1.14s-.35.71-.7.91l-.26.15c-.31.18-.5.5-.5.86s.19.68.5.86l.26.15c.71.41.96,1.33.55,2.05l-.5.86c-.2.35-.52.59-.91.7-.39.1-.79.05-1.14-.15l-.26-.15c-.31-.18-.68-.18-1,0-.31.18-.5.5-.5.86v.3c0,.83-.67,1.5-1.5,1.5Zm-3.49-3.8c.34,0,.69.09,1,.27.63.36,1,1.01,1,1.73v.3c0,.27.22.5.5.5h1c.27,0,.5-.22.5-.5v-.3c0-.72.37-1.37,1-1.73.62-.36,1.37-.36,2,0l.26.15c.24.14.54.06.68-.18l.5-.86c.14-.24.06-.54-.18-.68l-.26-.15c-.62-.36-1-1.01-1-1.73,0-.72.37-1.37,1-1.73l.26-.15c.11-.07.2-.17.23-.3.03-.13.02-.26-.05-.38h0l-.5-.86c-.14-.24-.44-.32-.68-.18l-.26.15c-.62.36-1.37.36-2,0-.62-.36-1-1.01-1-1.73v-.3c0-.27-.22-.5-.5-.5h-1c-.27,0-.5.22-.5.5v.3c0,.72-.37,1.37-1,1.73-.63.36-1.37.36-2,0l-.26-.15c-.24-.14-.54-.06-.68.18l-.5.86c-.14.24-.06.54.18.68l.26.15c.63.36,1,1.01,1,1.73s-.37,1.37-1,1.73l-.26.15c-.12.07-.2.17-.23.3-.03.13-.02.26.05.38l.5.86c.14.24.44.32.68.18l.26-.15c.31-.18.66-.27,1-.27Z"/>
    <rect class="cls-1" width="14" height="14"/>
  </g>
</svg>