<?xml version="1.0" encoding="UTF-8"?>
<svg id="_레이어_2" data-name="레이어 2" xmlns="http://www.w3.org/2000/svg" viewBox="0 0 13 14">
  <defs>
    <style>
      .cls-1 {
        fill: #5e5e5e;
        stroke-width: 0px;
      }
    </style>
  </defs>
  <g id="_레이어_1-2" data-name="레이어 1">
    <g>
      <path class="cls-1" d="m12,2h-3v-.5c0-.83-.67-1.5-1.5-1.5h-2c-.83,0-1.5.67-1.5,1.5v.5H1c-.55,0-1,.45-1,1v2c0,.28.22.5.5.5h1v7c0,.83.67,1.5,1.5,1.5h7c.83,0,1.5-.67,1.5-1.5v-7h1c.28,0,.5-.22.5-.5v-2c0-.55-.45-1-1-1Zm-7-.5c0-.28.22-.5.5-.5h2c.28,0,.5.22.5.5v.5h-3v-.5Zm5.5,11c0,.28-.22.5-.5.5H3c-.28,0-.5-.22-.5-.5v-7h8v7Zm1.5-8H1v-1.5h11v1.5Z"/>
      <path class="cls-1" d="m6.5,12c.28,0,.5-.22.5-.5v-4.5c0-.28-.22-.5-.5-.5s-.5.22-.5.5v4.5c0,.28.22.5.5.5Z"/>
      <path class="cls-1" d="m4.5,12c.28,0,.5-.22.5-.5v-4.5c0-.28-.22-.5-.5-.5s-.5.22-.5.5v4.5c0,.28.22.5.5.5Z"/>
      <path class="cls-1" d="m8.5,12c.28,0,.5-.22.5-.5v-4.5c0-.28-.22-.5-.5-.5s-.5.22-.5.5v4.5c0,.28.22.5.5.5Z"/>
    </g>
  </g>
</svg>