<?xml version="1.0" encoding="UTF-8"?>
<svg id="_레이어_2" data-name="레이어 2" xmlns="http://www.w3.org/2000/svg" viewBox="0 0 13.6 13.52">
  <defs>
    <style>
      .cls-1 {
        fill: #5e5e5e;
        stroke-width: 0px;
      }
    </style>
  </defs>
  <g id="_레이어_1-2" data-name="레이어 1">
    <g>
      <path class="cls-1" d="m3.97,9.45c-.17,0-.3-.13-.3-.3v-3.05l-.44.29c-.14.09-.33.05-.42-.08-.09-.14-.05-.33.08-.42l.9-.6c.09-.06.21-.07.31-.01.1.05.16.15.16.27v3.61c0,.17-.13.3-.3.3Z"/>
      <path class="cls-1" d="m7.54,9.36h-1.81c-.11,0-.22-.06-.27-.17-.05-.1-.04-.22.03-.32l1.65-2.21c.06-.09.09-.2.09-.32,0-.24-.14-.46-.37-.56-.31-.13-.66.01-.79.32-.07.15-.24.22-.39.16-.15-.06-.22-.24-.16-.39.26-.61.97-.9,1.58-.64.45.19.73.62.73,1.11,0,.24-.07.47-.21.67l-1.3,1.74h1.21c.17,0,.3.13.3.3s-.13.3-.3.3Z"/>
      <path class="cls-1" d="m9.79,9.45c-.36,0-.7-.14-.96-.4-.12-.12-.12-.31,0-.43s.31-.12.43,0c.14.14.33.22.53.22.42,0,.75-.34.75-.75s-.34-.75-.75-.75c-.11,0-.22-.06-.27-.16-.05-.1-.04-.22.02-.31l.72-1.03h-1.23c-.17,0-.3-.13-.3-.3s.13-.3.3-.3h1.81c.11,0,.22.06.27.16.05.1.04.22-.02.31l-.79,1.13c.5.2.85.69.85,1.26,0,.75-.61,1.36-1.36,1.36Z"/>
    </g>
    <path class="cls-1" d="m7,0C3.14,0,0,3.14,0,7c0,2.98,1.88,5.51,4.5,6.52l.37-.91c-2.26-.86-3.87-3.04-3.87-5.6C1,3.69,3.69,1,7,1c2.63,0,4.87,1.71,5.68,4.07l.93-.32C12.66,2,10.07,0,7,0Z"/>
  </g>
</svg>