<?xml version="1.0" encoding="UTF-8"?>
<svg id="_레이어_2" data-name="레이어_2" xmlns="http://www.w3.org/2000/svg" viewBox="0 0 14 14">
  <defs>
    <style>
      .cls-1 {
        fill: #fff;
      }
    </style>
  </defs>
  <g id="_레이어_1-2" data-name="레이어_1">
    <path class="cls-1" d="M11.61,11h-2.06v-1h2.04l.02,1ZM7.51,11h-2.04v-1h2.04v1ZM3.34,9.82c-.22-.37-.34-.8-.34-1.23v-1.01h1v1.01c0,.25.07.5.2.72l-.86.51ZM13.71,9.73l-.88-.48c.11-.2.17-.44.17-.67v-1.09h1v1.09c0,.4-.1.8-.29,1.15ZM4,5.53h-1v-2.04h1v2.04ZM14,5.46h-1v-2.04h1v2.04ZM4.17,1.74l-.88-.48C3.72.49,4.53,0,5.4,0v1c-.51,0-.98.28-1.23.74ZM12.8,1.69c-.26-.43-.71-.69-1.22-.69l-.06-1h.06c.86,0,1.63.44,2.07,1.17l-.86.52ZM9.48,1h-2.04V0h2.04v1Z"/>
    <path class="cls-1" d="M10,10v1.42c0,.87-.71,1.58-1.58,1.58H2.58c-.87,0-1.58-.71-1.58-1.58v-5.83c0-.87.71-1.58,1.58-1.58h1.42v-1h-1.42c-1.42,0-2.58,1.16-2.58,2.58v5.83c0,1.42,1.16,2.58,2.58,2.58h5.83c1.42,0,2.58-1.16,2.58-2.58v-1.42h-1Z"/>
  </g>
</svg>