<?xml version="1.0" encoding="UTF-8"?>
<svg id="_레이어_2" data-name="레이어 2" xmlns="http://www.w3.org/2000/svg" viewBox="0 0 14 14">
  <defs>
    <style>
      .cls-1 {
        fill: #5e5e5e;
        stroke-width: 0px;
      }
    </style>
  </defs>
  <g id="_레이어_1-2" data-name="레이어 1">
    <path class="cls-1" d="m.5,14c-.13,0-.26-.05-.35-.15-.2-.2-.2-.51,0-.71L13.15.15c.2-.2.51-.2.71,0s.2.51,0,.71L.85,13.85c-.1.1-.23.15-.35.15Z"/>
    <path class="cls-1" d="m2.11,7.17c-.28,0-.5-.22-.5-.5V1.6l-.72.48c-.23.15-.54.09-.69-.14-.15-.23-.09-.54.14-.69L1.83.25c.15-.1.35-.11.51-.02.16.09.26.26.26.44v6c0,.28-.22.5-.5.5Z"/>
    <path class="cls-1" d="m12.5,13.87h-3c-.19,0-.36-.11-.45-.28-.08-.17-.07-.37.05-.52l2.74-3.66c.1-.15.16-.34.16-.54,0-.4-.24-.77-.61-.92-.51-.21-1.1.02-1.31.53-.11.25-.4.37-.66.27-.25-.11-.37-.4-.27-.66.43-1.02,1.61-1.49,2.62-1.06.74.31,1.22,1.04,1.22,1.84,0,.4-.12.79-.34,1.12l-2.16,2.88h2c.28,0,.5.22.5.5s-.22.5-.5.5Z"/>
  </g>
</svg>