<?xml version="1.0" encoding="UTF-8"?>
<svg id="_레이어_2" data-name="레이어 2" xmlns="http://www.w3.org/2000/svg" viewBox="0 0 14 14">
  <defs>
    <style>
      .cls-1 {
        fill: #5e5e5e;
      }

      .cls-1, .cls-2 {
        stroke-width: 0px;
      }

      .cls-2 {
        fill: none;
      }
    </style>
  </defs>
  <g id="_레이어_1-2" data-name="레이어 1">
    <path class="cls-1" d="m13.58,7.82h-6.11l4.07,4.07c.16.16.41.17.57.02,1-.94,1.68-2.2,1.88-3.63.03-.24-.17-.46-.41-.46h0Zm-.41-1.67c-.21-3.07-2.67-5.53-5.74-5.74-.23-.02-.43.18-.43.42v5.76h5.76c.24,0,.43-.2.42-.43h0Zm-7.41,1.67V1.72c0-.25-.22-.45-.46-.41C2.24,1.74-.11,4.42,0,7.63c.11,3.3,2.95,6,6.25,5.96,1.3-.02,2.5-.43,3.48-1.13.2-.14.22-.44.04-.62l-4.01-4.01Z"/>
    <rect class="cls-2" x="0" width="14" height="14"/>
  </g>
</svg>