<?xml version="1.0" encoding="UTF-8"?>
<svg id="_레이어_2" data-name="레이어 2" xmlns="http://www.w3.org/2000/svg" viewBox="0 0 14 14">
  <defs>
    <style>
      .cls-1 {
        fill: #5e5e5e;
        stroke-width: 0px;
      }
    </style>
  </defs>
  <g id="_레이어_1-2" data-name="레이어 1">
    <path class="cls-1" d="m7,14c-3.86,0-7-3.14-7-7S3.14,0,7,0s7,3.14,7,7-3.14,7-7,7Zm0-13C3.69,1,1,3.69,1,7s2.69,6,6,6,6-2.69,6-6S10.31,1,7,1Z"/>
    <g>
      <path class="cls-1" d="m3.29,9.14l1.62-4.6h1.02l1.62,4.6h-.88l-1.23-3.66h-.04l-1.23,3.66h-.88Zm3.34-1.8v.66h-2.42v-.66h2.42Z"/>
      <path class="cls-1" d="m8.87,9.14h-.81v-4.6h.81v4.6Z"/>
      <path class="cls-1" d="m10.46,9.14h-.81v-4.6h.81v4.6Z"/>
    </g>
  </g>
</svg>