<svg width="15" height="14" viewBox="0 0 15 14" fill="none" xmlns="http://www.w3.org/2000/svg">
<path d="M3.88013 0.476791H0.880127V3.47679H3.88013V0.476791Z" fill="black"/>
<path d="M2.38013 8.48679C3.20855 8.48679 3.88013 7.81522 3.88013 6.98679C3.88013 6.15836 3.20855 5.48679 2.38013 5.48679C1.5517 5.48679 0.880127 6.15836 0.880127 6.98679C0.880127 7.81522 1.5517 8.48679 2.38013 8.48679Z" fill="black"/>
<path d="M2.38014 10.4968L0.640137 13.4968H4.11014L2.38014 10.4968Z" fill="black"/>
<path d="M14.2537 0.633927L12.8943 0L6.66489 13.359L8.02436 13.9929L14.2537 0.633927Z" fill="black"/>
<path d="M7.79004 12.4968H13.81V11.4968H8.26004L7.79004 12.4968Z" fill="black"/>
<path d="M10.1401 7.48679H13.8101V6.48679H10.6101L10.1401 7.48679Z" fill="black"/>
<path d="M12.5002 2.47679H13.8102V1.47679H12.9702L12.5002 2.47679Z" fill="black"/>
<path d="M8.59015 6.48679H6.65015V7.48679H8.12015L8.59015 6.48679Z" fill="black"/>
<path d="M10.9301 1.47679H6.65015V2.47679H10.4701L10.9301 1.47679Z" fill="black"/>
</svg>
