<?xml version="1.0" encoding="UTF-8"?>
<svg id="_레이어_2" data-name="레이어 2" xmlns="http://www.w3.org/2000/svg" xmlns:xlink="http://www.w3.org/1999/xlink" viewBox="0 0 338.69 289.13">
  <defs>
    <style>
      .cls-1 {
        fill: none;
      }

      .cls-1, .cls-2, .cls-3 {
        stroke-width: 0px;
      }

      .cls-2 {
        fill: #fff;
      }

      .cls-4 {
        clip-path: url(#clippath);
      }

      .cls-3 {
        fill: url(#_무제_그라디언트);
      }
    </style>
    <clipPath id="clippath">
      <path class="cls-1" d="m275.25,158.63l-7.74-4.47c-1.83-1.05-2.95-3-2.95-5.11v-8.93c0-2.11,1.12-4.06,2.95-5.11l7.74-4.47c.91-.53,1.93-.79,2.95-.79s2.03.27,2.95.79l7.74,4.47c.91.53,1.65,1.28,2.16,2.16s.79,1.9.79,2.95v8.93c0,2.11-1.12,4.06-2.95,5.11l-7.74,4.47c-.91.53-1.93.79-2.95.79s-2.04-.26-2.95-.79m-4.21-35.37l-7.74,4.47c-4.41,2.55-7.16,7.29-7.16,12.39v8.93c0,5.1,2.74,9.84,7.15,12.39l7.74,4.47c2.17,1.25,4.65,1.92,7.16,1.92s4.98-.66,7.15-1.92l7.74-4.47c4.41-2.55,7.15-7.29,7.15-12.39v-8.94c0-2.51-.67-4.98-1.92-7.15-1.25-2.17-3.07-3.98-5.24-5.24l-7.74-4.47c-2.17-1.25-4.64-1.91-7.15-1.91s-4.98.66-7.16,1.91h.02Z"/>
    </clipPath>
    <radialGradient id="_무제_그라디언트" data-name="무제 그라디언트" cx="-536.5" cy="-2311.33" fx="-536.5" fy="-2311.33" r="1" gradientTransform="translate(13091.06 58341.14) scale(23.88 25.18)" gradientUnits="userSpaceOnUse">
      <stop offset="0" stop-color="#00ab9f"/>
      <stop offset=".54" stop-color="#00ab9f"/>
      <stop offset=".82" stop-color="#084b97"/>
      <stop offset=".87" stop-color="#074f9a"/>
      <stop offset=".92" stop-color="#055ba4"/>
      <stop offset=".97" stop-color="#0270b4"/>
      <stop offset="1" stop-color="#0080c1"/>
    </radialGradient>
  </defs>
  <g id="_레이어_2-2" data-name=" 레이어 2">
    <path class="cls-2" d="m80.14.8l-7.73,4.46c-1.82,1.05-2.95,3-2.95,5.1v8.93c0,2.11,1.13,4.05,2.95,5.11l7.73,4.46c1.82,1.05,4.07,1.05,5.89,0l7.73-4.47c.91-.52,1.65-1.27,2.16-2.16.51-.88.79-1.89.79-2.95v-8.93c0-2.11-1.12-4.05-2.95-5.1l-7.73-4.46c-1.83-1.05-4.07-1.05-5.89,0"/>
    <path class="cls-2" d="m231.13,265.9l-4.64,2.68c-1.1.63-1.77,1.8-1.77,3.06v5.36c0,1.26.67,2.43,1.77,3.06l4.64,2.68c1.1.63,2.44.63,3.54,0l4.64-2.68c.55-.32.99-.76,1.29-1.29.3-.53.47-1.14.47-1.77v-5.36c0-1.26-.67-2.43-1.77-3.06l-4.64-2.68c-1.09-.63-2.44-.63-3.54,0"/>
    <path class="cls-2" d="m0,141.9v5.36c0,1.27.67,2.43,1.77,3.06l4.64,2.68c1.1.63,2.44.63,3.54,0l4.64-2.68c1.09-.63,1.77-1.8,1.77-3.06v-5.36c0-.63-.17-1.24-.47-1.77-.31-.53-.75-.98-1.29-1.29l-4.64-2.68c-1.09-.63-2.44-.63-3.54,0l-4.64,2.68c-1.09.63-1.77,1.8-1.77,3.06"/>
    <path class="cls-2" d="m72.4,283.89l7.73,4.46c1.82,1.05,4.07,1.05,5.9,0l7.73-4.46c1.82-1.05,2.95-3,2.95-5.1v-8.93c0-2.1-1.12-4.05-2.95-5.1l-7.73-4.47c-.91-.52-1.93-.79-2.95-.79s-2.03.26-2.95.79l-7.73,4.47c-1.82,1.05-2.95,3-2.95,5.1v8.93c0,2.1,1.12,4.05,2.95,5.1"/>
    <path class="cls-2" d="m226.49,20.58l4.64,2.68c1.1.63,2.44.63,3.54,0l4.64-2.68c1.09-.63,1.77-1.8,1.77-3.06v-5.36c0-1.26-.68-2.43-1.77-3.06l-4.64-2.68c-.55-.32-1.16-.48-1.77-.48s-1.22.16-1.77.48l-4.64,2.68c-1.1.63-1.77,1.8-1.77,3.06v5.36c0,1.26.67,2.43,1.77,3.06"/>
    <path class="cls-2" d="m271.85,181.68l-14.07-8.12c-3.32-1.92-7.4-1.92-10.72,0l-14.07,8.12c-3.32,1.92-5.36,5.46-5.36,9.29v.73c-.03,2.17-.3,8.88-2.43,13.42-.1.24-.24.5-.38.77-.02.03-.03.06-.04.09-2.41,4.43-10.59,11.31-21.26,17.47s-20.71,9.81-25.76,9.67h-.12c-.29,0-.58-.02-.83-.06-4.79-.42-10.47-3.31-12.59-4.47l-.87-.5c-3.32-1.92-7.41-1.92-10.73,0h0s-7.43,4.44-13.45,4.96c-.25.04-.54.05-.83.06-.04,0-.09,0-.12,0-5.04.13-15.09-3.51-25.76-9.67-10.67-6.16-18.85-13.04-21.26-17.47-.02-.03-.03-.06-.05-.09-.14-.26-.28-.52-.38-.77-2.02-4.31-2.36-10.58-2.42-13.05v-1.08c0-1.92-.51-3.76-1.44-5.36-.92-1.6-2.26-2.97-3.92-3.92l-.37-.21c-1.54-.91-7.65-4.65-10.66-8.96-.16-.2-.31-.45-.46-.69-.02-.03-.05-.07-.07-.1-2.64-4.3-4.5-14.82-4.5-27.14s1.87-22.84,4.51-27.14c.02-.03.04-.06.05-.09.16-.25.32-.5.48-.71,3.02-4.32,9.16-8.08,10.68-8.97l.32-.18.03-.02h0c1.66-.96,3-2.32,3.92-3.93.93-1.6,1.44-3.45,1.44-5.36v-1.09c.06-2.48.41-8.74,2.42-13.04.1-.24.23-.49.37-.75.02-.03.04-.07.05-.11,2.41-4.43,10.59-11.31,21.26-17.47,10.67-6.16,20.71-9.8,25.76-9.67h.1c.3,0,.59.02.85.06,6.02.52,13.45,4.96,13.45,4.96h.02c1.66.96,3.51,1.43,5.36,1.43s3.7-.48,5.36-1.43h0s7.43-4.44,13.45-4.96c.26-.04.56-.05.85-.06h.1c5.05-.13,15.09,3.51,25.76,9.67,10.67,6.16,18.85,13.04,21.26,17.47.02.04.04.08.05.11.13.26.27.51.36.75,2.11,4.52,2.39,11.18,2.43,13.39v.74c0,3.83,2.04,7.37,5.36,9.29l14.07,8.13c3.32,1.92,7.41,1.92,10.72,0l14.07-8.12c3.32-1.92,5.36-5.46,5.36-9.29v-16.25c0-1.91-.51-3.76-1.44-5.36-.92-1.6-2.27-2.97-3.92-3.93l-14.07-8.12c-3.32-1.92-7.4-1.92-10.72,0l-.57.33c-1.84,1.03-7.84,4.19-12.88,4.63-.25.04-.54.05-.83.06h-.12c-5.04.13-15.09-3.51-25.76-9.67-10.67-6.16-18.85-13.03-21.26-17.47-.02-.03-.03-.06-.04-.09-.14-.26-.28-.52-.38-.76-2.56-5.48-2.43-14.13-2.43-14.13h0c0-3.83-2.04-7.37-5.36-9.29l-14.07-8.12c-3.32-1.92-7.41-1.92-10.73,0l-14.07,8.12c-3.32,1.92-5.36,5.46-5.36,9.29v.02-.02s.12,8.66-2.44,14.13c-.1.24-.24.5-.38.76-.02.03-.03.06-.05.09-2.41,4.44-10.59,11.31-21.26,17.47-10.67,6.16-20.71,9.8-25.76,9.67h-.12c-.29-.01-.58-.02-.83-.06-4.85-.42-10.62-3.38-12.68-4.52l-.76-.44c-3.32-1.92-7.41-1.92-10.73,0l-14.07,8.12c-3.32,1.92-5.36,5.46-5.36,9.29v16.25c0,3.83,2.04,7.37,5.36,9.29h0l.36.21c1.54.9,7.65,4.65,10.66,8.96.16.21.32.46.48.71l.06.09c2.64,4.3,4.5,14.82,4.5,27.14s-1.87,22.84-4.5,27.14c-.02.03-.05.07-.07.1-.15.24-.3.49-.46.69-3.01,4.31-9.12,8.06-10.66,8.96l-.36.2h0c-3.32,1.92-5.36,5.46-5.36,9.29v16.25c0,3.83,2.04,7.37,5.36,9.29l14.07,8.13c3.32,1.92,7.41,1.92,10.73,0l.52-.31c1.79-1.01,7.84-4.21,12.91-4.65.26-.04.56-.05.85-.06h.1c5.04-.13,15.09,3.51,25.76,9.67,10.67,6.16,18.85,13.04,21.26,17.47.02.03.04.08.05.11.14.25.27.51.37.75,2.56,5.48,2.43,14.13,2.43,14.13v-.02.02c0,3.83,2.05,7.37,5.37,9.29l14.07,8.13c1.66.96,3.51,1.44,5.36,1.44s3.7-.48,5.36-1.44l14.07-8.13c3.32-1.91,5.36-5.45,5.36-9.28h0s-.13-8.65,2.43-14.12c.1-.24.23-.49.36-.75.02-.03.04-.07.06-.11,2.41-4.44,10.59-11.31,21.26-17.47s20.71-9.8,25.76-9.67h.1c.3,0,.59.02.85.06,6.02.52,13.45,4.96,13.45,4.96v-.02h0c3.32,1.92,7.41,1.92,10.72,0l14.07-8.13c1.66-.96,3-2.32,3.92-3.92.93-1.6,1.44-3.45,1.44-5.36v-16.25c0-3.83-2.04-7.37-5.36-9.29"/>
    <g class="cls-4">
      <rect class="cls-3" x="256.15" y="121.35" width="44.09" height="46.49"/>
    </g>
    <rect class="cls-2" x="119.68" y="125.18" width="8.96" height="38.82"/>
    <path class="cls-2" d="m208.95,164h-9.66l-2.81-8.43h-14.76l-2.81,8.43h-9.49l14.41-38.82h10.54l14.58,38.82h0Zm-19.96-31.13l-5.34,16.02h11.24l-5.9-16.02h0Z"/>
    <polygon class="cls-2" points="231.74 152.61 239.11 125.18 252.11 125.18 252.11 164 243.86 164 243.86 134.59 235.43 164 228.05 164 219.62 133.77 219.62 164 211.36 164 211.36 125.18 224.36 125.18 231.74 152.61"/>
    <polygon class="cls-2" points="312.52 136.35 329.73 164 338.69 164 338.69 125.18 330.44 125.18 330.44 152.2 313.75 125.18 304.26 125.18 304.26 164 312.52 164 312.52 136.35"/>
    <polygon class="cls-2" points="140.84 136.35 158.05 164 167.01 164 167.01 125.18 158.76 125.18 158.76 152.2 142.06 125.18 132.58 125.18 132.58 164 140.84 164 140.84 136.35"/>
    <path class="cls-2" d="m99.09,156.87c-2.25,0-4.29-.89-5.8-2.33,0,0-.01,0-.02-.02-2.12-2.02-3.55-5.72-3.55-9.97,0-3.95,1.23-7.43,3.11-9.52.01,0,.03-.03.04-.05,1.53-1.69,3.75-2.75,6.21-2.75,4.02,0,7.38,2.83,8.19,6.62l8.53-1.97c-2.4-7.12-9.12-12.24-17.05-12.24-7.02,0-13.08,4.03-16.04,9.89-.15.28-.29.58-.43.89-.04.1-.09.2-.13.3-.18.43-.34.87-.49,1.34-.06.19-.12.39-.17.58-.1.35-.19.72-.28,1.09-.02.11-.05.22-.08.33-.36,1.69-.57,3.55-.57,5.51,0,4.44,1.04,8.38,2.63,10.87,3.11,5.38,8.91,9,15.56,9,7.92,0,14.65-5.13,17.05-12.24l-8.53-1.96c-.81,3.78-4.17,6.62-8.19,6.62"/>
  </g>
</svg>