<svg width="24" height="24" viewBox="0 0 24 24" fill="none" xmlns="http://www.w3.org/2000/svg">
<path d="M21.7219 9.30704L12.4406 2.55704C12.3128 2.46339 12.1584 2.4129 12 2.4129C11.8415 2.4129 11.6872 2.46339 11.5594 2.55704L2.27811 9.30704C2.14994 9.40023 2.05459 9.53162 2.00575 9.68237C1.9569 9.83312 1.95707 9.99546 2.00624 10.1461L5.55233 21.068C5.60128 21.2184 5.69656 21.3496 5.82453 21.4426C5.9525 21.5356 6.10662 21.5858 6.26483 21.5859H17.7375C18.0633 21.5859 18.3492 21.3774 18.45 21.068L21.9961 10.1461C22.0945 9.83673 21.9844 9.49923 21.7219 9.30704ZM19.6547 9.77345L17.3461 10.5234L12.6586 7.13204V4.68517L19.6547 9.77345ZM10.9219 13.2938L8.83358 16.1602L7.53983 12.1945L10.9219 13.2938ZM8.19608 11.025L11.3437 8.74923V12.0492L8.19608 11.025ZM12 14.0438L14.2008 17.0649H9.79921L12 14.0438ZM12.6586 8.74923L15.8039 11.025L12.6586 12.0469V8.74923ZM13.0781 13.2938L16.4601 12.1945L15.1664 16.1602L13.0781 13.2938ZM11.3437 4.68517V7.13204L6.6539 10.5234L4.3453 9.77345L11.3437 4.68517ZM3.96796 11.0344L5.9953 11.693L7.87968 17.468L6.61874 19.2L3.96796 11.0344ZM7.6664 19.9922L8.8453 18.375H15.157L16.3359 19.9922H7.6664ZM17.3812 19.2L16.1203 17.468L18.0047 11.693L20.032 11.0344L17.3812 19.2Z" fill="black"/>
</svg>
