<svg width="24" height="24" viewBox="0 0 24 24" fill="none" xmlns="http://www.w3.org/2000/svg">
<path d="M11 22C5.947 21.499 2 17.235 2 12.05C2 6.52699 6.477 2.04999 12 2.04999C17.185 2.04999 21.449 5.99699 21.95 11.05L19.938 11.05C19.6813 9.0327 18.6661 7.18884 17.0988 5.89318C15.5314 4.59751 13.5295 3.94727 11.5 4.07461C9.47041 4.20195 7.56548 5.09732 6.17238 6.57873C4.77927 8.06015 4.00252 10.0164 4 12.05C4.00003 13.9986 4.71118 15.8802 6 17.3417C7.28882 18.8033 9.0667 19.7442 11 19.988L11 22Z" fill="black"/>
<path d="M7.78409 15L10.3864 9.85227V9.80682H7.38636V9.18182H11.1136V9.84091L8.52273 15H7.78409ZM13.9126 15.0795C13.5793 15.0795 13.2791 15.0133 13.0121 14.8807C12.745 14.7481 12.531 14.5663 12.37 14.3352C12.209 14.1042 12.121 13.8409 12.1058 13.5455H12.7876C12.8142 13.8087 12.9335 14.0265 13.1456 14.1989C13.3596 14.3693 13.6153 14.4545 13.9126 14.4545C14.1513 14.4545 14.3634 14.3987 14.549 14.2869C14.7365 14.1752 14.8833 14.0218 14.9893 13.8267C15.0973 13.6297 15.1513 13.4072 15.1513 13.1591C15.1513 12.9053 15.0954 12.679 14.9837 12.4801C14.8738 12.2794 14.7223 12.1212 14.5291 12.0057C14.3359 11.8902 14.1153 11.8314 13.8672 11.8295C13.6892 11.8277 13.5064 11.8551 13.3189 11.9119C13.1314 11.9669 12.977 12.0379 12.8558 12.125L12.1967 12.0455L12.549 9.18182H15.5717V9.80682H13.1399L12.9354 11.5227H12.9695C13.0888 11.428 13.2384 11.3494 13.4183 11.2869C13.5982 11.2244 13.7857 11.1932 13.9808 11.1932C14.3369 11.1932 14.6541 11.2784 14.9325 11.4489C15.2128 11.6174 15.4325 11.8485 15.5916 12.142C15.7526 12.4356 15.8331 12.7708 15.8331 13.1477C15.8331 13.5189 15.7498 13.8504 15.5831 14.142C15.4183 14.4318 15.1911 14.661 14.9013 14.8295C14.6115 14.9962 14.282 15.0795 13.9126 15.0795Z" fill="black"/>
</svg>
