<svg width="24" height="24" viewBox="0 0 24 24" fill="none" xmlns="http://www.w3.org/2000/svg">
<g clip-path="url(#clip0_203_6)">
<path d="M12 1.33331C9.89033 1.33331 7.82804 1.9589 6.07392 3.13097C4.31979 4.30304 2.95262 5.96894 2.14528 7.91802C1.33795 9.8671 1.12671 12.0118 1.53829 14.0809C1.94987 16.1501 2.96577 18.0507 4.45753 19.5425C5.94929 21.0342 7.84991 22.0501 9.91904 22.4617C11.9882 22.8733 14.1329 22.662 16.082 21.8547C18.031 21.0474 19.6969 19.6802 20.869 17.9261C22.0411 16.1719 22.6667 14.1096 22.6667 12C22.6667 9.171 21.5429 6.4579 19.5425 4.45751C17.5421 2.45712 14.829 1.33331 12 1.33331ZM2.66667 12C2.6673 9.75724 3.47954 7.59049 4.95333 5.89998L18.1 19.0466C16.7479 20.2142 15.0892 20.9692 13.3208 21.222C11.5523 21.4748 9.7485 21.2148 8.12346 20.4728C6.49842 19.7308 5.12046 18.5381 4.15319 17.0362C3.18593 15.5343 2.66999 13.7864 2.66667 12ZM19.0467 18.1L5.9 4.95331C7.68891 3.4586 9.97241 2.68744 12.3013 2.79156C14.6301 2.89568 16.8357 3.86753 18.4841 5.51592C20.1324 7.1643 21.1043 9.36988 21.2084 11.6987C21.3125 14.0276 20.5414 16.3111 19.0467 18.1Z" fill="black"/>
</g>
<defs>
<clipPath id="clip0_203_6">
<rect width="24" height="24" fill="white"/>
</clipPath>
</defs>
</svg>
