<svg width="24" height="24" viewBox="0 0 24 24" fill="none" xmlns="http://www.w3.org/2000/svg">
<path d="M12 16.5H22.5V18H12V16.5Z" fill="black"/>
<path d="M6.75 15H3.75C3.33579 15 3 15.3358 3 15.75V18.75C3 19.1642 3.33579 19.5 3.75 19.5H6.75C7.16421 19.5 7.5 19.1642 7.5 18.75V15.75C7.5 15.3358 7.16421 15 6.75 15Z" fill="black"/>
<path d="M12 5.99999H22.5V7.49999H12V5.99999ZM7.12499 8.99999H3.37499C3.31104 8.99999 3.24815 8.98363 3.19231 8.95248C3.13646 8.92132 3.08951 8.87641 3.05592 8.82199C3.02232 8.76758 3.0032 8.70548 3.00037 8.64159C2.99754 8.57771 3.01109 8.51416 3.03974 8.45699L4.91474 4.69049C4.94929 4.63236 4.99836 4.58421 5.05713 4.55078C5.11591 4.51734 5.18237 4.49976 5.24999 4.49976C5.31761 4.49976 5.38407 4.51734 5.44284 4.55078C5.50162 4.58421 5.55069 4.63236 5.58524 4.69049L7.46024 8.45774C7.48871 8.51488 7.50213 8.57835 7.49921 8.64213C7.49629 8.70591 7.47714 8.76789 7.44356 8.82219C7.40999 8.87649 7.36311 8.92133 7.30735 8.95244C7.2516 8.98356 7.18883 8.99992 7.12499 8.99999Z" fill="black"/>
</svg>
