<svg width="24" height="24" viewBox="0 0 24 24" fill="none" xmlns="http://www.w3.org/2000/svg">
<path d="M20.625 1.875H3.375C3.17609 1.875 2.98532 1.95402 2.84467 2.09467C2.70402 2.23532 2.625 2.42609 2.625 2.625V21.375C2.625 21.5739 2.70402 21.7647 2.84467 21.9053C2.98532 22.046 3.17609 22.125 3.375 22.125H20.625C20.8239 22.125 21.0147 22.046 21.1553 21.9053C21.296 21.7647 21.375 21.5739 21.375 21.375V2.625C21.375 2.42609 21.296 2.23532 21.1553 2.09467C21.0147 1.95402 20.8239 1.875 20.625 1.875ZM19.875 10.875H17.625V13.125H19.875V15.375H17.625V17.25H15.375V15.375H13.125V17.25H10.875V15.375H8.625V17.25H6.375V15.375H4.125V13.125H6.375V10.875H4.125V3.375H19.875V10.875Z" fill="black"/>
<path d="M6.375 13.125H8.625V15.375H6.375V13.125ZM8.625 10.875H10.875V13.125H8.625V10.875ZM10.875 13.125H13.125V15.375H10.875V13.125ZM13.125 10.875H15.375V13.125H13.125V10.875ZM15.375 13.125H17.625V15.375H15.375V13.125ZM6.375 8.625H8.625V10.875H6.375V8.625ZM10.875 8.625H13.125V10.875H10.875V8.625ZM15.375 8.625H17.625V10.875H15.375V8.625Z" fill="black"/>
</svg>
