<svg width="24" height="24" viewBox="0 0 24 24" fill="none" xmlns="http://www.w3.org/2000/svg">
<g clip-path="url(#clip0_203_2)">
<path d="M22.4867 1.40666C21.9673 0.90898 21.2722 0.636728 20.5529 0.649215C19.8337 0.661702 19.1485 0.957917 18.6467 1.47333L15.2067 4.91999C14.8287 5.29622 14.3211 5.51346 13.7879 5.5271C13.2548 5.54073 12.7367 5.34974 12.34 4.99333L11.3933 5.93999L18 12.5267L18.9467 11.58C18.578 11.183 18.3753 10.6598 18.3803 10.118C18.3852 9.57622 18.5974 9.05689 18.9733 8.66666L22.42 5.21999C22.929 4.7201 23.2212 4.04026 23.2337 3.32697C23.2461 2.61368 22.9779 1.92404 22.4867 1.40666Z" fill="black"/>
<path d="M14.7867 11.1933L4.97333 21.0066C4.85181 21.1403 4.70441 21.2478 4.54008 21.3228C4.37574 21.3977 4.19789 21.4385 4.01732 21.4426C3.83675 21.4467 3.65722 21.4141 3.48964 21.3467C3.32205 21.2794 3.16989 21.1787 3.0424 21.0507C2.91491 20.9228 2.81475 20.7703 2.74798 20.6025C2.68122 20.4346 2.64925 20.255 2.65401 20.0744C2.65877 19.8939 2.70017 19.7162 2.77569 19.5521C2.85121 19.388 2.95927 19.241 3.09333 19.12L12.9 9.33331L11.96 8.39331L2.14666 18.18C1.73122 18.5902 1.46187 19.1254 1.37998 19.7035C1.29809 20.2815 1.40817 20.8705 1.69333 21.38L0.706664 22.3666C0.582497 22.4916 0.512802 22.6605 0.512802 22.8366C0.512802 23.0128 0.582497 23.1817 0.706664 23.3066C0.831572 23.4308 1.00054 23.5005 1.17666 23.5005C1.35279 23.5005 1.52176 23.4308 1.64666 23.3066L2.60666 22.3466C3.02425 22.6084 3.50718 22.747 4 22.7466C4.35697 22.7465 4.71039 22.6757 5.03991 22.5384C5.36943 22.4011 5.66853 22.2 5.92 21.9466L15.7333 12.14L14.7867 11.1933Z" fill="black"/>
</g>
<defs>
<clipPath id="clip0_203_2">
<rect width="24" height="24" fill="white"/>
</clipPath>
</defs>
</svg>
