<svg width="12" height="12" viewBox="0 0 12 12" fill="none" xmlns="http://www.w3.org/2000/svg">
<g clip-path="url(#clip0_181_75)">
<path fill-rule="evenodd" clip-rule="evenodd" d="M1.46293 0.251352C1.30127 0.0952169 1.08476 0.00882166 0.860018 0.0107746C0.635278 0.0127275 0.420296 0.102872 0.261375 0.261794C0.102453 0.420715 0.0123086 0.635697 0.0103557 0.860437C0.00840274 1.08518 0.0947979 1.30169 0.250933 1.46335L4.78779 6.00021L0.250933 10.5371C0.169068 10.6161 0.103769 10.7107 0.0588465 10.8153C0.0139245 10.9199 -0.00972084 11.0323 -0.0107098 11.1462C-0.0116988 11.26 0.00998837 11.3728 0.0530863 11.4782C0.0961842 11.5835 0.15983 11.6792 0.240309 11.7597C0.320789 11.8402 0.41649 11.9038 0.52183 11.9469C0.62717 11.99 0.740038 12.0117 0.853849 12.0107C0.96766 12.0097 1.08013 11.9861 1.18471 11.9412C1.28928 11.8962 1.38386 11.8309 1.46293 11.7491L5.99979 7.21221L10.5366 11.7491C10.6983 11.9052 10.9148 11.9916 11.1396 11.9896C11.3643 11.9877 11.5793 11.8975 11.7382 11.7386C11.8971 11.5797 11.9873 11.3647 11.9892 11.14C11.9912 10.9152 11.9048 10.6987 11.7486 10.5371L7.21179 6.00021L11.7486 1.46335C11.9048 1.30169 11.9912 1.08518 11.9892 0.860437C11.9873 0.635697 11.8971 0.420715 11.7382 0.261794C11.5793 0.102872 11.3643 0.0127275 11.1396 0.0107746C10.9148 0.00882166 10.6983 0.0952169 10.5366 0.251352L5.99979 4.78821L1.46293 0.251352Z" fill="black"/>
</g>
<defs>
<clipPath id="clip0_181_75">
<rect width="12" height="12" fill="white"/>
</clipPath>
</defs>
</svg>
