<svg width="24" height="24" viewBox="0 0 24 24" fill="none" xmlns="http://www.w3.org/2000/svg">
<path d="M3.08995 16.3646H7.52995V20.724C7.52995 21.216 7.82138 21.5173 8.29366 21.5173C8.75566 21.5173 9.04666 21.216 9.04666 20.7236V16.365H14.8928V20.7244C14.8928 21.2164 15.1842 21.5177 15.6561 21.5177C16.1181 21.5177 16.4095 21.2164 16.4095 20.724V16.365H20.9194C21.4118 16.365 21.7131 16.0736 21.7131 15.6013C21.7131 15.1294 21.4118 14.8479 20.9194 14.8479H16.4099V9.19286H20.9198C21.4122 9.19286 21.7135 8.90143 21.7135 8.43943C21.7135 7.96757 21.4122 7.67657 20.9198 7.67657H16.4099V3.28586C16.4099 2.79343 16.1185 2.48228 15.6565 2.48228C15.1847 2.48228 14.8932 2.79343 14.8932 3.28586V7.67571H9.04709V3.28628C9.04709 2.79386 8.75566 2.48271 8.29366 2.48271C7.82138 2.48271 7.52995 2.79386 7.52995 3.28628V7.67571H3.08995C2.58809 7.67571 2.28681 7.96714 2.28681 8.439C2.28681 8.90143 2.58809 9.19243 3.09038 9.19243H7.53038V14.8479H3.08995C2.58766 14.8479 2.28638 15.129 2.28638 15.6009C2.28638 16.0731 2.58766 16.3646 3.08995 16.3646ZM9.04709 14.8474V9.19286H14.8928V14.8483L9.04709 14.8474Z" fill="black"/>
</svg>
