<svg width="24" height="24" viewBox="0 0 24 24" fill="none" xmlns="http://www.w3.org/2000/svg">
<path d="M20.4 5.30005C20.9039 5.30005 21.3872 5.50023 21.7435 5.85655C22.0998 6.21286 22.3 6.69614 22.3 7.20005L22.3 16.8C22.3 17.304 22.0998 17.7872 21.7435 18.1436C21.3872 18.4999 20.9039 18.7 20.4 18.7L19.2 18.7C18.6961 18.7 18.2128 18.4999 17.8565 18.1436C17.5002 17.7872 17.3 17.304 17.3 16.8L17.3 7.20005C17.3 6.69614 17.5002 6.21286 17.8565 5.85655C18.2128 5.50023 18.6961 5.30005 19.2 5.30005L20.4 5.30005ZM22.1 7.20005C22.1 6.74918 21.9209 6.31678 21.6021 5.99797C21.2833 5.67916 20.8509 5.50005 20.4 5.50005L19.2 5.50005C18.7491 5.50005 18.3167 5.67916 17.9979 5.99797C17.6791 6.31678 17.5 6.74918 17.5 7.20005L17.5 16.8C17.5 17.2509 17.6791 17.6833 17.9979 18.0021C18.3167 18.3209 18.7491 18.5 19.2 18.5L20.4 18.5C20.8509 18.5 21.2833 18.3209 21.6021 18.0021C21.9209 17.6833 22.1 17.2509 22.1 16.8L22.1 7.20005ZM6 5.30005C6.50392 5.30005 6.98719 5.50023 7.34351 5.85655C7.69983 6.21286 7.9 6.69614 7.9 7.20005L7.9 16.8C7.9 17.304 7.69982 17.7872 7.34351 18.1436C6.98719 18.4999 6.50392 18.7 6 18.7L4.8 18.7C4.29609 18.7 3.81282 18.4999 3.4565 18.1436C3.10018 17.7872 2.9 17.304 2.9 16.8L2.9 7.20005C2.9 6.69614 3.10018 6.21286 3.4565 5.85654C3.81282 5.50023 4.29609 5.30005 4.8 5.30005L6 5.30005ZM7.7 7.20005C7.7 6.74918 7.5209 6.31678 7.20209 5.99797C6.88327 5.67916 6.45087 5.50005 6 5.50005L4.8 5.50005C4.34914 5.50005 3.91673 5.67915 3.59792 5.99797C3.27911 6.31678 3.1 6.74918 3.1 7.20005L3.1 16.8C3.1 17.2509 3.27911 17.6833 3.59792 18.0021C3.91673 18.3209 4.34914 18.5 4.8 18.5L6 18.5C6.45087 18.5 6.88327 18.3209 7.20208 18.0021C7.5209 17.6833 7.7 17.2509 7.7 16.8L7.7 7.20005ZM14.5435 5.85655C14.8998 6.21286 15.1 6.69614 15.1 7.20005L15.1 16.8C15.1 17.304 14.8998 17.7872 14.5435 18.1436C14.1872 18.4999 13.7039 18.7 13.2 18.7L12 18.7C11.4961 18.7 11.0128 18.4999 10.6565 18.1436C10.3002 17.7872 10.1 17.304 10.1 16.8L10.1 7.20005C10.1 6.69614 10.3002 6.21286 10.6565 5.85655C11.0128 5.50023 11.4961 5.30005 12 5.30005L13.2 5.30005C13.7039 5.30005 14.1872 5.50023 14.5435 5.85655ZM14.4021 5.99797C14.0833 5.67916 13.6509 5.50005 13.2 5.50005L12 5.50005C11.5491 5.50005 11.1167 5.67916 10.7979 5.99797C10.4791 6.31678 10.3 6.74918 10.3 7.20005L10.3 16.8C10.3 17.2509 10.4791 17.6833 10.7979 18.0021C11.1167 18.3209 11.5491 18.5 12 18.5L13.2 18.5C13.6509 18.5 14.0833 18.3209 14.4021 18.0021C14.7209 17.6833 14.9 17.2509 14.9 16.8L14.9 7.20005C14.9 6.74918 14.7209 6.31678 14.4021 5.99797Z" fill="black" stroke="black"/>
</svg>
