<svg width="24" height="24" viewBox="0 0 24 24" fill="none" xmlns="http://www.w3.org/2000/svg">
<path d="M4.8 3.59995C4.8 2.96343 5.05286 2.35298 5.50295 1.90289C5.95303 1.45281 6.56348 1.19995 7.2 1.19995H16.8C17.4365 1.19995 18.047 1.45281 18.4971 1.90289C18.9471 2.35298 19.2 2.96343 19.2 3.59995V4.79995C19.2 5.43647 18.9471 6.04692 18.4971 6.49701C18.047 6.94709 17.4365 7.19995 16.8 7.19995H7.2C6.56348 7.19995 5.95303 6.94709 5.50295 6.49701C5.05286 6.04692 4.8 5.43647 4.8 4.79995V3.59995ZM7.2 2.39995C6.88174 2.39995 6.57652 2.52638 6.35148 2.75142C6.12643 2.97647 6 3.28169 6 3.59995V4.79995C6 5.11821 6.12643 5.42344 6.35148 5.64848C6.57652 5.87352 6.88174 5.99995 7.2 5.99995H16.8C17.1183 5.99995 17.4235 5.87352 17.6485 5.64848C17.8736 5.42344 18 5.11821 18 4.79995V3.59995C18 3.28169 17.8736 2.97647 17.6485 2.75142C17.4235 2.52638 17.1183 2.39995 16.8 2.39995H7.2ZM4.8 18C4.8 17.3634 5.05286 16.753 5.50295 16.3029C5.95303 15.8528 6.56348 15.6 7.2 15.6H16.8C17.4365 15.6 18.047 15.8528 18.4971 16.3029C18.9471 16.753 19.2 17.3634 19.2 18V19.2C19.2 19.8365 18.9471 20.4469 18.4971 20.897C18.047 21.3471 17.4365 21.5999 16.8 21.5999H7.2C6.56348 21.5999 5.95303 21.3471 5.50295 20.897C5.05286 20.4469 4.8 19.8365 4.8 19.2V18ZM7.2 16.8C6.88174 16.8 6.57652 16.9264 6.35148 17.1514C6.12643 17.3765 6 17.6817 6 18V19.2C6 19.5182 6.12643 19.8234 6.35148 20.0485C6.57652 20.2735 6.88174 20.4 7.2 20.4H16.8C17.1183 20.4 17.4235 20.2735 17.6485 20.0485C17.8736 19.8234 18 19.5182 18 19.2V18C18 17.6817 17.8736 17.3765 17.6485 17.1514C17.4235 16.9264 17.1183 16.8 16.8 16.8H7.2ZM7.2 8.39995C6.56348 8.39995 5.95303 8.65281 5.50295 9.10289C5.05286 9.55298 4.8 10.1634 4.8 10.8V12C4.8 12.6365 5.05286 13.2469 5.50295 13.697C5.95303 14.1471 6.56348 14.4 7.2 14.4H16.8C17.4365 14.4 18.047 14.1471 18.4971 13.697C18.9471 13.2469 19.2 12.6365 19.2 12V10.8C19.2 10.1634 18.9471 9.55298 18.4971 9.10289C18.047 8.65281 17.4365 8.39995 16.8 8.39995H7.2ZM6 10.8C6 10.4817 6.12643 10.1765 6.35148 9.95142C6.57652 9.72638 6.88174 9.59995 7.2 9.59995H16.8C17.1183 9.59995 17.4235 9.72638 17.6485 9.95142C17.8736 10.1765 18 10.4817 18 10.8V12C18 12.3182 17.8736 12.6234 17.6485 12.8485C17.4235 13.0735 17.1183 13.2 16.8 13.2H7.2C6.88174 13.2 6.57652 13.0735 6.35148 12.8485C6.12643 12.6234 6 12.3182 6 12V10.8Z" fill="black"/>
</svg>
