<svg width="16" height="16" viewBox="0 0 16 16" fill="none" xmlns="http://www.w3.org/2000/svg">
<path d="M1.75 10C1.94891 10 2.13968 10.079 2.28033 10.2197C2.42098 10.3603 2.5 10.5511 2.5 10.75V13.25C2.5 13.388 2.612 13.5 2.75 13.5H5.25C5.44891 13.5 5.63968 13.579 5.78033 13.7197C5.92098 13.8603 6 14.0511 6 14.25C6 14.4489 5.92098 14.6397 5.78033 14.7803C5.63968 14.921 5.44891 15 5.25 15H2.75C2.28587 15 1.84075 14.8156 1.51256 14.4874C1.18437 14.1592 1 13.7141 1 13.25V10.75C1 10.5511 1.07902 10.3603 1.21967 10.2197C1.36032 10.079 1.55109 10 1.75 10ZM14.25 10C14.4489 10 14.6397 10.079 14.7803 10.2197C14.921 10.3603 15 10.5511 15 10.75V13.25C15 13.7141 14.8156 14.1592 14.4874 14.4874C14.1592 14.8156 13.7141 15 13.25 15H10.75C10.5511 15 10.3603 14.921 10.2197 14.7803C10.079 14.6397 10 14.4489 10 14.25C10 14.0511 10.079 13.8603 10.2197 13.7197C10.3603 13.579 10.5511 13.5 10.75 13.5H13.25C13.3163 13.5 13.3799 13.4737 13.4268 13.4268C13.4737 13.3799 13.5 13.3163 13.5 13.25V10.75C13.5 10.5511 13.579 10.3603 13.7197 10.2197C13.8603 10.079 14.0511 10 14.25 10ZM2.75 2.5C2.6837 2.5 2.62011 2.52634 2.57322 2.57322C2.52634 2.62011 2.5 2.6837 2.5 2.75V5.25C2.5 5.44891 2.42098 5.63968 2.28033 5.78033C2.13968 5.92098 1.94891 6 1.75 6C1.55109 6 1.36032 5.92098 1.21967 5.78033C1.07902 5.63968 1 5.44891 1 5.25V2.75C1 1.784 1.784 1 2.75 1H5.25C5.44891 1 5.63968 1.07902 5.78033 1.21967C5.92098 1.36032 6 1.55109 6 1.75C6 1.94891 5.92098 2.13968 5.78033 2.28033C5.63968 2.42098 5.44891 2.5 5.25 2.5H2.75ZM10 1.75C10 1.55109 10.079 1.36032 10.2197 1.21967C10.3603 1.07902 10.5511 1 10.75 1H13.25C14.216 1 15 1.784 15 2.75V5.25C15 5.44891 14.921 5.63968 14.7803 5.78033C14.6397 5.92098 14.4489 6 14.25 6C14.0511 6 13.8603 5.92098 13.7197 5.78033C13.579 5.63968 13.5 5.44891 13.5 5.25V2.75C13.5 2.6837 13.4737 2.62011 13.4268 2.57322C13.3799 2.52634 13.3163 2.5 13.25 2.5H10.75C10.5511 2.5 10.3603 2.42098 10.2197 2.28033C10.079 2.13968 10 1.94891 10 1.75Z" fill="black"/>
</svg>
