<svg width="24" height="24" viewBox="0 0 24 24" fill="none" xmlns="http://www.w3.org/2000/svg">
<path d="M20.5869 3.4231L22.0009 4.8371L19.9999 6.8401V18.0001C19.9999 18.5305 19.7892 19.0392 19.4142 19.4143C19.0391 19.7894 18.5304 20.0001 17.9999 20.0001H6.83895L4.83295 22.0061L3.41895 20.5921L20.5869 3.4231ZM12.4199 14.4201L13.4209 15.4211L14.4209 14.4211C14.7251 14.1778 15.1079 14.0547 15.4969 14.0749C15.8858 14.0952 16.2537 14.2575 16.5309 14.5311L17.9999 16.0001V8.8391L12.4199 14.4201ZM15.1619 6.0001H5.99995V12.3801L8.18995 10.1901L9.58095 11.5811L3.99995 17.1621V6.0001C3.99995 5.46966 4.21066 4.96095 4.58573 4.58588C4.9608 4.21081 5.46951 4.0001 5.99995 4.0001H17.1619L15.1619 6.0001Z" fill="black"/>
</svg>
