<svg width="57" height="57" viewBox="0 0 57 57" fill="none" xmlns="http://www.w3.org/2000/svg">
<path fill-rule="evenodd" clip-rule="evenodd" d="M34.4375 21.375C41.6517 21.375 47.5 27.2233 47.5 34.4375C47.5 37.1866 46.6508 39.7372 45.2004 41.8416L51.8672 48.5084L48.5084 51.8672L41.8416 45.2004C39.7372 46.6508 37.1866 47.5 34.4375 47.5C27.2232 47.5 21.375 41.6517 21.375 34.4375C21.375 27.2233 27.2232 21.375 34.4375 21.375ZM34.4375 26.125C29.8466 26.125 26.125 29.8467 26.125 34.4375C26.125 39.0284 29.8467 42.75 34.4375 42.75C39.0284 42.75 42.75 39.0283 42.75 34.4375C42.75 29.8466 39.0283 26.125 34.4375 26.125ZM19.0449 33.2499C19.0149 33.6419 19 34.0378 18.9999 34.4375C18.9999 35.6637 19.1428 36.8565 19.4129 38.0002L4.74988 38V33.25L19.0449 33.2499ZM14.2501 7.125V30.875H7.12495V7.125H14.2501ZM23.75 16.625L23.7497 23.298C21.6423 25.3206 20.1075 27.9353 19.4131 30.8749L16.625 30.875V16.625H23.75ZM33.25 11.875V19.045C30.7143 19.2364 28.266 20.0549 26.125 21.4269V11.8749L33.25 11.875ZM42.75 14.25L42.7501 21.4269C40.6091 20.0549 38.1607 19.2364 35.6251 19.045V14.25H42.75Z" fill="black"/>
</svg>
