<svg width="16" height="15" viewBox="0 0 16 15" fill="none" xmlns="http://www.w3.org/2000/svg">
<path fill-rule="evenodd" clip-rule="evenodd" d="M3.14995 0.973999C2.0465 0.973999 0.974121 1.70371 0.974121 2.79448V12.423C0.974121 13.5572 2.03222 14.2985 3.14995 14.2985H8.11039C8.38653 14.2985 8.61039 14.0746 8.61039 13.7985C8.61039 13.5224 8.38653 13.2985 8.11039 13.2985H3.14995C2.39074 13.2985 1.97412 12.8293 1.97412 12.423V2.79448C1.97412 2.45473 2.37647 1.974 3.14995 1.974H8.11039C8.38653 1.974 8.61039 1.75014 8.61039 1.474C8.61039 1.19786 8.38653 0.973999 8.11039 0.973999H3.14995ZM11.5177 4.43856C11.713 4.2433 12.0296 4.2433 12.2248 4.43856L14.8793 7.09307C15.0746 7.28833 15.0746 7.60491 14.8793 7.80018L12.2248 10.4547C12.0296 10.6499 11.713 10.6499 11.5177 10.4547C11.3224 10.2594 11.3224 9.94284 11.5177 9.74758L13.3186 7.94667H4.79199C4.51585 7.94667 4.29199 7.72281 4.29199 7.44667C4.29199 7.17053 4.51585 6.94667 4.79199 6.94667H13.3187L11.5177 5.14567C11.3224 4.95041 11.3224 4.63382 11.5177 4.43856Z" fill="#999999"/>
</svg>
