<svg width="24" height="24" viewBox="0 0 24 24" fill="none" xmlns="http://www.w3.org/2000/svg">
<g clip-path="url(#clip0_111_463)">
<path fill-rule="evenodd" clip-rule="evenodd" d="M0.60552 1.19998C0.526264 1.19925 0.447648 1.21423 0.374214 1.24406C0.300781 1.27388 0.233984 1.31796 0.177683 1.37375C0.121382 1.42954 0.0766919 1.49593 0.0461945 1.56909C0.0156971 1.64224 -3.35381e-06 1.72072 5.37368e-10 1.79998L5.37369e-10 18.6696C1.91882e-05 18.7839 0.0327178 18.8959 0.0942445 18.9923C0.155771 19.0887 0.243563 19.1655 0.34728 19.2137L7.94712 22.7441C8.02805 22.7817 8.11635 22.8008 8.2056 22.8C8.29119 22.7993 8.37564 22.7803 8.45328 22.7443L11.5877 21.2877C11.6402 20.7965 11.7262 20.3083 11.8637 19.8365L8.55528 21.3737L8.46672 5.86822L15.3487 2.67118L15.3857 9.1147C15.6098 8.93512 15.8499 8.77646 16.103 8.6407L16.0682 2.58622L22.8 5.71318V12.618C22.8012 12.6764 22.8012 12.7348 22.8 12.7932V17.0877C23.1521 17.3541 23.4703 17.6635 23.7336 18.0206C23.8296 18.149 23.9174 18.2817 24 18.4171V5.33062C24 5.21622 23.9673 5.1042 23.9058 5.00776C23.8443 4.91132 23.7565 4.83448 23.6527 4.7863L16.0529 1.2559C15.9719 1.21823 15.8835 1.19913 15.7942 1.19998C15.7087 1.20073 15.6245 1.21971 15.547 1.25566L8.19984 4.6687L0.85272 1.2559C0.775242 1.21987 0.690962 1.2008 0.60552 1.19998ZM1.2 2.7403L7.746 5.7811L7.83504 21.3691L1.2 18.2861V2.7403Z" fill="black"/>
<path d="M18.24 9.06458C16.2516 9.06458 14.64 10.6764 14.64 12.6646C14.64 14.6527 16.2516 16.2646 18.24 16.2646C20.2279 16.2646 21.84 14.6527 21.84 12.6646C21.84 10.6764 20.2279 9.06458 18.24 9.06458ZM18.24 16.7981C14.2632 16.7981 12.48 18.5815 12.48 22.5581V23.0381C12.498 23.9837 12.9161 24.0115 13.8 23.9981H22.68C23.8068 23.9971 24.0077 23.9993 24 23.0381V22.5581C24 18.5815 22.2163 16.7981 18.24 16.7981Z" fill="black"/>
</g>
<defs>
<clipPath id="clip0_111_463">
<rect width="24" height="24" fill="white"/>
</clipPath>
</defs>
</svg>
