<svg width="24" height="24" viewBox="0 0 24 24" fill="none" xmlns="http://www.w3.org/2000/svg">
<g clip-path="url(#clip0_1_54)">
<path d="M21.1158 15.9373C21.7014 15.1049 22.1552 14.1873 22.4613 13.2167C20.7733 14.513 18.7157 15.2369 16.5879 15.2831C14.4601 15.3294 12.373 14.6955 10.6303 13.4738C8.88757 12.252 7.58009 10.5061 6.89806 8.49007C6.21602 6.47399 6.195 4.2929 6.83806 2.26405C5.69488 3.14193 4.75499 4.25656 4.08278 5.53157C3.41057 6.80659 3.02193 8.21185 2.94349 9.65108C2.86505 11.0903 3.09866 12.5295 3.62832 13.87C4.15798 15.2105 4.97117 16.4207 6.01217 17.4176C7.05316 18.4145 8.29737 19.1746 9.65953 19.6458C11.0217 20.117 12.4696 20.2882 13.9041 20.1476C15.3386 20.007 16.7258 19.558 17.9705 18.8313C19.2153 18.1045 20.2882 17.1173 21.1158 15.9373Z" fill="black"/>
</g>
<defs>
<clipPath id="clip0_1_54">
<rect width="24" height="24" fill="white"/>
</clipPath>
</defs>
</svg>
