<svg width="20" height="20" viewBox="0 0 20 20" fill="none" xmlns="http://www.w3.org/2000/svg">
<path d="M14.95 5.00006C14.8352 4.43492 14.5286 3.92683 14.0821 3.56188C13.6356 3.19692 13.0767 2.99756 12.5 2.99756C11.9233 2.99756 11.3644 3.19692 10.9179 3.56188C10.4714 3.92683 10.1648 4.43492 10.05 5.00006H2.5C2.36739 5.00006 2.24021 5.05274 2.14645 5.14651C2.05268 5.24028 2 5.36746 2 5.50006C2 5.63267 2.05268 5.75985 2.14645 5.85362C2.24021 5.94739 2.36739 6.00006 2.5 6.00006H10.05C10.1648 6.56521 10.4714 7.0733 10.9179 7.43825C11.3644 7.80321 11.9233 8.00257 12.5 8.00257C13.0767 8.00257 13.6356 7.80321 14.0821 7.43825C14.5286 7.0733 14.8352 6.56521 14.95 6.00006H17.5C17.6326 6.00006 17.7598 5.94739 17.8536 5.85362C17.9473 5.75985 18 5.63267 18 5.50006C18 5.36746 17.9473 5.24028 17.8536 5.14651C17.7598 5.05274 17.6326 5.00006 17.5 5.00006H14.95ZM12.5 7.00006C12.303 7.00006 12.108 6.96127 11.926 6.88588C11.744 6.8105 11.5786 6.70001 11.4393 6.56073C11.3001 6.42144 11.1896 6.25608 11.1142 6.07409C11.0388 5.8921 11 5.69705 11 5.50006C11 5.30308 11.0388 5.10803 11.1142 4.92604C11.1896 4.74405 11.3001 4.57869 11.4393 4.4394C11.5786 4.30012 11.744 4.18963 11.926 4.11425C12.108 4.03886 12.303 4.00006 12.5 4.00006C12.8978 4.00006 13.2794 4.1581 13.5607 4.4394C13.842 4.72071 14 5.10224 14 5.50006C14 5.89789 13.842 6.27942 13.5607 6.56073C13.2794 6.84203 12.8978 7.00006 12.5 7.00006ZM9.95 14.0001C9.83524 13.4349 9.52864 12.9268 9.08213 12.5619C8.63562 12.1969 8.07668 11.9976 7.5 11.9976C6.92332 11.9976 6.36438 12.1969 5.91787 12.5619C5.47136 12.9268 5.16476 13.4349 5.05 14.0001H2.5C2.36739 14.0001 2.24021 14.0527 2.14645 14.1465C2.05268 14.2403 2 14.3675 2 14.5001C2 14.6327 2.05268 14.7599 2.14645 14.8536C2.24021 14.9474 2.36739 15.0001 2.5 15.0001H5.05C5.16476 15.5652 5.47136 16.0733 5.91787 16.4383C6.36438 16.8032 6.92332 17.0026 7.5 17.0026C8.07668 17.0026 8.63562 16.8032 9.08213 16.4383C9.52864 16.0733 9.83524 15.5652 9.95 15.0001H17.5C17.6326 15.0001 17.7598 14.9474 17.8536 14.8536C17.9473 14.7599 18 14.6327 18 14.5001C18 14.3675 17.9473 14.2403 17.8536 14.1465C17.7598 14.0527 17.6326 14.0001 17.5 14.0001H9.95ZM7.5 16.0001C7.10218 16.0001 6.72064 15.842 6.43934 15.5607C6.15804 15.2794 6 14.8979 6 14.5001C6 14.1022 6.15804 13.7207 6.43934 13.4394C6.72064 13.1581 7.10218 13.0001 7.5 13.0001C7.89782 13.0001 8.27936 13.1581 8.56066 13.4394C8.84196 13.7207 9 14.1022 9 14.5001C9 14.8979 8.84196 15.2794 8.56066 15.5607C8.27936 15.842 7.89782 16.0001 7.5 16.0001Z" fill="black"/>
</svg>
