<svg width="24" height="24" viewBox="0 0 24 24" fill="none" xmlns="http://www.w3.org/2000/svg">
<g clip-path="url(#clip0_879_3)">
<path d="M19.2266 4.30078L19.6992 4.77344C20.0664 5.14063 20.0664 5.73438 19.6992 6.09766L18.5625 7.23828L16.7617 5.4375L17.8984 4.30078C18.2656 3.93359 18.8594 3.93359 19.2227 4.30078H19.2266ZM10.1953 12.0078L15.4375 6.76172L17.2383 8.5625L11.9922 13.8047C11.8789 13.918 11.7383 14 11.5859 14.043L9.30078 14.6953L9.95313 12.4102C9.99609 12.2578 10.0781 12.1172 10.1914 12.0039L10.1953 12.0078ZM16.5742 2.97656L8.86719 10.6797C8.52734 11.0195 8.28125 11.4375 8.15234 11.8945L7.03516 15.8008C6.94141 16.1289 7.03125 16.4805 7.27344 16.7227C7.51563 16.9648 7.86719 17.0547 8.19531 16.9609L12.1016 15.8438C12.5625 15.7109 12.9805 15.4648 13.3164 15.1289L21.0234 7.42578C22.1211 6.32813 22.1211 4.54688 21.0234 3.44922L20.5508 2.97656C19.4531 1.87891 17.6719 1.87891 16.5742 2.97656ZM5.4375 4.5C3.53906 4.5 2 6.03906 2 7.9375V18.5625C2 20.4609 3.53906 22 5.4375 22H16.0625C17.9609 22 19.5 20.4609 19.5 18.5625V14.1875C19.5 13.668 19.082 13.25 18.5625 13.25C18.043 13.25 17.625 13.668 17.625 14.1875V18.5625C17.625 19.4258 16.9258 20.125 16.0625 20.125H5.4375C4.57422 20.125 3.875 19.4258 3.875 18.5625V7.9375C3.875 7.07422 4.57422 6.375 5.4375 6.375H9.8125C10.332 6.375 10.75 5.95703 10.75 5.4375C10.75 4.91797 10.332 4.5 9.8125 4.5H5.4375Z" fill="black"/>
</g>
<defs>
<clipPath id="clip0_879_3">
<rect width="20" height="20" fill="white" transform="translate(2 2)"/>
</clipPath>
</defs>
</svg>
