<svg width="24" height="24" viewBox="0 0 24 24" fill="none" xmlns="http://www.w3.org/2000/svg">
<path d="M4 22H20" stroke="black" stroke-width="1.5" stroke-linecap="round"/>
<path d="M18.3372 8.11103L19.0792 7.37103C19.3714 7.0789 19.6032 6.73209 19.7613 6.35038C19.9195 5.96867 20.0009 5.55956 20.001 5.14638C20.001 4.73321 19.9197 4.32407 19.7616 3.94233C19.6035 3.56059 19.3718 3.21372 19.0797 2.92153C18.7876 2.62934 18.4407 2.39754 18.059 2.23939C17.6773 2.08123 17.2682 1.9998 16.855 1.99976C16.4419 1.99971 16.0327 2.08104 15.651 2.23912C15.2692 2.39719 14.9224 2.6289 14.6302 2.92103L13.8882 3.66303C13.8882 3.66303 13.9812 5.23903 15.3712 6.62903C16.7612 8.01903 18.3372 8.11203 18.3372 8.11203L11.5202 14.929C11.0582 15.391 10.8282 15.621 10.5732 15.82C10.2725 16.0547 9.94952 16.2544 9.60418 16.419C9.31318 16.558 9.00318 16.661 8.38418 16.867L5.75818 17.743M13.8882 3.66203L7.07118 10.48C6.60918 10.942 6.37818 11.172 6.18018 11.427C5.94563 11.7271 5.74476 12.0521 5.58118 12.396C5.44218 12.687 5.33918 12.997 5.13218 13.616L4.25718 16.242M4.25718 16.242L4.04418 16.883C3.99425 17.0325 3.98696 17.1929 4.02311 17.3463C4.05926 17.4997 4.13744 17.6399 4.24886 17.7513C4.36029 17.8628 4.50056 17.9409 4.65393 17.9771C4.80731 18.0133 4.96772 18.006 5.11718 17.956L5.75818 17.743M4.25718 16.242L5.75818 17.743" stroke="black" stroke-width="1.5"/>
</svg>
