<svg width="24" height="24" viewBox="0 0 24 24" fill="none" xmlns="http://www.w3.org/2000/svg">
<path d="M20.25 2.25H3.75C3.35218 2.25 2.97064 2.40804 2.68934 2.68934C2.40804 2.97064 2.25 3.35218 2.25 3.75V20.25C2.25 20.6478 2.40804 21.0294 2.68934 21.3107C2.97064 21.592 3.35218 21.75 3.75 21.75H20.25C20.6476 21.7494 21.0288 21.5912 21.31 21.31C21.5912 21.0288 21.7494 20.6476 21.75 20.25V3.75C21.75 3.35218 21.592 2.97064 21.3107 2.68934C21.0294 2.40804 20.6478 2.25 20.25 2.25ZM20.25 6.75H12.75V3.75H20.25V6.75ZM11.25 20.25H8.25V17.25H11.25V20.25ZM11.25 15.75H8.25V12.75H11.25V15.75ZM6.75 15.75H3.75V12.75H6.75V15.75ZM8.25 11.25V8.25H15.75V11.25H8.25ZM8.25 6.75V3.75H11.25V6.75H8.25ZM17.25 8.25H20.25V11.25H17.25V8.25ZM6.75 3.75V11.25H3.75V3.75H6.75ZM3.75 17.25H6.75V20.25H3.75V17.25ZM12.75 20.25V12.75H20.2507L20.2515 20.25H12.75Z" fill="black"/>
</svg>
