<svg width="24" height="13" viewBox="0 0 24 13" fill="none" xmlns="http://www.w3.org/2000/svg">
<g clip-path="url(#clip0_888_2)">
<path fill-rule="evenodd" clip-rule="evenodd" d="M21.8182 1.625H2.18182C2.03715 1.625 1.89842 1.68207 1.79612 1.78365C1.69383 1.88523 1.63636 2.02301 1.63636 2.16667V10.8333C1.63636 10.977 1.69383 11.1148 1.79612 11.2164C1.89842 11.3179 2.03715 11.375 2.18182 11.375H21.8182C21.9628 11.375 22.1016 11.3179 22.2039 11.2164C22.3062 11.1148 22.3636 10.977 22.3636 10.8333V2.16667C22.3636 2.02301 22.3062 1.88523 22.2039 1.78365C22.1016 1.68207 21.9628 1.625 21.8182 1.625ZM2.18182 0C1.60316 0 1.04821 0.228273 0.63904 0.634602C0.22987 1.04093 0 1.59203 0 2.16667L0 10.8333C0 11.408 0.22987 11.9591 0.63904 12.3654C1.04821 12.7717 1.60316 13 2.18182 13H21.8182C22.3968 13 22.9518 12.7717 23.361 12.3654C23.7701 11.9591 24 11.408 24 10.8333V2.16667C24 1.59203 23.7701 1.04093 23.361 0.634602C22.9518 0.228273 22.3968 0 21.8182 0L2.18182 0ZM4.36364 6.22917C4.36364 5.78067 4.57091 5.41667 4.82618 5.41667H10.992C11.2473 5.41667 11.4545 5.78067 11.4545 6.22917C11.4545 6.67767 11.2473 7.04167 10.992 7.04167H4.82618C4.57091 7.04167 4.36364 6.67767 4.36364 6.22917ZM17.2947 5.57538L16.9091 5.19242L16.1378 5.95833L16.5235 6.34129L17.6144 7.42463L18 7.80758L18.3856 7.42463L19.4765 6.34129L19.8622 5.95833L19.0909 5.19242L18.7053 5.57538L18 6.27575L17.2947 5.57538Z" fill="black"/>
</g>
<defs>
<clipPath id="clip0_888_2">
<rect width="24" height="13" fill="white"/>
</clipPath>
</defs>
</svg>
