<svg width="48" height="48" viewBox="0 0 48 48" fill="none" xmlns="http://www.w3.org/2000/svg">
<path d="M6 24H10C11.0609 24 12.0783 23.5786 12.8284 22.8284C13.5786 22.0783 14 21.0609 14 20C14 18.9391 13.5786 17.9217 12.8284 17.1716C12.0783 16.4214 11.0609 16 10 16H6V32M34 24H40M42 16H34V32M20 16V32H24C25.0609 32 26.0783 31.5786 26.8284 30.8284C27.5786 30.0783 28 29.0609 28 28V20C28 18.9391 27.5786 17.9217 26.8284 17.1716C26.0783 16.4214 25.0609 16 24 16H20Z" stroke="black" stroke-width="2" stroke-linecap="round" stroke-linejoin="round"/>
</svg>
