<svg width="293" height="293" viewBox="0 0 293 293" fill="none" xmlns="http://www.w3.org/2000/svg">
<path d="M207.542 24.417C216.884 24.4165 225.873 27.9858 232.67 34.3947C239.466 40.8035 243.557 49.5675 244.106 58.8933L244.167 61.042C253.88 61.042 263.196 64.9007 270.064 71.7692C276.933 78.6377 280.792 87.9534 280.792 97.667C280.792 116.619 273.447 134.834 260.3 148.484C247.153 162.134 229.227 170.157 210.288 170.868L207.542 170.917H158.708L160.539 170.978C166.353 171.415 171.818 173.917 175.947 178.033C180.076 182.148 182.596 187.605 183.052 193.417L183.125 195.334V244.167C183.127 250.327 180.8 256.26 176.612 260.777C172.423 265.294 166.682 268.061 160.539 268.523L158.708 268.584H134.292C128.132 268.586 122.198 266.259 117.682 262.071C113.165 257.882 110.398 252.141 109.936 245.998L109.875 244.167V195.334C109.873 189.174 112.199 183.24 116.388 178.724C120.577 174.207 126.318 171.44 132.46 170.978L134.292 170.917V158.709C134.292 155.718 135.39 152.832 137.377 150.598C139.364 148.363 142.102 146.936 145.072 146.586L146.5 146.5H207.542C220.493 146.5 232.914 141.355 242.072 132.197C251.23 123.039 256.375 110.618 256.375 97.667C256.375 94.6768 255.277 91.7907 253.29 89.5561C251.303 87.3216 248.565 85.894 245.595 85.5441L244.167 85.4587L244.106 87.6073C243.58 96.5633 239.785 105.015 233.441 111.358C227.098 117.702 218.646 121.497 209.69 122.023L207.542 122.084H85.4583C76.1163 122.084 67.1273 118.515 60.3303 112.106C53.5334 105.697 49.4424 96.9332 48.8943 87.6073L48.8333 85.4587V61.042C48.8327 51.7 52.4021 42.711 58.8109 35.9141C65.2198 29.1171 73.9837 25.0261 83.3096 24.478L85.4583 24.417H207.542Z" fill="black"/>
</svg>
