<svg width="24" height="24" viewBox="0 0 24 24" fill="none" xmlns="http://www.w3.org/2000/svg">
<path d="M21 6.75H16.5V8.25H21V11.25H18V12.75H21V15.75H16.5V17.25H21C21.3976 17.2494 21.7788 17.0912 22.06 16.81C22.3412 16.5288 22.4994 16.1476 22.5 15.75V8.25C22.4996 7.8523 22.3414 7.471 22.0602 7.18978C21.779 6.90856 21.3977 6.7504 21 6.75ZM15 17.25H9V12.75C9.0004 12.3523 9.15856 11.971 9.43978 11.6898C9.721 11.4086 10.1023 11.2504 10.5 11.25H13.5V8.25H9V6.75H13.5C13.8977 6.7504 14.279 6.90856 14.5602 7.18978C14.8414 7.471 14.9996 7.8523 15 8.25V11.25C14.9996 11.6477 14.8414 12.029 14.5602 12.3102C14.279 12.5914 13.8977 12.7496 13.5 12.75H10.5V15.75H15V17.25ZM1.875 16.875V16.125H4.125V7.875H1.875V7.125H4.875V16.125H7.125V16.875H1.875Z" fill="black"/>
<path d="M4.5 7.5V16.5V7.5ZM5.25 6.75H1.5V8.25H3.75V15.75H1.5V17.25H7.5V15.75H5.25V6.75Z" fill="black"/>
</svg>
