<svg width="24" height="24" viewBox="0 0 24 24" fill="none" xmlns="http://www.w3.org/2000/svg">
<path d="M14.41 5.96C14.279 5.91 14.15 5.89 14 5.89C13.62 5.9 13.26 6.15 13.1 6.54L11.81 9.77L11.71 10C11 10.13 10.41 10.6 10.14 11.26C9.72999 12.29 10.23 13.45 11.26 13.86C12.29 14.27 13.45 13.77 13.86 12.741C14.12 12.08 14 11.32 13.57 10.76L13.67 10.5L14.96 7.29L14.971 7.26C15.17 6.75 14.92 6.17 14.41 5.96Z" fill="black"/>
<path d="M7.00002 9C6.73502 9 6.48002 9.105 6.29302 9.293C6.10602 9.481 6.00002 9.735 6.00002 10C6.00002 10.265 6.10502 10.52 6.29302 10.707C6.48102 10.894 6.73502 11 7.00002 11C7.26502 11 7.52001 10.895 7.70701 10.707C7.89401 10.519 8.00002 10.265 8.00002 10C8.00002 9.735 7.89501 9.48 7.70701 9.293C7.51901 9.106 7.26502 9 7.00002 9Z" fill="black"/>
<path d="M10.707 7.707C10.895 7.52 11 7.265 11 7C11 6.735 10.895 6.48 10.707 6.293C10.519 6.106 10.265 6 9.99997 6C9.73497 6 9.47997 6.105 9.29297 6.293C9.10597 6.481 8.99997 6.735 8.99997 7C8.99997 7.265 9.10497 7.52 9.29297 7.707C9.48097 7.894 9.73497 8 9.99997 8C10.265 8 10.52 7.895 10.707 7.707Z" fill="black"/>
<path d="M16.293 9.293C16.105 9.48 16 9.735 16 10C16 10.265 16.105 10.52 16.293 10.707C16.481 10.894 16.734 11 17 11C17.266 11 17.52 10.895 17.707 10.707C17.894 10.519 18 10.265 18 10C18 9.735 17.895 9.48 17.707 9.293C17.519 9.106 17.266 9 17 9C16.734 9 16.48 9.105 16.293 9.293Z" fill="black"/>
<path d="M21.238 8.173C20.736 6.96 20 5.857 19.071 4.929C18.143 4 17.04 3.264 15.826 2.761C14.613 2.259 13.313 2 12 2C10.687 2 9.386 2.259 8.173 2.761C6.96 3.264 5.857 4 4.929 4.929C3.054 6.804 2 9.348 2 12C2 14.652 3.054 17.195 4.929 19.071C5.857 20 6.96 20.736 8.173 21.238C9.386 21.741 10.687 22 12 22C14.652 22 17.195 20.946 19.071 19.071C20.946 17.195 22 14.652 22 12C22 10.687 21.741 9.386 21.238 8.173ZM13.833 19.405H12.561V20.529H11.438V19.405H10.168V18.281H11.438V17.156H12.561V18.281H13.833V19.405ZM17.3 18C15.9 16.7 14 16 12 16C10 16 8.2 16.7 6.7 18C5 16.5 4 14.4 4 12C4 9.878 4.843 7.843 6.343 6.343C7.843 4.843 9.878 4 12 4C14.121 4 16.156 4.843 17.656 6.343C19.157 7.843 20 9.878 20 12C20 14.4 19 16.5 17.3 18Z" fill="black"/>
</svg>
