<svg width="24" height="24" viewBox="0 0 24 24" fill="none" xmlns="http://www.w3.org/2000/svg">
<path d="M2.66667 22C2.49333 22 2.32 21.9333 2.2 21.8C1.93333 21.5333 1.93333 21.12 2.2 20.8533L20.8667 2.2C21.1333 1.93333 21.5467 1.93333 21.8133 2.2C22.08 2.46667 22.08 2.88 21.8133 3.14667L3.13333 21.8C3 21.9333 2.82667 22 2.66667 22Z" fill="black"/>
<path d="M4.66683 16.36V5.22668C4.66683 4.92001 4.92016 4.66668 5.22683 4.66668H16.3602L17.6935 3.33334H5.22683C4.18683 3.33334 3.3335 4.18668 3.3335 5.22668V17.6933L4.66683 16.36Z" fill="black"/>
<path d="M19.3336 7.24V18.7733C19.3336 19.08 19.0803 19.3333 18.7736 19.3333H7.24032L5.90698 20.6667H18.7736C19.8136 20.6667 20.667 19.8133 20.667 18.7733V5.90666L19.3336 7.24Z" fill="black"/>
<path d="M7.05373 15.16L8.37373 13.84H8.30706L9.65373 11.76L10.0937 12.12L13.4004 8.81332C13.0937 8.77332 12.7737 8.81332 12.5071 8.99999C12.3737 9.09332 12.2537 9.19999 12.1737 9.33332L10.9471 11.0933L10.4937 10.72C9.94706 10.28 9.13373 10.36 8.62706 11.0133L6.53373 14.1467C6.4004 14.3467 6.38706 14.6133 6.50706 14.8267C6.61373 15.0267 6.82706 15.16 7.05373 15.1733V15.16Z" fill="black"/>
<path d="M15.1069 10.5733L14.1469 11.5333L15.6669 13.8267H11.8536L10.5203 15.16H16.9203C17.1603 15.16 17.3869 15.0267 17.5069 14.8133C17.6269 14.6 17.6136 14.3333 17.4803 14.1333L15.1203 10.5733H15.1069Z" fill="black"/>
</svg>
