<svg width="24" height="24" viewBox="0 0 24 24" fill="none" xmlns="http://www.w3.org/2000/svg">
<path d="M20.437 2C19.575 2 18.8738 2.70124 18.8738 3.56318C18.8738 4.42512 19.575 5.12636 20.437 5.12636C21.2989 5.12636 22.0001 4.42512 22.0001 3.56318C22.0001 2.70124 21.2989 2 20.437 2Z" fill="black"/>
<path d="M16.887 17.5003H6.10549C5.84253 17.5003 5.59417 17.3542 5.46269 17.1205C5.3312 16.8867 5.34581 16.5946 5.49191 16.3754L7.78554 12.9423C8.34069 12.241 9.23185 12.1388 9.83083 12.6209L10.3275 13.0299L11.6716 11.1015C11.7738 10.9554 11.8907 10.8385 12.0368 10.7363C12.6796 10.298 13.5562 10.4733 13.9944 11.1307L17.4714 16.3754C17.6175 16.5946 17.6321 16.8867 17.5006 17.1205C17.3691 17.3542 17.1208 17.5003 16.8578 17.5003H16.887ZM7.44953 16.0394H15.5138L12.7819 11.9196L11.0872 14.4908C10.9703 14.6515 10.795 14.7684 10.5905 14.7976C10.4006 14.8268 10.1961 14.7684 10.0354 14.6515L8.92506 13.7604L7.44953 16.0394Z" fill="black"/>
<path d="M19.8086 6.63108C19.7209 6.63108 19.6186 6.61647 19.531 6.60186V19.9838C19.531 20.3199 19.2534 20.5974 18.9174 20.5974H4.0745C3.73849 20.5974 3.46092 20.3199 3.46092 19.9838V5.15555C3.46092 4.81954 3.73849 4.54197 4.0745 4.54197H17.3688C17.3542 4.4251 17.325 4.30822 17.325 4.17674C17.325 3.78229 17.4273 3.41707 17.588 3.08105H4.0745C2.93499 3.08105 2 4.01604 2 5.15555V19.9838C2 21.1234 2.93499 22.0583 4.0745 22.0583H18.9028C20.0423 22.0583 20.9773 21.1234 20.9773 19.9838V6.32429C20.6267 6.51421 20.2176 6.64569 19.7939 6.64569L19.8086 6.63108Z" fill="black"/>
</svg>
