<svg width="24" height="24" viewBox="0 0 24 24" fill="none" xmlns="http://www.w3.org/2000/svg">
<path d="M8.49631 11.2446H6.63379V17.3922H8.49631V11.2446Z" fill="black"/>
<path d="M12.3906 7.9754H10.5281V17.3792H12.3906V7.9754Z" fill="black"/>
<path d="M16.2983 10.1114H14.4358V17.3791H16.2983V10.1114Z" fill="black"/>
<path d="M18.9161 7.41534C18.8119 7.41534 18.7207 7.40232 18.6295 7.38929V19.7496H4.30246V5.42258H16.3632C16.3111 5.21418 16.2721 4.99277 16.2721 4.77135C16.2721 4.54993 16.3111 4.32851 16.3632 4.12012H3V21.0521H19.932V7.20695C19.6194 7.33719 19.2808 7.41534 18.9161 7.41534Z" fill="black"/>
<path d="M19.4629 6.07381C20.3117 6.07381 20.9998 5.38571 20.9998 4.5369C20.9998 3.68809 20.3117 3 19.4629 3C18.6141 3 17.926 3.68809 17.926 4.5369C17.926 5.38571 18.6141 6.07381 19.4629 6.07381Z" fill="black"/>
</svg>
