<svg width="24" height="24" viewBox="0 0 24 24" fill="none" xmlns="http://www.w3.org/2000/svg">
<path d="M9.3129 10.0329H7.47437V16.1014H9.3129V10.0329Z" fill="black"/>
<path d="M13.1569 6.80569H11.3184V16.0885H13.1569V6.80569Z" fill="black"/>
<path d="M17.0141 8.91431H15.1755V16.0886H17.0141V8.91431Z" fill="black"/>
<path d="M20.9998 21H19.0713V19.7143H19.7141V19.0714H20.9998V21Z" fill="black"/>
<path d="M16.2424 21H13.4139V19.7143H16.2424V21ZM10.5854 21H7.75684V19.7143H10.5854V21Z" fill="black"/>
<path d="M4.92854 21H3V19.0714H4.28569V19.7143H4.92854V21Z" fill="black"/>
<path d="M4.28569 16.2429H3V13.4143H4.28569V16.2429ZM4.28569 10.5857H3V7.75717H4.28569V10.5857Z" fill="black"/>
<path d="M4.28569 4.92857H3V3H4.92854V4.28571H4.28569V4.92857Z" fill="black"/>
<path d="M16.2424 4.28571H13.4139V3H16.2424V4.28571ZM10.5854 4.28571H7.75684V3H10.5854V4.28571Z" fill="black"/>
<path d="M20.9998 4.92857H19.7141V4.28571H19.0713V3H20.9998V4.92857Z" fill="black"/>
<path d="M20.9998 16.2429H19.7141V13.4143H20.9998V16.2429ZM20.9998 10.5857H19.7141V7.75717H20.9998V10.5857Z" fill="black"/>
</svg>
