<svg width="24" height="24" viewBox="0 0 24 24" fill="none" xmlns="http://www.w3.org/2000/svg">
<path d="M17.9274 17.1429H15.2789V15.8571H17.9017L17.9274 17.1429ZM12.656 17.1429H10.0331V15.8571H12.656V17.1429ZM7.29456 15.6257C7.01171 15.15 6.85742 14.5971 6.85742 14.0443V12.7457H8.14314V14.0443C8.14314 14.3657 8.23314 14.6871 8.40028 14.97L7.29456 15.6257ZM20.6274 15.51L19.496 14.8929C19.6374 14.6357 19.7146 14.3271 19.7146 14.0314V12.63H21.0003V14.0314C21.0003 14.5457 20.8717 15.06 20.6274 15.51ZM8.14314 10.11H6.85742V7.48714H8.14314V10.11ZM21.0003 10.02H19.7146V7.39714H21.0003V10.02ZM8.36171 5.23714L7.23028 4.62C7.78314 3.63 8.82456 3 9.94314 3V4.28571C9.28742 4.28571 8.68314 4.64571 8.36171 5.23714ZM19.4574 5.17286C19.1231 4.62 18.5446 4.28571 17.8889 4.28571L17.8117 3H17.8889C18.9946 3 19.9846 3.56571 20.5503 4.50429L19.4446 5.17286H19.4574ZM15.1888 4.28571H12.566V3H15.1888V4.28571Z" fill="black"/>
<path d="M15.8571 15.8571V17.6828C15.8571 18.8014 14.9443 19.7143 13.8257 19.7143H6.31714C5.19857 19.7143 4.28571 18.8014 4.28571 17.6828V10.1871C4.28571 9.06855 5.19857 8.15569 6.31714 8.15569H8.14286V6.86998H6.31714C4.49143 6.86998 3 8.36141 3 10.1871V17.6828C3 19.5086 4.49143 21 6.31714 21H13.8129C15.6386 21 17.13 19.5086 17.13 17.6828V15.8571H15.8443H15.8571Z" fill="black"/>
</svg>
