<svg width="24" height="24" viewBox="0 0 24 24" fill="none" xmlns="http://www.w3.org/2000/svg">
<path d="M7.28398 3.61331H3.31738V7.47241H7.28398V3.61331Z" fill="black"/>
<path d="M5.30068 13.9171C6.39603 13.9171 7.28398 13.0532 7.28398 11.9876C7.28398 10.9219 6.39603 10.058 5.30068 10.058C4.20534 10.058 3.31738 10.9219 3.31738 11.9876C3.31738 13.0532 4.20534 13.9171 5.30068 13.9171Z" fill="black"/>
<path d="M5.30064 16.5027L3 20.3618H7.58804L5.30064 16.5027Z" fill="black"/>
<path d="M20.9999 3.81546L19.2024 3L10.9659 20.1845L12.7634 21L20.9999 3.81546Z" fill="black"/>
<path d="M12.4536 19.0755H20.4132V17.7891H13.075L12.4536 19.0755Z" fill="black"/>
<path d="M15.5608 12.6308H20.4133V11.3444H16.1822L15.5608 12.6308Z" fill="black"/>
<path d="M18.6814 6.18605H20.4135V4.89969H19.3028L18.6814 6.18605Z" fill="black"/>
<path d="M13.5116 11.3444H10.9465V12.6308H12.8902L13.5116 11.3444Z" fill="black"/>
<path d="M16.6055 4.89969H10.9465V6.18605H15.9973L16.6055 4.89969Z" fill="black"/>
</svg>
