<svg width="16" height="15" viewBox="0 0 16 15" fill="none" xmlns="http://www.w3.org/2000/svg">
<path d="M13.2356 10.5449C13.2356 10.3801 13.3121 10.1503 13.5134 9.84708C13.6837 9.5904 13.9322 9.29788 14.2634 8.97013C14.5946 9.29788 14.8431 9.5904 15.0135 9.84708C15.2147 10.1503 15.2912 10.3801 15.2912 10.5449C15.2912 11.109 14.8276 11.5727 14.2634 11.5727C13.6993 11.5727 13.2356 11.109 13.2356 10.5449Z" fill="black" stroke="white" stroke-width="0.5"/>
<path d="M7.3643 2.25302L7.71785 1.89946L7.3643 1.54591L6.45486 0.63647C6.43338 0.614991 6.42863 0.595338 6.42863 0.581351C6.42863 0.567363 6.43338 0.547711 6.45486 0.526232C6.47634 0.504753 6.49599 0.5 6.50998 0.5C6.52396 0.5 6.54362 0.504753 6.5651 0.526232L7.87745 1.83859L8.2113 2.17243L13.1499 7.11104C13.1714 7.13251 13.1761 7.15217 13.1761 7.16615C13.1761 7.18014 13.1714 7.19979 13.1499 7.22127L5.89741 14.4738L5.88811 14.4831L5.88222 14.4896C5.88104 14.4903 5.87916 14.4914 5.87657 14.4926C5.87564 14.493 5.87462 14.4935 5.8735 14.4939C5.86829 14.496 5.86259 14.4977 5.85712 14.4988C5.85449 14.4993 5.85227 14.4997 5.85058 14.4998C5.84888 14.5 5.84801 14.5 5.84804 14.5C5.84812 14.5 5.84635 14.5 5.84298 14.4993C5.83963 14.4986 5.83528 14.4974 5.83026 14.4953C5.82015 14.4911 5.80906 14.4841 5.79868 14.4738L0.976868 9.65196H1.39294H10.3147H10.5218L10.6682 9.50551L12.6483 7.52546L13.0018 7.17191L12.6483 6.81836L8.18164 2.35174L7.82777 1.99787L7.47422 2.35206L1.03907 8.79872L0.581759 9.25685L0.526232 9.20132C0.504753 9.17984 0.5 9.16019 0.5 9.1462C0.5 9.13221 0.504753 9.11256 0.526232 9.09108L7.3643 2.25302Z" fill="black" stroke="white"/>
</svg>
