<svg width="24" height="24" viewBox="0 0 24 24" fill="none" xmlns="http://www.w3.org/2000/svg">
<path d="M20.3559 13.0963C19.2596 14.1333 18.7114 14.963 18.7114 15.5704C18.7114 16.4741 19.4522 17.2148 20.3559 17.2148C21.2596 17.2148 22.0003 16.4741 22.0003 15.5704C22.0003 14.963 21.4522 14.1333 20.3559 13.0963Z" fill="black" />
<path d="M19.3926 10.7111L13.0222 4.34074L12.5926 3.91111L10.9037 2.22222C10.6074 1.92593 10.1482 1.92593 9.85186 2.22222C9.55557 2.51852 9.55557 2.97778 9.85186 3.27408L11.0222 4.44445L2.22222 13.2445C1.92593 13.5408 1.92593 14 2.22222 14.2963L9.00742 21.0815C9.15556 21.2297 9.34816 21.3037 9.52594 21.3037C9.70371 21.3037 9.91112 21.2297 10.0445 21.0815L19.3778 11.7482C19.6741 11.4519 19.6741 10.9926 19.3778 10.6963L19.3926 10.7111ZM15.2741 13.7778H3.79259L12.0741 5.48149L17.8222 11.2296L15.2741 13.7778Z" fill="black"/>
</svg>
