<svg width="24" height="24" viewBox="0 0 24 24" fill="none" xmlns="http://www.w3.org/2000/svg">
<path d="M17.6847 4.28571H16.901H15.2051V5.57142H16.3999L17.6847 4.28571Z" fill="black"/>
<path d="M5.80055 16.1786L7.08534 14.8928V12.1286H9.84766L11.1325 10.8428H7.08534V5.57142H8.78127V4.28571H7.08534H5.80055H4.15601V5.57142H5.80055V16.1786Z" fill="black"/>
<path d="M6.71313 19.7143H7.08573H8.78166V18.4286H7.99793L6.71313 19.7143Z" fill="black"/>
<path d="M18.1862 8.23285L16.9014 9.51856V10.8428H15.5909L14.3062 12.1286H16.9014V18.4286H15.2055V19.7143H16.9014H18.1862H19.8308V18.4286H18.1862V8.23285Z" fill="black"/>
<path d="M3.6424 21C3.47537 21 3.30835 20.9357 3.19272 20.8071C2.93576 20.55 2.93576 20.1514 3.19272 19.8943L19.8951 3.19286C20.152 2.93571 20.5503 2.93571 20.8073 3.19286C21.0642 3.45 21.0642 3.84857 20.8073 4.10571L4.09208 20.8071C3.9636 20.9357 3.79657 21 3.6424 21Z" fill="black"/>
</svg>
