<svg width="24" height="24" viewBox="0 0 24 24" fill="none" xmlns="http://www.w3.org/2000/svg">
<path d="M19.6154 4.78571H15.4615V4.08929C15.4615 2.93321 14.5338 2 13.3846 2H10.6154C9.46615 2 8.53846 2.93321 8.53846 4.08929V4.78571H4.38462C3.62308 4.78571 3 5.4125 3 6.17857V8.96429C3 9.35429 3.30462 9.66071 3.69231 9.66071H5.07692V19.4107C5.07692 20.5668 6.00462 21.5 7.15385 21.5H16.8462C17.9954 21.5 18.9231 20.5668 18.9231 19.4107V9.66071H20.3077C20.6954 9.66071 21 9.35429 21 8.96429V6.17857C21 5.4125 20.3769 4.78571 19.6154 4.78571ZM9.92308 4.08929C9.92308 3.69929 10.2277 3.39286 10.6154 3.39286H13.3846C13.7723 3.39286 14.0769 3.69929 14.0769 4.08929V4.78571H9.92308V4.08929ZM17.5385 19.4107C17.5385 19.8007 17.2338 20.1071 16.8462 20.1071H7.15385C6.76615 20.1071 6.46154 19.8007 6.46154 19.4107V9.66071H17.5385V19.4107ZM19.6154 8.26786H4.38462V6.17857H19.6154V8.26786Z" fill="black"/>
<path d="M11.9997 18.7143C12.3874 18.7143 12.692 18.4078 12.692 18.0178V11.75C12.692 11.36 12.3874 11.0536 11.9997 11.0536C11.612 11.0536 11.3074 11.36 11.3074 11.75V18.0178C11.3074 18.4078 11.612 18.7143 11.9997 18.7143Z" fill="black"/>
<path d="M9.23064 18.7143C9.61833 18.7143 9.92295 18.4078 9.92295 18.0178V11.75C9.92295 11.36 9.61833 11.0536 9.23064 11.0536C8.84295 11.0536 8.53833 11.36 8.53833 11.75V18.0178C8.53833 18.4078 8.84295 18.7143 9.23064 18.7143Z" fill="black"/>
<path d="M14.7695 18.7143C15.1571 18.7143 15.4618 18.4078 15.4618 18.0178V11.75C15.4618 11.36 15.1571 11.0536 14.7695 11.0536C14.3818 11.0536 14.0771 11.36 14.0771 11.75V18.0178C14.0771 18.4078 14.3818 18.7143 14.7695 18.7143Z" fill="black"/>
</svg>
