<svg width="18" height="24" viewBox="0 0 18 24" fill="none" xmlns="http://www.w3.org/2000/svg">
<path d="M8.71176 23.4294C8.63164 23.3878 8.56157 23.3295 8.50625 23.2585L7.91885 22.0837L7.85804 22.3268C6.89758 20.9407 6.05883 19.7454 5.32656 18.7018C3.74024 16.4412 2.65364 14.8927 1.91189 13.659C1.33976 12.7074 0.991692 11.9723 0.783348 11.2687C0.576141 10.5689 0.5 9.87601 0.5 9C0.5 4.30514 4.30514 0.5 9 0.5C13.6949 0.5 17.5 4.30514 17.5 9C17.5 9.87602 17.4239 10.5687 17.2167 11.2683C17.0083 11.9717 16.6603 12.7065 16.0882 13.6577C15.347 14.8898 14.2617 16.4361 12.6777 18.6929C11.7891 19.9588 10.7437 21.4482 9.51404 23.2312C9.45657 23.3138 9.38001 23.3814 9.29085 23.4282C9.20156 23.475 9.10228 23.4996 9.00146 23.4998C8.90064 23.5 8.80125 23.4759 8.71176 23.4294Z" fill="#2DD12A" stroke="black"/>
</svg>
