<svg width="483" height="697" viewBox="0 0 483 697" fill="none" xmlns="http://www.w3.org/2000/svg">
<g filter="url(#filter0_d_111_412)">
<rect x="191" y="169" width="82" height="25" rx="12.5" fill="white" fill-opacity="0.5"/>
<path d="M220.264 178.252V179.128C220.264 180.676 219.184 182.08 217.552 182.656L218.056 183.448C219.88 182.788 221.08 181.12 221.08 179.128V178.252H220.264ZM220.444 178.252V179.116C220.444 180.964 221.596 182.512 223.408 183.112L223.888 182.332C222.292 181.804 221.26 180.532 221.26 179.116V178.252H220.444ZM217.852 177.892V178.708H223.648V177.892H217.852ZM225.016 177.088V183.628H226.012V177.088H225.016ZM225.736 179.836V180.676H227.62V179.836H225.736ZM222.556 183.916C220.348 183.916 218.992 184.648 218.992 185.908C218.992 187.18 220.348 187.912 222.556 187.912C224.764 187.912 226.12 187.18 226.12 185.908C226.12 184.648 224.764 183.916 222.556 183.916ZM222.556 184.72C224.164 184.72 225.148 185.152 225.148 185.908C225.148 186.676 224.164 187.132 222.556 187.132C220.948 187.132 219.964 186.676 219.964 185.908C219.964 185.152 220.948 184.72 222.556 184.72ZM231.075 177.988C229.671 177.988 228.771 179.44 228.771 181.768C228.771 184.096 229.671 185.548 231.075 185.548C232.479 185.548 233.391 184.096 233.391 181.768C233.391 179.44 232.479 177.988 231.075 177.988ZM231.075 178.912C231.927 178.912 232.467 180.016 232.467 181.768C232.467 183.52 231.927 184.624 231.075 184.624C230.223 184.624 229.683 183.52 229.683 181.768C229.683 180.016 230.223 178.912 231.075 178.912ZM236.895 177.088V187.936H237.855V177.088H236.895ZM235.179 181.384V182.2H237.255V181.384H235.179ZM234.495 177.316V187.396H235.443V177.316H234.495ZM240.122 177.532V182.272H245.138V177.532H244.166V179.092H241.106V177.532H240.122ZM241.106 179.872H244.166V181.468H241.106V179.872ZM247.094 177.088V182.68H248.09V177.088H247.094ZM247.658 179.416V180.244H249.686V179.416H247.658ZM241.202 183.208V184H247.118V185.092H241.226V187.468H242.21V185.836H248.09V183.208H241.202ZM241.226 187.024V187.816H248.486V187.024H241.226ZM252.985 177.76V179.212C252.985 180.436 252.133 181.84 250.705 182.464L251.245 183.244C252.841 182.536 253.777 180.832 253.777 179.212V177.76H252.985ZM253.141 177.76V179.212C253.141 180.808 254.041 182.308 255.601 182.932L256.141 182.176C254.749 181.636 253.933 180.412 253.933 179.212V177.76H253.141ZM258.901 177.1V183.784H259.849V177.1H258.901ZM257.173 179.992V180.808H259.225V179.992H257.173ZM256.573 177.304V183.436H257.521V177.304H256.573ZM256.285 184.024C254.041 184.024 252.673 184.744 252.673 185.98C252.673 187.204 254.041 187.912 256.285 187.912C258.517 187.912 259.909 187.204 259.909 185.98C259.909 184.744 258.517 184.024 256.285 184.024ZM256.285 184.804C257.917 184.804 258.913 185.236 258.913 185.98C258.913 186.712 257.917 187.144 256.285 187.144C254.653 187.144 253.645 186.712 253.645 185.98C253.645 185.236 254.653 184.804 256.285 184.804Z" fill="black"/>
<path d="M171.712 142.429C171.632 142.388 171.562 142.329 171.506 142.258L170.919 141.084L170.858 141.327C169.898 139.941 169.059 138.745 168.327 137.702C166.74 135.441 165.654 133.893 164.912 132.659C164.34 131.707 163.992 130.972 163.783 130.269C163.576 129.569 163.5 128.876 163.5 128C163.5 123.305 167.305 119.5 172 119.5C176.695 119.5 180.5 123.305 180.5 128C180.5 128.876 180.424 129.569 180.217 130.268C180.008 130.972 179.66 131.706 179.088 132.658C178.347 133.89 177.262 135.436 175.678 137.693C174.789 138.959 173.744 140.448 172.514 142.231C172.457 142.314 172.38 142.381 172.291 142.428C172.202 142.475 172.102 142.5 172.001 142.5C171.901 142.5 171.801 142.476 171.712 142.429Z" fill="#80FF00" fill-opacity="0.74" stroke="black"/>
<path d="M185.712 137.429C185.632 137.388 185.562 137.329 185.506 137.258L184.919 136.084L184.858 136.327C183.898 134.941 183.059 133.745 182.327 132.702C180.74 130.441 179.654 128.893 178.912 127.659C178.34 126.707 177.992 125.972 177.783 125.269C177.576 124.569 177.5 123.876 177.5 123C177.5 118.305 181.305 114.5 186 114.5C190.695 114.5 194.5 118.305 194.5 123C194.5 123.876 194.424 124.569 194.217 125.268C194.008 125.972 193.66 126.706 193.088 127.658C192.347 128.89 191.262 130.436 189.678 132.693C188.789 133.959 187.744 135.448 186.514 137.231C186.457 137.314 186.38 137.381 186.291 137.428C186.202 137.475 186.102 137.5 186.001 137.5C185.901 137.5 185.801 137.476 185.712 137.429Z" fill="#80FF00" fill-opacity="0.74" stroke="black"/>
<path d="M162.712 158.429C162.632 158.388 162.562 158.329 162.506 158.258L161.919 157.084L161.858 157.327C160.898 155.941 160.059 154.745 159.327 153.702C157.74 151.441 156.654 149.893 155.912 148.659C155.34 147.707 154.992 146.972 154.783 146.269C154.576 145.569 154.5 144.876 154.5 144C154.5 139.305 158.305 135.5 163 135.5C167.695 135.5 171.5 139.305 171.5 144C171.5 144.876 171.424 145.569 171.217 146.268C171.008 146.972 170.66 147.706 170.088 148.658C169.347 149.89 168.262 151.436 166.678 153.693C165.789 154.959 164.744 156.448 163.514 158.231C163.457 158.314 163.38 158.381 163.291 158.428C163.202 158.475 163.102 158.5 163.001 158.5C162.901 158.5 162.801 158.476 162.712 158.429Z" fill="#80FF00" fill-opacity="0.74" stroke="black"/>
<path d="M181.712 158.429C181.632 158.388 181.562 158.329 181.506 158.258L180.919 157.084L180.858 157.327C179.898 155.941 179.059 154.745 178.327 153.702C176.74 151.441 175.654 149.893 174.912 148.659C174.34 147.707 173.992 146.972 173.783 146.269C173.576 145.569 173.5 144.876 173.5 144C173.5 139.305 177.305 135.5 182 135.5C186.695 135.5 190.5 139.305 190.5 144C190.5 144.876 190.424 145.569 190.217 146.268C190.008 146.972 189.66 147.706 189.088 148.658C188.347 149.89 187.262 151.436 185.678 153.693C184.789 154.959 183.744 156.448 182.514 158.231C182.457 158.314 182.38 158.381 182.291 158.428C182.202 158.475 182.102 158.5 182.001 158.5C181.901 158.5 181.801 158.476 181.712 158.429Z" fill="#80FF00" fill-opacity="0.74" stroke="black"/>
<path d="M207.712 287.429C207.632 287.388 207.562 287.329 207.506 287.258L206.919 286.084L206.858 286.327C205.898 284.941 205.059 283.745 204.327 282.702C202.74 280.441 201.654 278.893 200.912 277.659C200.34 276.707 199.992 275.972 199.783 275.269C199.576 274.569 199.5 273.876 199.5 273C199.5 268.305 203.305 264.5 208 264.5C212.695 264.5 216.5 268.305 216.5 273C216.5 273.876 216.424 274.569 216.217 275.268C216.008 275.972 215.66 276.706 215.088 277.658C214.347 278.89 213.262 280.436 211.678 282.693C210.789 283.959 209.744 285.448 208.514 287.231C208.457 287.314 208.38 287.381 208.291 287.428C208.202 287.475 208.102 287.5 208.001 287.5C207.901 287.5 207.801 287.476 207.712 287.429Z" fill="#80FF00" fill-opacity="0.74" stroke="black"/>
<path d="M379.712 316.429C379.632 316.388 379.562 316.329 379.506 316.258L378.919 315.084L378.858 315.327C377.898 313.941 377.059 312.745 376.327 311.702C374.74 309.441 373.654 307.893 372.912 306.659C372.34 305.707 371.992 304.972 371.783 304.269C371.576 303.569 371.5 302.876 371.5 302C371.5 297.305 375.305 293.5 380 293.5C384.695 293.5 388.5 297.305 388.5 302C388.5 302.876 388.424 303.569 388.217 304.268C388.008 304.972 387.66 305.706 387.088 306.658C386.347 307.89 385.262 309.436 383.678 311.693C382.789 312.959 381.744 314.448 380.514 316.231C380.457 316.314 380.38 316.381 380.291 316.428C380.202 316.475 380.102 316.5 380.001 316.5C379.901 316.5 379.801 316.476 379.712 316.429Z" fill="#80FF00" fill-opacity="0.74" stroke="black"/>
<path d="M190.712 405.429C190.632 405.388 190.562 405.329 190.506 405.258L189.919 404.084L189.858 404.327C188.898 402.941 188.059 401.745 187.327 400.702C185.74 398.441 184.654 396.893 183.912 395.659C183.34 394.707 182.992 393.972 182.783 393.269C182.576 392.569 182.5 391.876 182.5 391C182.5 386.305 186.305 382.5 191 382.5C195.695 382.5 199.5 386.305 199.5 391C199.5 391.876 199.424 392.569 199.217 393.268C199.008 393.972 198.66 394.706 198.088 395.658C197.347 396.89 196.262 398.436 194.678 400.693C193.789 401.959 192.744 403.448 191.514 405.231C191.457 405.314 191.38 405.381 191.291 405.428C191.202 405.475 191.102 405.5 191.001 405.5C190.901 405.5 190.801 405.476 190.712 405.429Z" fill="#80FF00" fill-opacity="0.74" stroke="black"/>
<path d="M162.712 477.429C162.632 477.388 162.562 477.329 162.506 477.258L161.919 476.084L161.858 476.327C160.898 474.941 160.059 473.745 159.327 472.702C157.74 470.441 156.654 468.893 155.912 467.659C155.34 466.707 154.992 465.972 154.783 465.269C154.576 464.569 154.5 463.876 154.5 463C154.5 458.305 158.305 454.5 163 454.5C167.695 454.5 171.5 458.305 171.5 463C171.5 463.876 171.424 464.569 171.217 465.268C171.008 465.972 170.66 466.706 170.088 467.658C169.347 468.89 168.262 470.436 166.678 472.693C165.789 473.959 164.744 475.448 163.514 477.231C163.457 477.314 163.38 477.381 163.291 477.428C163.202 477.475 163.102 477.5 163.001 477.5C162.901 477.5 162.801 477.476 162.712 477.429Z" fill="#80FF00" fill-opacity="0.74" stroke="black"/>
<path d="M132.712 664.429C132.632 664.388 132.562 664.329 132.506 664.258L131.919 663.084L131.858 663.327C130.898 661.941 130.059 660.745 129.327 659.702C127.74 657.441 126.654 655.893 125.912 654.659C125.34 653.707 124.992 652.972 124.783 652.269C124.576 651.569 124.5 650.876 124.5 650C124.5 645.305 128.305 641.5 133 641.5C137.695 641.5 141.5 645.305 141.5 650C141.5 650.876 141.424 651.569 141.217 652.268C141.008 652.972 140.66 653.706 140.088 654.658C139.347 655.89 138.262 657.436 136.678 659.693C135.789 660.959 134.744 662.448 133.514 664.231C133.457 664.314 133.38 664.381 133.291 664.428C133.202 664.475 133.102 664.5 133.001 664.5C132.901 664.5 132.801 664.476 132.712 664.429Z" fill="#80FF00" fill-opacity="0.74" stroke="black"/>
<path d="M421.712 425.429C421.632 425.388 421.562 425.329 421.506 425.258L420.919 424.084L420.858 424.327C419.898 422.941 419.059 421.745 418.327 420.702C416.74 418.441 415.654 416.893 414.912 415.659C414.34 414.707 413.992 413.972 413.783 413.269C413.576 412.569 413.5 411.876 413.5 411C413.5 406.305 417.305 402.5 422 402.5C426.695 402.5 430.5 406.305 430.5 411C430.5 411.876 430.424 412.569 430.217 413.268C430.008 413.972 429.66 414.706 429.088 415.658C428.347 416.89 427.262 418.436 425.678 420.693C424.789 421.959 423.744 423.448 422.514 425.231C422.457 425.314 422.38 425.381 422.291 425.428C422.202 425.475 422.102 425.5 422.001 425.5C421.901 425.5 421.801 425.476 421.712 425.429Z" fill="#80FF00" fill-opacity="0.74" stroke="black"/>
<path d="M404.712 430.429C404.632 430.388 404.562 430.329 404.506 430.258L403.919 429.084L403.858 429.327C402.898 427.941 402.059 426.745 401.327 425.702C399.74 423.441 398.654 421.893 397.912 420.659C397.34 419.707 396.992 418.972 396.783 418.269C396.576 417.569 396.5 416.876 396.5 416C396.5 411.305 400.305 407.5 405 407.5C409.695 407.5 413.5 411.305 413.5 416C413.5 416.876 413.424 417.569 413.217 418.268C413.008 418.972 412.66 419.706 412.088 420.658C411.347 421.89 410.262 423.436 408.678 425.693C407.789 426.959 406.744 428.448 405.514 430.231C405.457 430.314 405.38 430.381 405.291 430.428C405.202 430.475 405.102 430.5 405.001 430.5C404.901 430.5 404.801 430.476 404.712 430.429Z" fill="#80FF00" fill-opacity="0.74" stroke="black"/>
<path d="M408.712 465.429C408.632 465.388 408.562 465.329 408.506 465.258L407.919 464.084L407.858 464.327C406.898 462.941 406.059 461.745 405.327 460.702C403.74 458.441 402.654 456.893 401.912 455.659C401.34 454.707 400.992 453.972 400.783 453.269C400.576 452.569 400.5 451.876 400.5 451C400.5 446.305 404.305 442.5 409 442.5C413.695 442.5 417.5 446.305 417.5 451C417.5 451.876 417.424 452.569 417.217 453.268C417.008 453.972 416.66 454.706 416.088 455.658C415.347 456.89 414.262 458.436 412.678 460.693C411.789 461.959 410.744 463.448 409.514 465.231C409.457 465.314 409.38 465.381 409.291 465.428C409.202 465.475 409.102 465.5 409.001 465.5C408.901 465.5 408.801 465.476 408.712 465.429Z" fill="#80FF00" fill-opacity="0.74" stroke="black"/>
<path d="M348.712 374.429C348.632 374.388 348.562 374.329 348.506 374.258L347.919 373.084L347.858 373.327C346.898 371.941 346.059 370.745 345.327 369.702C343.74 367.441 342.654 365.893 341.912 364.659C341.34 363.707 340.992 362.972 340.783 362.269C340.576 361.569 340.5 360.876 340.5 360C340.5 355.305 344.305 351.5 349 351.5C353.695 351.5 357.5 355.305 357.5 360C357.5 360.876 357.424 361.569 357.217 362.268C357.008 362.972 356.66 363.706 356.088 364.658C355.347 365.89 354.262 367.436 352.678 369.693C351.789 370.959 350.744 372.448 349.514 374.231C349.457 374.314 349.38 374.381 349.291 374.428C349.202 374.475 349.102 374.5 349.001 374.5C348.901 374.5 348.801 374.476 348.712 374.429Z" fill="#80FF00" fill-opacity="0.74" stroke="black"/>
<path d="M303.712 111.429C303.632 111.388 303.562 111.329 303.506 111.258L302.919 110.084L302.858 110.327C301.898 108.941 301.059 107.745 300.327 106.702C298.74 104.441 297.654 102.893 296.912 101.659C296.34 100.707 295.992 99.9723 295.783 99.2687C295.576 98.5689 295.5 97.876 295.5 97C295.5 92.3051 299.305 88.5 304 88.5C308.695 88.5 312.5 92.3051 312.5 97C312.5 97.876 312.424 98.5687 312.217 99.2683C312.008 99.9717 311.66 100.706 311.088 101.658C310.347 102.89 309.262 104.436 307.678 106.693C306.789 107.959 305.744 109.448 304.514 111.231C304.457 111.314 304.38 111.381 304.291 111.428C304.202 111.475 304.102 111.5 304.001 111.5C303.901 111.5 303.801 111.476 303.712 111.429Z" fill="#80FF00" fill-opacity="0.74" stroke="black"/>
<path d="M363.712 177.429C363.632 177.388 363.562 177.329 363.506 177.258L362.919 176.084L362.858 176.327C361.898 174.941 361.059 173.745 360.327 172.702C358.74 170.441 357.654 168.893 356.912 167.659C356.34 166.707 355.992 165.972 355.783 165.269C355.576 164.569 355.5 163.876 355.5 163C355.5 158.305 359.305 154.5 364 154.5C368.695 154.5 372.5 158.305 372.5 163C372.5 163.876 372.424 164.569 372.217 165.268C372.008 165.972 371.66 166.706 371.088 167.658C370.347 168.89 369.262 170.436 367.678 172.693C366.789 173.959 365.744 175.448 364.514 177.231C364.457 177.314 364.38 177.381 364.291 177.428C364.202 177.475 364.102 177.5 364.001 177.5C363.901 177.5 363.801 177.476 363.712 177.429Z" fill="#80FF00" fill-opacity="0.74" stroke="black"/>
<path d="M222.712 313.429C222.632 313.388 222.562 313.329 222.506 313.258L221.919 312.084L221.858 312.327C220.898 310.941 220.059 309.745 219.327 308.702C217.74 306.441 216.654 304.893 215.912 303.659C215.34 302.707 214.992 301.972 214.783 301.269C214.576 300.569 214.5 299.876 214.5 299C214.5 294.305 218.305 290.5 223 290.5C227.695 290.5 231.5 294.305 231.5 299C231.5 299.876 231.424 300.569 231.217 301.268C231.008 301.972 230.66 302.706 230.088 303.658C229.347 304.89 228.262 306.436 226.678 308.693C225.789 309.959 224.744 311.448 223.514 313.231C223.457 313.314 223.38 313.381 223.291 313.428C223.202 313.475 223.102 313.5 223.001 313.5C222.901 313.5 222.801 313.476 222.712 313.429Z" fill="#80FF00" fill-opacity="0.74" stroke="black"/>
<path d="M162.712 532.429C162.632 532.388 162.562 532.329 162.506 532.258L161.919 531.084L161.858 531.327C160.898 529.941 160.059 528.745 159.327 527.702C157.74 525.441 156.654 523.893 155.912 522.659C155.34 521.707 154.992 520.972 154.783 520.269C154.576 519.569 154.5 518.876 154.5 518C154.5 513.305 158.305 509.5 163 509.5C167.695 509.5 171.5 513.305 171.5 518C171.5 518.876 171.424 519.569 171.217 520.268C171.008 520.972 170.66 521.706 170.088 522.658C169.347 523.89 168.262 525.436 166.678 527.693C165.789 528.959 164.744 530.448 163.514 532.231C163.457 532.314 163.38 532.381 163.291 532.428C163.202 532.475 163.102 532.5 163.001 532.5C162.901 532.5 162.801 532.476 162.712 532.429Z" fill="#80FF00" fill-opacity="0.74" stroke="black"/>
<path d="M167.712 304.429C167.632 304.388 167.562 304.329 167.506 304.258L166.919 303.084L166.858 303.327C165.898 301.941 165.059 300.745 164.327 299.702C162.74 297.441 161.654 295.893 160.912 294.659C160.34 293.707 159.992 292.972 159.783 292.269C159.576 291.569 159.5 290.876 159.5 290C159.5 285.305 163.305 281.5 168 281.5C172.695 281.5 176.5 285.305 176.5 290C176.5 290.876 176.424 291.569 176.217 292.268C176.008 292.972 175.66 293.706 175.088 294.658C174.347 295.89 173.262 297.436 171.678 299.693C170.789 300.959 169.744 302.448 168.514 304.231C168.457 304.314 168.38 304.381 168.291 304.428C168.202 304.475 168.102 304.5 168.001 304.5C167.901 304.5 167.801 304.476 167.712 304.429Z" fill="#80FF00" fill-opacity="0.74" stroke="black"/>
<path d="M190.712 94.4294C190.632 94.3878 190.562 94.3295 190.506 94.2585L189.919 93.0837L189.858 93.3268C188.898 91.9407 188.059 90.7454 187.327 89.7018C185.74 87.4412 184.654 85.8927 183.912 84.659C183.34 83.7074 182.992 82.9723 182.783 82.2687C182.576 81.5689 182.5 80.876 182.5 80C182.5 75.3051 186.305 71.5 191 71.5C195.695 71.5 199.5 75.3051 199.5 80C199.5 80.876 199.424 81.5687 199.217 82.2683C199.008 82.9717 198.66 83.7065 198.088 84.6577C197.347 85.8898 196.262 87.4361 194.678 89.6929C193.789 90.9588 192.744 92.4482 191.514 94.2312C191.457 94.3138 191.38 94.3814 191.291 94.4282C191.202 94.475 191.102 94.4996 191.001 94.4998C190.901 94.5 190.801 94.4759 190.712 94.4294Z" fill="#80FF00" fill-opacity="0.74" stroke="black"/>
<path d="M202.82 190.458C202.775 190.435 202.736 190.405 202.706 190.369L202.125 189.249L202.064 189.481C201.37 188.516 200.76 187.678 200.224 186.942C198.994 185.25 198.153 184.095 197.578 183.173C197.136 182.464 196.872 181.924 196.714 181.411C196.558 180.903 196.5 180.398 196.5 179.75C196.5 176.315 199.393 173.5 203 173.5C206.607 173.5 209.5 176.315 209.5 179.75C209.5 180.398 209.442 180.903 209.286 181.411C209.128 181.923 208.864 182.463 208.422 183.172C207.848 184.092 207.008 185.246 205.779 186.935C205.087 187.885 204.273 189.004 203.313 190.345C203.281 190.391 203.236 190.43 203.181 190.457C203.126 190.485 203.065 190.5 203.001 190.5C202.937 190.5 202.875 190.485 202.82 190.458Z" fill="#F40A0A" fill-opacity="0.74" stroke="black"/>
</g>
<defs>
<filter id="filter0_d_111_412" x="-4" y="0" width="491" height="705" filterUnits="userSpaceOnUse" color-interpolation-filters="sRGB">
<feFlood flood-opacity="0" result="BackgroundImageFix"/>
<feColorMatrix in="SourceAlpha" type="matrix" values="0 0 0 0 0 0 0 0 0 0 0 0 0 0 0 0 0 0 127 0" result="hardAlpha"/>
<feOffset dy="4"/>
<feGaussianBlur stdDeviation="2"/>
<feComposite in2="hardAlpha" operator="out"/>
<feColorMatrix type="matrix" values="0 0 0 0 0 0 0 0 0 0 0 0 0 0 0 0 0 0 0.25 0"/>
<feBlend mode="normal" in2="BackgroundImageFix" result="effect1_dropShadow_111_412"/>
<feBlend mode="normal" in="SourceGraphic" in2="effect1_dropShadow_111_412" result="shape"/>
</filter>
</defs>
</svg>
