<svg width="483" height="697" viewBox="0 0 483 697" fill="none" xmlns="http://www.w3.org/2000/svg">
<g clip-path="url(#clip0_218_166)">
<path d="M189.951 155.487C189.94 155.481 189.929 155.472 189.918 155.461L189.329 154.223L189.267 154.481C188.848 153.848 188.474 153.288 188.141 152.789C187.264 151.477 186.667 150.583 186.258 149.87C185.945 149.323 185.76 148.91 185.65 148.521C185.541 148.135 185.5 147.75 185.5 147.25C185.5 144.603 187.537 142.5 190 142.5C192.463 142.5 194.5 144.603 194.5 147.25C194.5 147.75 194.459 148.135 194.35 148.52C194.24 148.909 194.055 149.322 193.742 149.869C193.334 150.582 192.737 151.474 191.861 152.784C191.367 153.523 190.784 154.395 190.097 155.442C190.083 155.463 190.066 155.478 190.049 155.487C190.033 155.496 190.016 155.5 190 155.5C189.984 155.5 189.968 155.496 189.951 155.487Z" fill="#80FF00" fill-opacity="0.74" stroke="black"/>
<path d="M355.951 387.487C355.94 387.481 355.929 387.472 355.918 387.461L355.329 386.223L355.267 386.481C354.848 385.848 354.474 385.288 354.141 384.789C353.264 383.477 352.667 382.583 352.258 381.87C351.945 381.323 351.76 380.91 351.65 380.521C351.541 380.135 351.5 379.75 351.5 379.25C351.5 376.603 353.537 374.5 356 374.5C358.463 374.5 360.5 376.603 360.5 379.25C360.5 379.75 360.459 380.135 360.35 380.52C360.24 380.909 360.055 381.322 359.742 381.869C359.334 382.582 358.737 383.474 357.861 384.784C357.367 385.523 356.784 386.395 356.097 387.442C356.083 387.463 356.066 387.478 356.049 387.487C356.033 387.496 356.016 387.5 356 387.5C355.984 387.5 355.968 387.496 355.951 387.487Z" fill="#80FF00" fill-opacity="0.74" stroke="black"/>
<path d="M199.951 411.487C199.94 411.481 199.929 411.472 199.918 411.461L199.329 410.223L199.267 410.481C198.848 409.848 198.474 409.288 198.141 408.789C197.264 407.477 196.667 406.583 196.258 405.87C195.945 405.323 195.76 404.91 195.65 404.521C195.541 404.135 195.5 403.75 195.5 403.25C195.5 400.603 197.537 398.5 200 398.5C202.463 398.5 204.5 400.603 204.5 403.25C204.5 403.75 204.459 404.135 204.35 404.52C204.24 404.909 204.055 405.322 203.742 405.869C203.334 406.582 202.737 407.474 201.861 408.784C201.367 409.523 200.784 410.395 200.097 411.442C200.083 411.463 200.066 411.478 200.049 411.487C200.033 411.496 200.016 411.5 200 411.5C199.984 411.5 199.968 411.496 199.951 411.487Z" fill="#80FF00" fill-opacity="0.74" stroke="black"/>
<path d="M312.951 115.487C312.94 115.481 312.929 115.472 312.918 115.461L312.329 114.223L312.267 114.481C311.848 113.848 311.474 113.288 311.141 112.789C310.264 111.477 309.667 110.583 309.258 109.87C308.945 109.323 308.76 108.91 308.65 108.521C308.541 108.135 308.5 107.75 308.5 107.25C308.5 104.603 310.537 102.5 313 102.5C315.463 102.5 317.5 104.603 317.5 107.25C317.5 107.75 317.459 108.135 317.35 108.52C317.24 108.909 317.055 109.322 316.742 109.869C316.334 110.582 315.737 111.474 314.861 112.784C314.367 113.523 313.784 114.395 313.097 115.442C313.083 115.463 313.066 115.478 313.049 115.487C313.033 115.496 313.016 115.5 313 115.5C312.984 115.5 312.968 115.496 312.951 115.487Z" fill="#80FF00" fill-opacity="0.74" stroke="black"/>
<path d="M264.951 283.487C264.94 283.481 264.929 283.472 264.918 283.461L264.329 282.223L264.267 282.481C263.848 281.848 263.474 281.288 263.141 280.789C262.264 279.477 261.667 278.583 261.258 277.87C260.945 277.323 260.76 276.91 260.65 276.521C260.541 276.135 260.5 275.75 260.5 275.25C260.5 272.603 262.537 270.5 265 270.5C267.463 270.5 269.5 272.603 269.5 275.25C269.5 275.75 269.459 276.135 269.35 276.52C269.24 276.909 269.055 277.322 268.742 277.869C268.334 278.582 267.737 279.474 266.861 280.784C266.367 281.523 265.784 282.395 265.097 283.442C265.083 283.463 265.066 283.478 265.049 283.487C265.033 283.496 265.016 283.5 265 283.5C264.984 283.5 264.968 283.496 264.951 283.487Z" fill="#80FF00" fill-opacity="0.74" stroke="black"/>
<path d="M170.951 464.487C170.94 464.481 170.929 464.472 170.918 464.461L170.329 463.223L170.267 463.481C169.848 462.848 169.474 462.288 169.141 461.789C168.264 460.477 167.667 459.583 167.258 458.87C166.945 458.323 166.76 457.91 166.65 457.521C166.541 457.135 166.5 456.75 166.5 456.25C166.5 453.603 168.537 451.5 171 451.5C173.463 451.5 175.5 453.603 175.5 456.25C175.5 456.75 175.459 457.135 175.35 457.52C175.24 457.909 175.055 458.322 174.742 458.869C174.334 459.582 173.737 460.474 172.861 461.784C172.367 462.523 171.784 463.395 171.097 464.442C171.083 464.463 171.066 464.478 171.049 464.487C171.033 464.496 171.016 464.5 171 464.5C170.984 464.5 170.968 464.496 170.951 464.487Z" fill="#80FF00" fill-opacity="0.74" stroke="black"/>
<path d="M129.951 685.487C129.94 685.481 129.929 685.472 129.918 685.461L129.329 684.223L129.267 684.481C128.848 683.848 128.474 683.288 128.141 682.789C127.264 681.477 126.667 680.583 126.258 679.87C125.945 679.323 125.76 678.91 125.65 678.521C125.541 678.135 125.5 677.75 125.5 677.25C125.5 674.603 127.537 672.5 130 672.5C132.463 672.5 134.5 674.603 134.5 677.25C134.5 677.75 134.459 678.135 134.35 678.52C134.24 678.909 134.055 679.322 133.742 679.869C133.334 680.582 132.737 681.474 131.861 682.784C131.367 683.523 130.784 684.395 130.097 685.442C130.083 685.463 130.066 685.478 130.049 685.487C130.033 685.496 130.016 685.5 130 685.5C129.984 685.5 129.968 685.496 129.951 685.487Z" fill="#80FF00" fill-opacity="0.74" stroke="black"/>
<path d="M119.951 661.487C119.94 661.481 119.929 661.472 119.918 661.461L119.329 660.223L119.267 660.481C118.848 659.848 118.474 659.288 118.141 658.789C117.264 657.477 116.667 656.583 116.258 655.87C115.945 655.323 115.76 654.91 115.65 654.521C115.541 654.135 115.5 653.75 115.5 653.25C115.5 650.603 117.537 648.5 120 648.5C122.463 648.5 124.5 650.603 124.5 653.25C124.5 653.75 124.459 654.135 124.35 654.52C124.24 654.909 124.055 655.322 123.742 655.869C123.334 656.582 122.737 657.474 121.861 658.784C121.367 659.523 120.784 660.395 120.097 661.442C120.083 661.463 120.066 661.478 120.049 661.487C120.033 661.496 120.016 661.5 120 661.5C119.984 661.5 119.968 661.496 119.951 661.487Z" fill="#80FF00" fill-opacity="0.74" stroke="black"/>
<path d="M230.951 315.487C230.94 315.481 230.929 315.472 230.918 315.461L230.329 314.223L230.267 314.481C229.848 313.848 229.474 313.288 229.141 312.789C228.264 311.477 227.667 310.583 227.258 309.87C226.945 309.323 226.76 308.91 226.65 308.521C226.541 308.135 226.5 307.75 226.5 307.25C226.5 304.603 228.537 302.5 231 302.5C233.463 302.5 235.5 304.603 235.5 307.25C235.5 307.75 235.459 308.135 235.35 308.52C235.24 308.909 235.055 309.322 234.742 309.869C234.334 310.582 233.737 311.474 232.861 312.784C232.367 313.523 231.784 314.395 231.097 315.442C231.083 315.463 231.066 315.478 231.049 315.487C231.033 315.496 231.016 315.5 231 315.5C230.984 315.5 230.968 315.496 230.951 315.487Z" fill="#80FF00" fill-opacity="0.74" stroke="black"/>
<path d="M198.951 294.487C198.94 294.481 198.929 294.472 198.918 294.461L198.329 293.223L198.267 293.481C197.848 292.848 197.474 292.288 197.141 291.789C196.264 290.477 195.667 289.583 195.258 288.87C194.945 288.323 194.76 287.91 194.65 287.521C194.541 287.135 194.5 286.75 194.5 286.25C194.5 283.603 196.537 281.5 199 281.5C201.463 281.5 203.5 283.603 203.5 286.25C203.5 286.75 203.459 287.135 203.35 287.52C203.24 287.909 203.055 288.322 202.742 288.869C202.334 289.582 201.737 290.474 200.861 291.784C200.367 292.523 199.784 293.395 199.097 294.442C199.083 294.463 199.066 294.478 199.049 294.487C199.033 294.496 199.016 294.5 199 294.5C198.984 294.5 198.968 294.496 198.951 294.487Z" fill="#80FF00" fill-opacity="0.74" stroke="black"/>
<path d="M359.951 399.487C359.94 399.481 359.929 399.472 359.918 399.461L359.329 398.223L359.267 398.481C358.848 397.848 358.474 397.288 358.141 396.789C357.264 395.477 356.667 394.583 356.258 393.87C355.945 393.323 355.76 392.91 355.65 392.521C355.541 392.135 355.5 391.75 355.5 391.25C355.5 388.603 357.537 386.5 360 386.5C362.463 386.5 364.5 388.603 364.5 391.25C364.5 391.75 364.459 392.135 364.35 392.52C364.24 392.909 364.055 393.322 363.742 393.869C363.334 394.582 362.737 395.474 361.861 396.784C361.367 397.523 360.784 398.395 360.097 399.442C360.083 399.463 360.066 399.478 360.049 399.487C360.033 399.496 360.016 399.5 360 399.5C359.984 399.5 359.968 399.496 359.951 399.487Z" fill="#80FF00" fill-opacity="0.74" stroke="black"/>
<path d="M280.951 484.487C280.94 484.481 280.929 484.472 280.918 484.461L280.329 483.223L280.267 483.481C279.848 482.848 279.474 482.288 279.141 481.789C278.264 480.477 277.667 479.583 277.258 478.87C276.945 478.323 276.76 477.91 276.65 477.521C276.541 477.135 276.5 476.75 276.5 476.25C276.5 473.603 278.537 471.5 281 471.5C283.463 471.5 285.5 473.603 285.5 476.25C285.5 476.75 285.459 477.135 285.35 477.52C285.24 477.909 285.055 478.322 284.742 478.869C284.334 479.582 283.737 480.474 282.861 481.784C282.367 482.523 281.784 483.395 281.097 484.442C281.083 484.463 281.066 484.478 281.049 484.487C281.033 484.496 281.016 484.5 281 484.5C280.984 484.5 280.968 484.496 280.951 484.487Z" fill="#80FF00" fill-opacity="0.74" stroke="black"/>
<path d="M316.951 127.487C316.94 127.481 316.929 127.472 316.918 127.461L316.329 126.223L316.267 126.481C315.848 125.848 315.474 125.288 315.141 124.789C314.264 123.477 313.667 122.583 313.258 121.87C312.945 121.323 312.76 120.91 312.65 120.521C312.541 120.135 312.5 119.75 312.5 119.25C312.5 116.603 314.537 114.5 317 114.5C319.463 114.5 321.5 116.603 321.5 119.25C321.5 119.75 321.459 120.135 321.35 120.52C321.24 120.909 321.055 121.322 320.742 121.869C320.334 122.582 319.737 123.474 318.861 124.784C318.367 125.523 317.784 126.395 317.097 127.442C317.083 127.463 317.066 127.478 317.049 127.487C317.033 127.496 317.016 127.5 317 127.5C316.984 127.5 316.968 127.496 316.951 127.487Z" fill="#80FF00" fill-opacity="0.74" stroke="black"/>
<path d="M257.951 301.487C257.94 301.481 257.929 301.472 257.918 301.461L257.329 300.223L257.267 300.481C256.848 299.848 256.474 299.288 256.141 298.789C255.264 297.477 254.667 296.583 254.258 295.87C253.945 295.323 253.76 294.91 253.65 294.521C253.541 294.135 253.5 293.75 253.5 293.25C253.5 290.603 255.537 288.5 258 288.5C260.463 288.5 262.5 290.603 262.5 293.25C262.5 293.75 262.459 294.135 262.35 294.52C262.24 294.909 262.055 295.322 261.742 295.869C261.334 296.582 260.737 297.474 259.861 298.784C259.367 299.523 258.784 300.395 258.097 301.442C258.083 301.463 258.066 301.478 258.049 301.487C258.033 301.496 258.016 301.5 258 301.5C257.984 301.5 257.968 301.496 257.951 301.487Z" fill="#80FF00" fill-opacity="0.74" stroke="black"/>
<path d="M174.951 476.487C174.94 476.481 174.929 476.472 174.918 476.461L174.329 475.223L174.267 475.481C173.848 474.848 173.474 474.288 173.141 473.789C172.264 472.477 171.667 471.583 171.258 470.87C170.945 470.323 170.76 469.91 170.65 469.521C170.541 469.135 170.5 468.75 170.5 468.25C170.5 465.603 172.537 463.5 175 463.5C177.463 463.5 179.5 465.603 179.5 468.25C179.5 468.75 179.459 469.135 179.35 469.52C179.24 469.909 179.055 470.322 178.742 470.869C178.334 471.582 177.737 472.474 176.861 473.784C176.367 474.523 175.784 475.395 175.097 476.442C175.083 476.463 175.066 476.478 175.049 476.487C175.033 476.496 175.016 476.5 175 476.5C174.984 476.5 174.968 476.496 174.951 476.487Z" fill="#80FF00" fill-opacity="0.74" stroke="black"/>
<path d="M240.951 320.487C240.94 320.481 240.929 320.472 240.918 320.461L240.329 319.223L240.267 319.481C239.848 318.848 239.474 318.288 239.141 317.789C238.264 316.477 237.667 315.583 237.258 314.87C236.945 314.323 236.76 313.91 236.65 313.521C236.541 313.135 236.5 312.75 236.5 312.25C236.5 309.603 238.537 307.5 241 307.5C243.463 307.5 245.5 309.603 245.5 312.25C245.5 312.75 245.459 313.135 245.35 313.52C245.24 313.909 245.055 314.322 244.742 314.869C244.334 315.582 243.737 316.474 242.861 317.784C242.367 318.523 241.784 319.395 241.097 320.442C241.083 320.463 241.066 320.478 241.049 320.487C241.033 320.496 241.016 320.5 241 320.5C240.984 320.5 240.968 320.496 240.951 320.487Z" fill="#80FF00" fill-opacity="0.74" stroke="black"/>
<path d="M215.951 275.487C215.94 275.481 215.929 275.472 215.918 275.461L215.329 274.223L215.267 274.481C214.848 273.848 214.474 273.288 214.141 272.789C213.264 271.477 212.667 270.583 212.258 269.87C211.945 269.323 211.76 268.91 211.65 268.521C211.541 268.135 211.5 267.75 211.5 267.25C211.5 264.603 213.537 262.5 216 262.5C218.463 262.5 220.5 264.603 220.5 267.25C220.5 267.75 220.459 268.135 220.35 268.52C220.24 268.909 220.055 269.322 219.742 269.869C219.334 270.582 218.737 271.474 217.861 272.784C217.367 273.523 216.784 274.395 216.097 275.442C216.083 275.463 216.066 275.478 216.049 275.487C216.033 275.496 216.016 275.5 216 275.5C215.984 275.5 215.968 275.496 215.951 275.487Z" fill="#80FF00" fill-opacity="0.74" stroke="black"/>
<path d="M139.951 163.487C139.94 163.481 139.929 163.472 139.918 163.461L139.329 162.223L139.267 162.481C138.848 161.848 138.474 161.288 138.141 160.789C137.264 159.477 136.667 158.583 136.258 157.87C135.945 157.323 135.76 156.91 135.65 156.521C135.541 156.135 135.5 155.75 135.5 155.25C135.5 152.603 137.537 150.5 140 150.5C142.463 150.5 144.5 152.603 144.5 155.25C144.5 155.75 144.459 156.135 144.35 156.52C144.24 156.909 144.055 157.322 143.742 157.869C143.334 158.582 142.737 159.474 141.861 160.784C141.367 161.523 140.784 162.395 140.097 163.442C140.083 163.463 140.066 163.478 140.049 163.487C140.033 163.496 140.016 163.5 140 163.5C139.984 163.5 139.968 163.496 139.951 163.487Z" fill="#80FF00" fill-opacity="0.74" stroke="black"/>
<path d="M207.951 418.487C207.94 418.481 207.929 418.472 207.918 418.461L207.329 417.223L207.267 417.481C206.848 416.848 206.474 416.288 206.141 415.789C205.264 414.477 204.667 413.583 204.258 412.87C203.945 412.323 203.76 411.91 203.65 411.521C203.541 411.135 203.5 410.75 203.5 410.25C203.5 407.603 205.537 405.5 208 405.5C210.463 405.5 212.5 407.603 212.5 410.25C212.5 410.75 212.459 411.135 212.35 411.52C212.24 411.909 212.055 412.322 211.742 412.869C211.334 413.582 210.737 414.474 209.861 415.784C209.367 416.523 208.784 417.395 208.097 418.442C208.083 418.463 208.066 418.478 208.049 418.487C208.033 418.496 208.016 418.5 208 418.5C207.984 418.5 207.968 418.496 207.951 418.487Z" fill="#80FF00" fill-opacity="0.74" stroke="black"/>
<path d="M332.951 457.487C332.94 457.481 332.929 457.472 332.918 457.461L332.329 456.223L332.267 456.481C331.848 455.848 331.474 455.288 331.141 454.789C330.264 453.477 329.667 452.583 329.258 451.87C328.945 451.323 328.76 450.91 328.65 450.521C328.541 450.135 328.5 449.75 328.5 449.25C328.5 446.603 330.537 444.5 333 444.5C335.463 444.5 337.5 446.603 337.5 449.25C337.5 449.75 337.459 450.135 337.35 450.52C337.24 450.909 337.055 451.322 336.742 451.869C336.334 452.582 335.737 453.474 334.861 454.784C334.367 455.523 333.784 456.395 333.097 457.442C333.083 457.463 333.066 457.478 333.049 457.487C333.033 457.496 333.016 457.5 333 457.5C332.984 457.5 332.968 457.496 332.951 457.487Z" fill="#80FF00" fill-opacity="0.74" stroke="black"/>
<path d="M328.951 502.487C328.94 502.481 328.929 502.472 328.918 502.461L328.329 501.223L328.267 501.481C327.848 500.848 327.474 500.288 327.141 499.789C326.264 498.477 325.667 497.583 325.258 496.87C324.945 496.323 324.76 495.91 324.65 495.521C324.541 495.135 324.5 494.75 324.5 494.25C324.5 491.603 326.537 489.5 329 489.5C331.463 489.5 333.5 491.603 333.5 494.25C333.5 494.75 333.459 495.135 333.35 495.52C333.24 495.909 333.055 496.322 332.742 496.869C332.334 497.582 331.737 498.474 330.861 499.784C330.367 500.523 329.784 501.395 329.097 502.442C329.083 502.463 329.066 502.478 329.049 502.487C329.033 502.496 329.016 502.5 329 502.5C328.984 502.5 328.968 502.496 328.951 502.487Z" fill="#80FF00" fill-opacity="0.74" stroke="black"/>
<path d="M322.951 108.487C322.94 108.481 322.929 108.472 322.918 108.461L322.329 107.223L322.267 107.481C321.848 106.848 321.474 106.288 321.141 105.789C320.264 104.477 319.667 103.583 319.258 102.87C318.945 102.323 318.76 101.91 318.65 101.521C318.541 101.135 318.5 100.75 318.5 100.25C318.5 97.6031 320.537 95.5 323 95.5C325.463 95.5 327.5 97.6031 327.5 100.25C327.5 100.75 327.459 101.135 327.35 101.52C327.24 101.909 327.055 102.322 326.742 102.869C326.334 103.582 325.737 104.474 324.861 105.784C324.367 106.523 323.784 107.395 323.097 108.442C323.083 108.463 323.066 108.478 323.049 108.487C323.033 108.496 323.016 108.5 323 108.5C322.984 108.5 322.968 108.496 322.951 108.487Z" fill="#80FF00" fill-opacity="0.74" stroke="black"/>
<path d="M267.951 262.487C267.94 262.481 267.929 262.472 267.918 262.461L267.329 261.223L267.267 261.481C266.848 260.848 266.474 260.288 266.141 259.789C265.264 258.477 264.667 257.583 264.258 256.87C263.945 256.323 263.76 255.91 263.65 255.521C263.541 255.135 263.5 254.75 263.5 254.25C263.5 251.603 265.537 249.5 268 249.5C270.463 249.5 272.5 251.603 272.5 254.25C272.5 254.75 272.459 255.135 272.35 255.52C272.24 255.909 272.055 256.322 271.742 256.869C271.334 257.582 270.737 258.474 269.861 259.784C269.367 260.523 268.784 261.395 268.097 262.442C268.083 262.463 268.066 262.478 268.049 262.487C268.033 262.496 268.016 262.5 268 262.5C267.984 262.5 267.968 262.496 267.951 262.487Z" fill="#80FF00" fill-opacity="0.74" stroke="black"/>
<path d="M155.951 477.487C155.94 477.481 155.929 477.472 155.918 477.461L155.329 476.223L155.267 476.481C154.848 475.848 154.474 475.288 154.141 474.789C153.264 473.477 152.667 472.583 152.258 471.87C151.945 471.323 151.76 470.91 151.65 470.521C151.541 470.135 151.5 469.75 151.5 469.25C151.5 466.603 153.537 464.5 156 464.5C158.463 464.5 160.5 466.603 160.5 469.25C160.5 469.75 160.459 470.135 160.35 470.52C160.24 470.909 160.055 471.322 159.742 471.869C159.334 472.582 158.737 473.474 157.861 474.784C157.367 475.523 156.784 476.395 156.097 477.442C156.083 477.463 156.066 477.478 156.049 477.487C156.033 477.496 156.016 477.5 156 477.5C155.984 477.5 155.968 477.496 155.951 477.487Z" fill="#80FF00" fill-opacity="0.74" stroke="black"/>
<path d="M221.951 321.487C221.94 321.481 221.929 321.472 221.918 321.461L221.329 320.223L221.267 320.481C220.848 319.848 220.474 319.288 220.141 318.789C219.264 317.477 218.667 316.583 218.258 315.87C217.945 315.323 217.76 314.91 217.65 314.521C217.541 314.135 217.5 313.75 217.5 313.25C217.5 310.603 219.537 308.5 222 308.5C224.463 308.5 226.5 310.603 226.5 313.25C226.5 313.75 226.459 314.135 226.35 314.52C226.24 314.909 226.055 315.322 225.742 315.869C225.334 316.582 224.737 317.474 223.861 318.784C223.367 319.523 222.784 320.395 222.097 321.442C222.083 321.463 222.066 321.478 222.049 321.487C222.033 321.496 222.016 321.5 222 321.5C221.984 321.5 221.968 321.496 221.951 321.487Z" fill="#80FF00" fill-opacity="0.74" stroke="black"/>
<path d="M196.951 276.487C196.94 276.481 196.929 276.472 196.918 276.461L196.329 275.223L196.267 275.481C195.848 274.848 195.474 274.288 195.141 273.789C194.264 272.477 193.667 271.583 193.258 270.87C192.945 270.323 192.76 269.91 192.65 269.521C192.541 269.135 192.5 268.75 192.5 268.25C192.5 265.603 194.537 263.5 197 263.5C199.463 263.5 201.5 265.603 201.5 268.25C201.5 268.75 201.459 269.135 201.35 269.52C201.24 269.909 201.055 270.322 200.742 270.869C200.334 271.582 199.737 272.474 198.861 273.784C198.367 274.523 197.784 275.395 197.097 276.442C197.083 276.463 197.066 276.478 197.049 276.487C197.033 276.496 197.016 276.5 197 276.5C196.984 276.5 196.968 276.496 196.951 276.487Z" fill="#80FF00" fill-opacity="0.74" stroke="black"/>
<path d="M440.951 301.487C440.94 301.481 440.929 301.472 440.918 301.461L440.329 300.223L440.267 300.481C439.848 299.848 439.474 299.288 439.141 298.789C438.264 297.477 437.667 296.583 437.258 295.87C436.945 295.323 436.76 294.91 436.65 294.521C436.541 294.135 436.5 293.75 436.5 293.25C436.5 290.603 438.537 288.5 441 288.5C443.463 288.5 445.5 290.603 445.5 293.25C445.5 293.75 445.459 294.135 445.35 294.52C445.24 294.909 445.055 295.322 444.742 295.869C444.334 296.582 443.737 297.474 442.861 298.784C442.367 299.523 441.784 300.395 441.097 301.442C441.083 301.463 441.066 301.478 441.049 301.487C441.033 301.496 441.016 301.5 441 301.5C440.984 301.5 440.968 301.496 440.951 301.487Z" fill="#80FF00" fill-opacity="0.74" stroke="black"/>
<path d="M405.951 476.487C405.94 476.481 405.929 476.472 405.918 476.461L405.329 475.223L405.267 475.481C404.848 474.848 404.474 474.288 404.141 473.789C403.264 472.477 402.667 471.583 402.258 470.87C401.945 470.323 401.76 469.91 401.65 469.521C401.541 469.135 401.5 468.75 401.5 468.25C401.5 465.603 403.537 463.5 406 463.5C408.463 463.5 410.5 465.603 410.5 468.25C410.5 468.75 410.459 469.135 410.35 469.52C410.24 469.909 410.055 470.322 409.742 470.869C409.334 471.582 408.737 472.474 407.861 473.784C407.367 474.523 406.784 475.395 406.097 476.442C406.083 476.463 406.066 476.478 406.049 476.487C406.033 476.496 406.016 476.5 406 476.5C405.984 476.5 405.968 476.496 405.951 476.487Z" fill="#80FF00" fill-opacity="0.74" stroke="black"/>
<path d="M187.405 162.478C187.386 162.469 187.369 162.457 187.356 162.443L186.779 161.342L186.719 161.571C186.225 160.893 185.788 160.298 185.4 159.771C184.436 158.459 183.779 157.565 183.33 156.852C182.985 156.304 182.783 155.893 182.663 155.508C182.545 155.127 182.5 154.746 182.5 154.25C182.5 151.648 184.716 149.5 187.5 149.5C190.284 149.5 192.5 151.648 192.5 154.25C192.5 154.746 192.455 155.127 192.337 155.508C192.217 155.893 192.015 156.304 191.67 156.851C191.222 157.563 190.565 158.456 189.602 159.766C189.059 160.505 188.417 161.377 187.661 162.424C187.646 162.445 187.624 162.464 187.596 162.478C187.568 162.492 187.535 162.5 187.501 162.5C187.466 162.5 187.433 162.492 187.405 162.478Z" fill="#80FF00" fill-opacity="0.74" stroke="black"/>
<path d="M455.405 355.478C455.386 355.469 455.369 355.457 455.356 355.443L454.779 354.342L454.719 354.571C454.225 353.893 453.788 353.298 453.4 352.771C452.436 351.459 451.779 350.565 451.33 349.852C450.985 349.304 450.783 348.893 450.663 348.508C450.545 348.127 450.5 347.746 450.5 347.25C450.5 344.648 452.716 342.5 455.5 342.5C458.284 342.5 460.5 344.648 460.5 347.25C460.5 347.746 460.455 348.127 460.337 348.508C460.217 348.893 460.015 349.304 459.67 349.851C459.222 350.563 458.565 351.456 457.602 352.766C457.059 353.505 456.417 354.377 455.661 355.424C455.646 355.445 455.624 355.464 455.596 355.478C455.568 355.492 455.535 355.5 455.501 355.5C455.466 355.5 455.433 355.492 455.405 355.478Z" fill="#80FF00" fill-opacity="0.74" stroke="black"/>
<path d="M423.405 425.478C423.386 425.469 423.369 425.457 423.356 425.443L422.779 424.342L422.719 424.571C422.225 423.893 421.788 423.298 421.4 422.771C420.436 421.459 419.779 420.565 419.33 419.852C418.985 419.304 418.783 418.893 418.663 418.508C418.545 418.127 418.5 417.746 418.5 417.25C418.5 414.648 420.716 412.5 423.5 412.5C426.284 412.5 428.5 414.648 428.5 417.25C428.5 417.746 428.455 418.127 428.337 418.508C428.217 418.893 428.015 419.304 427.67 419.851C427.222 420.563 426.565 421.456 425.602 422.766C425.059 423.505 424.417 424.377 423.661 425.424C423.646 425.445 423.624 425.464 423.596 425.478C423.568 425.492 423.535 425.5 423.501 425.5C423.466 425.5 423.433 425.492 423.405 425.478Z" fill="#80FF00" fill-opacity="0.74" stroke="black"/>
<path d="M173.951 162.487C173.94 162.481 173.929 162.472 173.918 162.461L173.329 161.223L173.267 161.481C172.848 160.848 172.474 160.288 172.141 159.789C171.264 158.477 170.667 157.583 170.258 156.87C169.945 156.323 169.76 155.91 169.65 155.521C169.541 155.135 169.5 154.75 169.5 154.25C169.5 151.603 171.537 149.5 174 149.5C176.463 149.5 178.5 151.603 178.5 154.25C178.5 154.75 178.459 155.135 178.35 155.52C178.24 155.909 178.055 156.322 177.742 156.869C177.334 157.582 176.737 158.474 175.861 159.784C175.367 160.523 174.784 161.395 174.097 162.442C174.083 162.463 174.066 162.478 174.049 162.487C174.033 162.496 174.016 162.5 174 162.5C173.984 162.5 173.968 162.496 173.951 162.487Z" fill="#80FF00" fill-opacity="0.74" stroke="black"/>
<path d="M343.951 382.487C343.94 382.481 343.929 382.472 343.918 382.461L343.329 381.223L343.267 381.481C342.848 380.848 342.474 380.288 342.141 379.789C341.264 378.477 340.667 377.583 340.258 376.87C339.945 376.323 339.76 375.91 339.65 375.521C339.541 375.135 339.5 374.75 339.5 374.25C339.5 371.603 341.537 369.5 344 369.5C346.463 369.5 348.5 371.603 348.5 374.25C348.5 374.75 348.459 375.135 348.35 375.52C348.24 375.909 348.055 376.322 347.742 376.869C347.334 377.582 346.737 378.474 345.861 379.784C345.367 380.523 344.784 381.395 344.097 382.442C344.083 382.463 344.066 382.478 344.049 382.487C344.033 382.496 344.016 382.5 344 382.5C343.984 382.5 343.968 382.496 343.951 382.487Z" fill="#80FF00" fill-opacity="0.74" stroke="black"/>
<path d="M134.951 566.487C134.94 566.481 134.929 566.472 134.918 566.461L134.329 565.223L134.267 565.481C133.848 564.848 133.474 564.288 133.141 563.789C132.264 562.477 131.667 561.583 131.258 560.87C130.945 560.323 130.76 559.91 130.65 559.521C130.541 559.135 130.5 558.75 130.5 558.25C130.5 555.603 132.537 553.5 135 553.5C137.463 553.5 139.5 555.603 139.5 558.25C139.5 558.75 139.459 559.135 139.35 559.52C139.24 559.909 139.055 560.322 138.742 560.869C138.334 561.582 137.737 562.474 136.861 563.784C136.367 564.523 135.784 565.395 135.097 566.442C135.083 566.463 135.066 566.478 135.049 566.487C135.033 566.496 135.016 566.5 135 566.5C134.984 566.5 134.968 566.496 134.951 566.487Z" fill="#80FF00" fill-opacity="0.74" stroke="black"/>
<path d="M300.951 110.487C300.94 110.481 300.929 110.472 300.918 110.461L300.329 109.223L300.267 109.481C299.848 108.848 299.474 108.288 299.141 107.789C298.264 106.477 297.667 105.583 297.258 104.87C296.945 104.323 296.76 103.91 296.65 103.521C296.541 103.135 296.5 102.75 296.5 102.25C296.5 99.6031 298.537 97.5 301 97.5C303.463 97.5 305.5 99.6031 305.5 102.25C305.5 102.75 305.459 103.135 305.35 103.52C305.24 103.909 305.055 104.322 304.742 104.869C304.334 105.582 303.737 106.474 302.861 107.784C302.367 108.523 301.784 109.395 301.097 110.442C301.083 110.463 301.066 110.478 301.049 110.487C301.033 110.496 301.016 110.5 301 110.5C300.984 110.5 300.968 110.496 300.951 110.487Z" fill="#80FF00" fill-opacity="0.74" stroke="black"/>
<path d="M246.951 276.487C246.94 276.481 246.929 276.472 246.918 276.461L246.329 275.223L246.267 275.481C245.848 274.848 245.474 274.288 245.141 273.789C244.264 272.477 243.667 271.583 243.258 270.87C242.945 270.323 242.76 269.91 242.65 269.521C242.541 269.135 242.5 268.75 242.5 268.25C242.5 265.603 244.537 263.5 247 263.5C249.463 263.5 251.5 265.603 251.5 268.25C251.5 268.75 251.459 269.135 251.35 269.52C251.24 269.909 251.055 270.322 250.742 270.869C250.334 271.582 249.737 272.474 248.861 273.784C248.367 274.523 247.784 275.395 247.097 276.442C247.083 276.463 247.066 276.478 247.049 276.487C247.033 276.496 247.016 276.5 247 276.5C246.984 276.5 246.968 276.496 246.951 276.487Z" fill="#80FF00" fill-opacity="0.74" stroke="black"/>
<path d="M158.951 459.487C158.94 459.481 158.929 459.472 158.918 459.461L158.329 458.223L158.267 458.481C157.848 457.848 157.474 457.288 157.141 456.789C156.264 455.477 155.667 454.583 155.258 453.87C154.945 453.323 154.76 452.91 154.65 452.521C154.541 452.135 154.5 451.75 154.5 451.25C154.5 448.603 156.537 446.5 159 446.5C161.463 446.5 163.5 448.603 163.5 451.25C163.5 451.75 163.459 452.135 163.35 452.52C163.24 452.909 163.055 453.322 162.742 453.869C162.334 454.582 161.737 455.474 160.861 456.784C160.367 457.523 159.784 458.395 159.097 459.442C159.083 459.463 159.066 459.478 159.049 459.487C159.033 459.496 159.016 459.5 159 459.5C158.984 459.5 158.968 459.496 158.951 459.487Z" fill="#80FF00" fill-opacity="0.74" stroke="black"/>
<path d="M224.951 303.487C224.94 303.481 224.929 303.472 224.918 303.461L224.329 302.223L224.267 302.481C223.848 301.848 223.474 301.288 223.141 300.789C222.264 299.477 221.667 298.583 221.258 297.87C220.945 297.323 220.76 296.91 220.65 296.521C220.541 296.135 220.5 295.75 220.5 295.25C220.5 292.603 222.537 290.5 225 290.5C227.463 290.5 229.5 292.603 229.5 295.25C229.5 295.75 229.459 296.135 229.35 296.52C229.24 296.909 229.055 297.322 228.742 297.869C228.334 298.582 227.737 299.474 226.861 300.784C226.367 301.523 225.784 302.395 225.097 303.442C225.083 303.463 225.066 303.478 225.049 303.487C225.033 303.496 225.016 303.5 225 303.5C224.984 303.5 224.968 303.496 224.951 303.487Z" fill="#80FF00" fill-opacity="0.74" stroke="black"/>
<path d="M158.951 328.487C158.94 328.481 158.929 328.472 158.918 328.461L158.329 327.223L158.267 327.481C157.848 326.848 157.474 326.288 157.141 325.789C156.264 324.477 155.667 323.583 155.258 322.87C154.945 322.323 154.76 321.91 154.65 321.521C154.541 321.135 154.5 320.75 154.5 320.25C154.5 317.603 156.537 315.5 159 315.5C161.463 315.5 163.5 317.603 163.5 320.25C163.5 320.75 163.459 321.135 163.35 321.52C163.24 321.909 163.055 322.322 162.742 322.869C162.334 323.582 161.737 324.474 160.861 325.784C160.367 326.523 159.784 327.395 159.097 328.442C159.083 328.463 159.066 328.478 159.049 328.487C159.033 328.496 159.016 328.5 159 328.5C158.984 328.5 158.968 328.496 158.951 328.487Z" fill="#80FF00" fill-opacity="0.74" stroke="black"/>
<path d="M391.951 463.487C391.94 463.481 391.929 463.472 391.918 463.461L391.329 462.223L391.267 462.481C390.848 461.848 390.474 461.288 390.141 460.789C389.264 459.477 388.667 458.583 388.258 457.87C387.945 457.323 387.76 456.91 387.65 456.521C387.541 456.135 387.5 455.75 387.5 455.25C387.5 452.603 389.537 450.5 392 450.5C394.463 450.5 396.5 452.603 396.5 455.25C396.5 455.75 396.459 456.135 396.35 456.52C396.24 456.909 396.055 457.322 395.742 457.869C395.334 458.582 394.737 459.474 393.861 460.784C393.367 461.523 392.784 462.395 392.097 463.442C392.083 463.463 392.066 463.478 392.049 463.487C392.033 463.496 392.016 463.5 392 463.5C391.984 463.5 391.968 463.496 391.951 463.487Z" fill="#80FF00" fill-opacity="0.74" stroke="black"/>
<path d="M197.951 152.487C197.94 152.481 197.929 152.472 197.918 152.461L197.329 151.223L197.267 151.481C196.848 150.848 196.474 150.288 196.141 149.789C195.264 148.477 194.667 147.583 194.258 146.87C193.945 146.323 193.76 145.91 193.65 145.521C193.541 145.135 193.5 144.75 193.5 144.25C193.5 141.603 195.537 139.5 198 139.5C200.463 139.5 202.5 141.603 202.5 144.25C202.5 144.75 202.459 145.135 202.35 145.52C202.24 145.909 202.055 146.322 201.742 146.869C201.334 147.582 200.737 148.474 199.861 149.784C199.367 150.523 198.784 151.395 198.097 152.442C198.083 152.463 198.066 152.478 198.049 152.487C198.033 152.496 198.016 152.5 198 152.5C197.984 152.5 197.968 152.496 197.951 152.487Z" fill="#80FF00" fill-opacity="0.74" stroke="black"/>
<path d="M166.951 141.487C166.94 141.481 166.929 141.472 166.918 141.461L166.329 140.223L166.267 140.481C165.848 139.848 165.474 139.288 165.141 138.789C164.264 137.477 163.667 136.583 163.258 135.87C162.945 135.323 162.76 134.91 162.65 134.521C162.541 134.135 162.5 133.75 162.5 133.25C162.5 130.603 164.537 128.5 167 128.5C169.463 128.5 171.5 130.603 171.5 133.25C171.5 133.75 171.459 134.135 171.35 134.52C171.24 134.909 171.055 135.322 170.742 135.869C170.334 136.582 169.737 137.474 168.861 138.784C168.367 139.523 167.784 140.395 167.097 141.442C167.083 141.463 167.066 141.478 167.049 141.487C167.033 141.496 167.016 141.5 167 141.5C166.984 141.5 166.968 141.496 166.951 141.487Z" fill="#80FF00" fill-opacity="0.74" stroke="black"/>
<path d="M449.951 380.487C449.94 380.481 449.929 380.472 449.918 380.461L449.329 379.223L449.267 379.481C448.848 378.848 448.474 378.288 448.141 377.789C447.264 376.477 446.667 375.583 446.258 374.87C445.945 374.323 445.76 373.91 445.65 373.521C445.541 373.135 445.5 372.75 445.5 372.25C445.5 369.603 447.537 367.5 450 367.5C452.463 367.5 454.5 369.603 454.5 372.25C454.5 372.75 454.459 373.135 454.35 373.52C454.24 373.909 454.055 374.322 453.742 374.869C453.334 375.582 452.737 376.474 451.861 377.784C451.367 378.523 450.784 379.395 450.097 380.442C450.083 380.463 450.066 380.478 450.049 380.487C450.033 380.496 450.016 380.5 450 380.5C449.984 380.5 449.968 380.496 449.951 380.487Z" fill="#80FF00" fill-opacity="0.74" stroke="black"/>
<path d="M429.951 432.487C429.94 432.481 429.929 432.472 429.918 432.461L429.329 431.223L429.267 431.481C428.848 430.848 428.474 430.288 428.141 429.789C427.264 428.477 426.667 427.583 426.258 426.87C425.945 426.323 425.76 425.91 425.65 425.521C425.541 425.135 425.5 424.75 425.5 424.25C425.5 421.603 427.537 419.5 430 419.5C432.463 419.5 434.5 421.603 434.5 424.25C434.5 424.75 434.459 425.135 434.35 425.52C434.24 425.909 434.055 426.322 433.742 426.869C433.334 427.582 432.737 428.474 431.861 429.784C431.367 430.523 430.784 431.395 430.097 432.442C430.083 432.463 430.066 432.478 430.049 432.487C430.033 432.496 430.016 432.5 430 432.5C429.984 432.5 429.968 432.496 429.951 432.487Z" fill="#80FF00" fill-opacity="0.74" stroke="black"/>
<path d="M184.405 164.478C184.386 164.469 184.369 164.457 184.356 164.443L183.779 163.342L183.719 163.571C183.225 162.893 182.788 162.298 182.4 161.771C181.436 160.459 180.779 159.565 180.33 158.852C179.985 158.304 179.783 157.893 179.663 157.508C179.545 157.127 179.5 156.746 179.5 156.25C179.5 153.648 181.716 151.5 184.5 151.5C187.284 151.5 189.5 153.648 189.5 156.25C189.5 156.746 189.455 157.127 189.337 157.508C189.217 157.893 189.015 158.304 188.67 158.851C188.222 159.563 187.565 160.456 186.602 161.766C186.059 162.505 185.417 163.377 184.661 164.424C184.646 164.445 184.624 164.464 184.596 164.478C184.568 164.492 184.535 164.5 184.501 164.5C184.466 164.5 184.433 164.492 184.405 164.478Z" fill="#80FF00" fill-opacity="0.74" stroke="black"/>
<path d="M436.405 239.478C436.386 239.469 436.369 239.457 436.356 239.443L435.779 238.342L435.719 238.571C435.225 237.893 434.788 237.298 434.4 236.771C433.436 235.459 432.779 234.565 432.33 233.852C431.985 233.304 431.783 232.893 431.663 232.508C431.545 232.127 431.5 231.746 431.5 231.25C431.5 228.648 433.716 226.5 436.5 226.5C439.284 226.5 441.5 228.648 441.5 231.25C441.5 231.746 441.455 232.127 441.337 232.508C441.217 232.893 441.015 233.304 440.67 233.851C440.222 234.563 439.565 235.456 438.602 236.766C438.059 237.505 437.417 238.377 436.661 239.424C436.646 239.445 436.624 239.464 436.596 239.478C436.568 239.492 436.535 239.5 436.501 239.5C436.466 239.5 436.433 239.492 436.405 239.478Z" fill="#80FF00" fill-opacity="0.74" stroke="black"/>
<path d="M393.405 479.478C393.386 479.469 393.369 479.457 393.356 479.443L392.779 478.342L392.719 478.571C392.225 477.893 391.788 477.298 391.4 476.771C390.436 475.459 389.779 474.565 389.33 473.852C388.985 473.304 388.783 472.893 388.663 472.508C388.545 472.127 388.5 471.746 388.5 471.25C388.5 468.648 390.716 466.5 393.5 466.5C396.284 466.5 398.5 468.648 398.5 471.25C398.5 471.746 398.455 472.127 398.337 472.508C398.217 472.893 398.015 473.304 397.67 473.851C397.222 474.563 396.565 475.456 395.602 476.766C395.059 477.505 394.417 478.377 393.661 479.424C393.646 479.445 393.624 479.464 393.596 479.478C393.568 479.492 393.535 479.5 393.501 479.5C393.466 479.5 393.433 479.492 393.405 479.478Z" fill="#80FF00" fill-opacity="0.74" stroke="black"/>
<path d="M179.405 150.478C179.386 150.469 179.369 150.457 179.356 150.443L178.779 149.342L178.719 149.571C178.225 148.893 177.788 148.298 177.4 147.771C176.436 146.459 175.779 145.565 175.33 144.852C174.985 144.304 174.783 143.893 174.663 143.508C174.545 143.127 174.5 142.746 174.5 142.25C174.5 139.648 176.716 137.5 179.5 137.5C182.284 137.5 184.5 139.648 184.5 142.25C184.5 142.746 184.455 143.127 184.337 143.508C184.217 143.893 184.015 144.304 183.67 144.851C183.222 145.563 182.565 146.456 181.602 147.766C181.059 148.505 180.417 149.377 179.661 150.424C179.646 150.445 179.624 150.464 179.596 150.478C179.568 150.492 179.535 150.5 179.501 150.5C179.466 150.5 179.433 150.492 179.405 150.478Z" fill="#80FF00" fill-opacity="0.74" stroke="black"/>
<path d="M440.405 422.478C440.386 422.469 440.369 422.457 440.356 422.443L439.779 421.342L439.719 421.571C439.225 420.893 438.788 420.298 438.4 419.771C437.436 418.459 436.779 417.565 436.33 416.852C435.985 416.304 435.783 415.893 435.663 415.508C435.545 415.127 435.5 414.746 435.5 414.25C435.5 411.648 437.716 409.5 440.5 409.5C443.284 409.5 445.5 411.648 445.5 414.25C445.5 414.746 445.455 415.127 445.337 415.508C445.217 415.893 445.015 416.304 444.67 416.851C444.222 417.563 443.565 418.456 442.602 419.766C442.059 420.505 441.417 421.377 440.661 422.424C440.646 422.445 440.624 422.464 440.596 422.478C440.568 422.492 440.535 422.5 440.501 422.5C440.466 422.5 440.433 422.492 440.405 422.478Z" fill="#80FF00" fill-opacity="0.74" stroke="black"/>
<path d="M430.405 439.478C430.386 439.469 430.369 439.457 430.356 439.443L429.779 438.342L429.719 438.571C429.225 437.893 428.788 437.298 428.4 436.771C427.436 435.459 426.779 434.565 426.33 433.852C425.985 433.304 425.783 432.893 425.663 432.508C425.545 432.127 425.5 431.746 425.5 431.25C425.5 428.648 427.716 426.5 430.5 426.5C433.284 426.5 435.5 428.648 435.5 431.25C435.5 431.746 435.455 432.127 435.337 432.508C435.217 432.893 435.015 433.304 434.67 433.851C434.222 434.563 433.565 435.456 432.602 436.766C432.059 437.505 431.417 438.377 430.661 439.424C430.646 439.445 430.624 439.464 430.596 439.478C430.568 439.492 430.535 439.5 430.501 439.5C430.466 439.5 430.433 439.492 430.405 439.478Z" fill="#80FF00" fill-opacity="0.74" stroke="black"/>
<path d="M173.951 136.487C173.94 136.481 173.929 136.472 173.918 136.461L173.329 135.223L173.267 135.481C172.848 134.848 172.474 134.288 172.141 133.789C171.264 132.477 170.667 131.583 170.258 130.87C169.945 130.323 169.76 129.91 169.65 129.521C169.541 129.135 169.5 128.75 169.5 128.25C169.5 125.603 171.537 123.5 174 123.5C176.463 123.5 178.5 125.603 178.5 128.25C178.5 128.75 178.459 129.135 178.35 129.52C178.24 129.909 178.055 130.322 177.742 130.869C177.334 131.582 176.737 132.474 175.861 133.784C175.367 134.523 174.784 135.395 174.097 136.442C174.083 136.463 174.066 136.478 174.049 136.487C174.033 136.496 174.016 136.5 174 136.5C173.984 136.5 173.968 136.496 173.951 136.487Z" fill="#80FF00" fill-opacity="0.74" stroke="black"/>
<path d="M345.951 399.487C345.94 399.481 345.929 399.472 345.918 399.461L345.329 398.223L345.267 398.481C344.848 397.848 344.474 397.288 344.141 396.789C343.264 395.477 342.667 394.583 342.258 393.87C341.945 393.323 341.76 392.91 341.65 392.521C341.541 392.135 341.5 391.75 341.5 391.25C341.5 388.603 343.537 386.5 346 386.5C348.463 386.5 350.5 388.603 350.5 391.25C350.5 391.75 350.459 392.135 350.35 392.52C350.24 392.909 350.055 393.322 349.742 393.869C349.334 394.582 348.737 395.474 347.861 396.784C347.367 397.523 346.784 398.395 346.097 399.442C346.083 399.463 346.066 399.478 346.049 399.487C346.033 399.496 346.016 399.5 346 399.5C345.984 399.5 345.968 399.496 345.951 399.487Z" fill="#80FF00" fill-opacity="0.74" stroke="black"/>
<path d="M201.951 426.487C201.94 426.481 201.929 426.472 201.918 426.461L201.329 425.223L201.267 425.481C200.848 424.848 200.474 424.288 200.141 423.789C199.264 422.477 198.667 421.583 198.258 420.87C197.945 420.323 197.76 419.91 197.65 419.521C197.541 419.135 197.5 418.75 197.5 418.25C197.5 415.603 199.537 413.5 202 413.5C204.463 413.5 206.5 415.603 206.5 418.25C206.5 418.75 206.459 419.135 206.35 419.52C206.24 419.909 206.055 420.322 205.742 420.869C205.334 421.582 204.737 422.474 203.861 423.784C203.367 424.523 202.784 425.395 202.097 426.442C202.083 426.463 202.066 426.478 202.049 426.487C202.033 426.496 202.016 426.5 202 426.5C201.984 426.5 201.968 426.496 201.951 426.487Z" fill="#80FF00" fill-opacity="0.74" stroke="black"/>
<path d="M302.951 127.487C302.94 127.481 302.929 127.472 302.918 127.461L302.329 126.223L302.267 126.481C301.848 125.848 301.474 125.288 301.141 124.789C300.264 123.477 299.667 122.583 299.258 121.87C298.945 121.323 298.76 120.91 298.65 120.521C298.541 120.135 298.5 119.75 298.5 119.25C298.5 116.603 300.537 114.5 303 114.5C305.463 114.5 307.5 116.603 307.5 119.25C307.5 119.75 307.459 120.135 307.35 120.52C307.24 120.909 307.055 121.322 306.742 121.869C306.334 122.582 305.737 123.474 304.861 124.784C304.367 125.523 303.784 126.395 303.097 127.442C303.083 127.463 303.066 127.478 303.049 127.487C303.033 127.496 303.016 127.5 303 127.5C302.984 127.5 302.968 127.496 302.951 127.487Z" fill="#80FF00" fill-opacity="0.74" stroke="black"/>
<path d="M256.951 275.487C256.94 275.481 256.929 275.472 256.918 275.461L256.329 274.223L256.267 274.481C255.848 273.848 255.474 273.288 255.141 272.789C254.264 271.477 253.667 270.583 253.258 269.87C252.945 269.323 252.76 268.91 252.65 268.521C252.541 268.135 252.5 267.75 252.5 267.25C252.5 264.603 254.537 262.5 257 262.5C259.463 262.5 261.5 264.603 261.5 267.25C261.5 267.75 261.459 268.135 261.35 268.52C261.24 268.909 261.055 269.322 260.742 269.869C260.334 270.582 259.737 271.474 258.861 272.784C258.367 273.523 257.784 274.395 257.097 275.442C257.083 275.463 257.066 275.478 257.049 275.487C257.033 275.496 257.016 275.5 257 275.5C256.984 275.5 256.968 275.496 256.951 275.487Z" fill="#80FF00" fill-opacity="0.74" stroke="black"/>
<path d="M161.951 485.487C161.94 485.481 161.929 485.472 161.918 485.461L161.329 484.223L161.267 484.481C160.848 483.848 160.474 483.288 160.141 482.789C159.264 481.477 158.667 480.583 158.258 479.87C157.945 479.323 157.76 478.91 157.65 478.521C157.541 478.135 157.5 477.75 157.5 477.25C157.5 474.603 159.537 472.5 162 472.5C164.463 472.5 166.5 474.603 166.5 477.25C166.5 477.75 166.459 478.135 166.35 478.52C166.24 478.909 166.055 479.322 165.742 479.869C165.334 480.582 164.737 481.474 163.861 482.784C163.367 483.523 162.784 484.395 162.097 485.442C162.083 485.463 162.066 485.478 162.049 485.487C162.033 485.496 162.016 485.5 162 485.5C161.984 485.5 161.968 485.496 161.951 485.487Z" fill="#80FF00" fill-opacity="0.74" stroke="black"/>
<path d="M227.951 329.487C227.94 329.481 227.929 329.472 227.918 329.461L227.329 328.223L227.267 328.481C226.848 327.848 226.474 327.288 226.141 326.789C225.264 325.477 224.667 324.583 224.258 323.87C223.945 323.323 223.76 322.91 223.65 322.521C223.541 322.135 223.5 321.75 223.5 321.25C223.5 318.603 225.537 316.5 228 316.5C230.463 316.5 232.5 318.603 232.5 321.25C232.5 321.75 232.459 322.135 232.35 322.52C232.24 322.909 232.055 323.322 231.742 323.869C231.334 324.582 230.737 325.474 229.861 326.784C229.367 327.523 228.784 328.395 228.097 329.442C228.083 329.463 228.066 329.478 228.049 329.487C228.033 329.496 228.016 329.5 228 329.5C227.984 329.5 227.968 329.496 227.951 329.487Z" fill="#80FF00" fill-opacity="0.74" stroke="black"/>
<path d="M202.951 284.487C202.94 284.481 202.929 284.472 202.918 284.461L202.329 283.223L202.267 283.481C201.848 282.848 201.474 282.288 201.141 281.789C200.264 280.477 199.667 279.583 199.258 278.87C198.945 278.323 198.76 277.91 198.65 277.521C198.541 277.135 198.5 276.75 198.5 276.25C198.5 273.603 200.537 271.5 203 271.5C205.463 271.5 207.5 273.603 207.5 276.25C207.5 276.75 207.459 277.135 207.35 277.52C207.24 277.909 207.055 278.322 206.742 278.869C206.334 279.582 205.737 280.474 204.861 281.784C204.367 282.523 203.784 283.395 203.097 284.442C203.083 284.463 203.066 284.478 203.049 284.487C203.033 284.496 203.016 284.5 203 284.5C202.984 284.5 202.968 284.496 202.951 284.487Z" fill="#80FF00" fill-opacity="0.74" stroke="black"/>
<path d="M218.951 199.487C218.94 199.481 218.929 199.472 218.918 199.461L218.329 198.223L218.267 198.481C217.848 197.848 217.474 197.288 217.141 196.789C216.264 195.477 215.667 194.583 215.258 193.87C214.945 193.323 214.76 192.91 214.65 192.521C214.541 192.135 214.5 191.75 214.5 191.25C214.5 188.603 216.537 186.5 219 186.5C221.463 186.5 223.5 188.603 223.5 191.25C223.5 191.75 223.459 192.135 223.35 192.52C223.24 192.909 223.055 193.322 222.742 193.869C222.334 194.582 221.737 195.474 220.861 196.784C220.367 197.523 219.784 198.395 219.097 199.442C219.083 199.463 219.066 199.478 219.049 199.487C219.033 199.496 219.016 199.5 219 199.5C218.984 199.5 218.968 199.496 218.951 199.487Z" fill="#80FF00" fill-opacity="0.74" stroke="black"/>
<path d="M159.951 263.487C159.94 263.481 159.929 263.472 159.918 263.461L159.329 262.223L159.267 262.481C158.848 261.848 158.474 261.288 158.141 260.789C157.264 259.477 156.667 258.583 156.258 257.87C155.945 257.323 155.76 256.91 155.65 256.521C155.541 256.135 155.5 255.75 155.5 255.25C155.5 252.603 157.537 250.5 160 250.5C162.463 250.5 164.5 252.603 164.5 255.25C164.5 255.75 164.459 256.135 164.35 256.52C164.24 256.909 164.055 257.322 163.742 257.869C163.334 258.582 162.737 259.474 161.861 260.784C161.367 261.523 160.784 262.395 160.097 263.442C160.083 263.463 160.066 263.478 160.049 263.487C160.033 263.496 160.016 263.5 160 263.5C159.984 263.5 159.968 263.496 159.951 263.487Z" fill="#80FF00" fill-opacity="0.74" stroke="black"/>
<path d="M164.951 277.487C164.94 277.481 164.929 277.472 164.918 277.461L164.329 276.223L164.267 276.481C163.848 275.848 163.474 275.288 163.141 274.789C162.264 273.477 161.667 272.583 161.258 271.87C160.945 271.323 160.76 270.91 160.65 270.521C160.541 270.135 160.5 269.75 160.5 269.25C160.5 266.603 162.537 264.5 165 264.5C167.463 264.5 169.5 266.603 169.5 269.25C169.5 269.75 169.459 270.135 169.35 270.52C169.24 270.909 169.055 271.322 168.742 271.869C168.334 272.582 167.737 273.474 166.861 274.784C166.367 275.523 165.784 276.395 165.097 277.442C165.083 277.463 165.066 277.478 165.049 277.487C165.033 277.496 165.016 277.5 165 277.5C164.984 277.5 164.968 277.496 164.951 277.487Z" fill="#80FF00" fill-opacity="0.74" stroke="black"/>
<path d="M208.951 291.487C208.94 291.481 208.929 291.472 208.918 291.461L208.329 290.223L208.267 290.481C207.848 289.848 207.474 289.288 207.141 288.789C206.264 287.477 205.667 286.583 205.258 285.87C204.945 285.323 204.76 284.91 204.65 284.521C204.541 284.135 204.5 283.75 204.5 283.25C204.5 280.603 206.537 278.5 209 278.5C211.463 278.5 213.5 280.603 213.5 283.25C213.5 283.75 213.459 284.135 213.35 284.52C213.24 284.909 213.055 285.322 212.742 285.869C212.334 286.582 211.737 287.474 210.861 288.784C210.367 289.523 209.784 290.395 209.097 291.442C209.083 291.463 209.066 291.478 209.049 291.487C209.033 291.496 209.016 291.5 209 291.5C208.984 291.5 208.968 291.496 208.951 291.487Z" fill="#80FF00" fill-opacity="0.74" stroke="black"/>
<path d="M219.951 319.487C219.94 319.481 219.929 319.472 219.918 319.461L219.329 318.223L219.267 318.481C218.848 317.848 218.474 317.288 218.141 316.789C217.264 315.477 216.667 314.583 216.258 313.87C215.945 313.323 215.76 312.91 215.65 312.521C215.541 312.135 215.5 311.75 215.5 311.25C215.5 308.603 217.537 306.5 220 306.5C222.463 306.5 224.5 308.603 224.5 311.25C224.5 311.75 224.459 312.135 224.35 312.52C224.24 312.909 224.055 313.322 223.742 313.869C223.334 314.582 222.737 315.474 221.861 316.784C221.367 317.523 220.784 318.395 220.097 319.442C220.083 319.463 220.066 319.478 220.049 319.487C220.033 319.496 220.016 319.5 220 319.5C219.984 319.5 219.968 319.496 219.951 319.487Z" fill="#80FF00" fill-opacity="0.74" stroke="black"/>
<path d="M249.951 263.487C249.94 263.481 249.929 263.472 249.918 263.461L249.329 262.223L249.267 262.481C248.848 261.848 248.474 261.288 248.141 260.789C247.264 259.477 246.667 258.583 246.258 257.87C245.945 257.323 245.76 256.91 245.65 256.521C245.541 256.135 245.5 255.75 245.5 255.25C245.5 252.603 247.537 250.5 250 250.5C252.463 250.5 254.5 252.603 254.5 255.25C254.5 255.75 254.459 256.135 254.35 256.52C254.24 256.909 254.055 257.322 253.742 257.869C253.334 258.582 252.737 259.474 251.861 260.784C251.367 261.523 250.784 262.395 250.097 263.442C250.083 263.463 250.066 263.478 250.049 263.487C250.033 263.496 250.016 263.5 250 263.5C249.984 263.5 249.968 263.496 249.951 263.487Z" fill="#80FF00" fill-opacity="0.74" stroke="black"/>
<path d="M309.951 95.4871C309.94 95.481 309.929 95.4724 309.918 95.4612L309.329 94.223L309.267 94.4805C308.848 93.8476 308.474 93.2883 308.141 92.7894C307.264 91.4771 306.667 90.5833 306.258 89.8697C305.945 89.3225 305.76 88.9096 305.65 88.5206C305.541 88.1349 305.5 87.7496 305.5 87.25C305.5 84.6031 307.537 82.5 310 82.5C312.463 82.5 314.5 84.6031 314.5 87.25C314.5 87.7496 314.459 88.1348 314.35 88.5203C314.24 88.9092 314.055 89.322 313.742 89.8689C313.334 90.5816 312.737 91.4741 311.861 92.7842C311.367 93.5232 310.784 94.3951 310.097 95.4425C310.083 95.4632 310.066 95.4778 310.049 95.4869C310.033 95.496 310.016 95.5 310 95.5C309.984 95.5 309.968 95.4961 309.951 95.4871Z" fill="#80FF00" fill-opacity="0.74" stroke="black"/>
<path d="M322.951 120.487C322.94 120.481 322.929 120.472 322.918 120.461L322.329 119.223L322.267 119.481C321.848 118.848 321.474 118.288 321.141 117.789C320.264 116.477 319.667 115.583 319.258 114.87C318.945 114.323 318.76 113.91 318.65 113.521C318.541 113.135 318.5 112.75 318.5 112.25C318.5 109.603 320.537 107.5 323 107.5C325.463 107.5 327.5 109.603 327.5 112.25C327.5 112.75 327.459 113.135 327.35 113.52C327.24 113.909 327.055 114.322 326.742 114.869C326.334 115.582 325.737 116.474 324.861 117.784C324.367 118.523 323.784 119.395 323.097 120.442C323.083 120.463 323.066 120.478 323.049 120.487C323.033 120.496 323.016 120.5 323 120.5C322.984 120.5 322.968 120.496 322.951 120.487Z" fill="#80FF00" fill-opacity="0.74" stroke="black"/>
<path d="M349.951 81.4871C349.94 81.481 349.929 81.4724 349.918 81.4612L349.329 80.223L349.267 80.4805C348.848 79.8476 348.474 79.2883 348.141 78.7894C347.264 77.4771 346.667 76.5833 346.258 75.8697C345.945 75.3225 345.76 74.9096 345.65 74.5206C345.541 74.1349 345.5 73.7496 345.5 73.25C345.5 70.6031 347.537 68.5 350 68.5C352.463 68.5 354.5 70.6031 354.5 73.25C354.5 73.7496 354.459 74.1348 354.35 74.5203C354.24 74.9092 354.055 75.322 353.742 75.8689C353.334 76.5816 352.737 77.4741 351.861 78.7842C351.367 79.5232 350.784 80.3951 350.097 81.4425C350.083 81.4632 350.066 81.4778 350.049 81.4869C350.033 81.496 350.016 81.5 350 81.5C349.984 81.5 349.968 81.4961 349.951 81.4871Z" fill="#80FF00" fill-opacity="0.74" stroke="black"/>
<path d="M397.951 142.487C397.94 142.481 397.929 142.472 397.918 142.461L397.329 141.223L397.267 141.481C396.848 140.848 396.474 140.288 396.141 139.789C395.264 138.477 394.667 137.583 394.258 136.87C393.945 136.323 393.76 135.91 393.65 135.521C393.541 135.135 393.5 134.75 393.5 134.25C393.5 131.603 395.537 129.5 398 129.5C400.463 129.5 402.5 131.603 402.5 134.25C402.5 134.75 402.459 135.135 402.35 135.52C402.24 135.909 402.055 136.322 401.742 136.869C401.334 137.582 400.737 138.474 399.861 139.784C399.367 140.523 398.784 141.395 398.097 142.442C398.083 142.463 398.066 142.478 398.049 142.487C398.033 142.496 398.016 142.5 398 142.5C397.984 142.5 397.968 142.496 397.951 142.487Z" fill="#80FF00" fill-opacity="0.74" stroke="black"/>
<path d="M198.405 164.478C198.386 164.469 198.369 164.457 198.356 164.443L197.779 163.342L197.719 163.571C197.225 162.893 196.788 162.298 196.4 161.771C195.436 160.459 194.779 159.565 194.33 158.852C193.985 158.304 193.783 157.893 193.663 157.508C193.545 157.127 193.5 156.746 193.5 156.25C193.5 153.648 195.716 151.5 198.5 151.5C201.284 151.5 203.5 153.648 203.5 156.25C203.5 156.746 203.455 157.127 203.337 157.508C203.217 157.893 203.015 158.304 202.67 158.851C202.222 159.563 201.565 160.456 200.602 161.766C200.059 162.505 199.417 163.377 198.661 164.424C198.646 164.445 198.624 164.464 198.596 164.478C198.568 164.492 198.535 164.5 198.501 164.5C198.466 164.5 198.433 164.492 198.405 164.478Z" fill="#80FF00" fill-opacity="0.74" stroke="black"/>
<path d="M195.405 164.478C195.386 164.469 195.369 164.457 195.356 164.443L194.779 163.342L194.719 163.571C194.225 162.893 193.788 162.298 193.4 161.771C192.436 160.459 191.779 159.565 191.33 158.852C190.985 158.304 190.783 157.893 190.663 157.508C190.545 157.127 190.5 156.746 190.5 156.25C190.5 153.648 192.716 151.5 195.5 151.5C198.284 151.5 200.5 153.648 200.5 156.25C200.5 156.746 200.455 157.127 200.337 157.508C200.217 157.893 200.015 158.304 199.67 158.851C199.222 159.563 198.565 160.456 197.602 161.766C197.059 162.505 196.417 163.377 195.661 164.424C195.646 164.445 195.624 164.464 195.596 164.478C195.568 164.492 195.535 164.5 195.501 164.5C195.466 164.5 195.433 164.492 195.405 164.478Z" fill="#80FF00" fill-opacity="0.74" stroke="black"/>
<path d="M189.951 178.487C189.94 178.481 189.929 178.472 189.918 178.461L189.329 177.223L189.267 177.481C188.848 176.848 188.474 176.288 188.141 175.789C187.264 174.477 186.667 173.583 186.258 172.87C185.945 172.323 185.76 171.91 185.65 171.521C185.541 171.135 185.5 170.75 185.5 170.25C185.5 167.603 187.537 165.5 190 165.5C192.463 165.5 194.5 167.603 194.5 170.25C194.5 170.75 194.459 171.135 194.35 171.52C194.24 171.909 194.055 172.322 193.742 172.869C193.334 173.582 192.737 174.474 191.861 175.784C191.367 176.523 190.784 177.395 190.097 178.442C190.083 178.463 190.066 178.478 190.049 178.487C190.033 178.496 190.016 178.5 190 178.5C189.984 178.5 189.968 178.496 189.951 178.487Z" fill="#80FF00" fill-opacity="0.74" stroke="black"/>
<path d="M192.951 211.487C192.94 211.481 192.929 211.472 192.918 211.461L192.329 210.223L192.267 210.481C191.848 209.848 191.474 209.288 191.141 208.789C190.264 207.477 189.667 206.583 189.258 205.87C188.945 205.323 188.76 204.91 188.65 204.521C188.541 204.135 188.5 203.75 188.5 203.25C188.5 200.603 190.537 198.5 193 198.5C195.463 198.5 197.5 200.603 197.5 203.25C197.5 203.75 197.459 204.135 197.35 204.52C197.24 204.909 197.055 205.322 196.742 205.869C196.334 206.582 195.737 207.474 194.861 208.784C194.367 209.523 193.784 210.395 193.097 211.442C193.083 211.463 193.066 211.478 193.049 211.487C193.033 211.496 193.016 211.5 193 211.5C192.984 211.5 192.968 211.496 192.951 211.487Z" fill="#01DCFA" fill-opacity="0.77" stroke="black"/>
<path d="M185.951 141.487C185.94 141.481 185.929 141.472 185.918 141.461L185.329 140.223L185.267 140.481C184.848 139.848 184.474 139.288 184.141 138.789C183.264 137.477 182.667 136.583 182.258 135.87C181.945 135.323 181.76 134.91 181.65 134.521C181.541 134.135 181.5 133.75 181.5 133.25C181.5 130.603 183.537 128.5 186 128.5C188.463 128.5 190.5 130.603 190.5 133.25C190.5 133.75 190.459 134.135 190.35 134.52C190.24 134.909 190.055 135.322 189.742 135.869C189.334 136.582 188.737 137.474 187.861 138.784C187.367 139.523 186.784 140.395 186.097 141.442C186.083 141.463 186.066 141.478 186.049 141.487C186.033 141.496 186.016 141.5 186 141.5C185.984 141.5 185.968 141.496 185.951 141.487Z" fill="#01DCFA" fill-opacity="0.77" stroke="black"/>
<path d="M168.951 152.487C168.94 152.481 168.929 152.472 168.918 152.461L168.329 151.223L168.267 151.481C167.848 150.848 167.474 150.288 167.141 149.789C166.264 148.477 165.667 147.583 165.258 146.87C164.945 146.323 164.76 145.91 164.65 145.521C164.541 145.135 164.5 144.75 164.5 144.25C164.5 141.603 166.537 139.5 169 139.5C171.463 139.5 173.5 141.603 173.5 144.25C173.5 144.75 173.459 145.135 173.35 145.52C173.24 145.909 173.055 146.322 172.742 146.869C172.334 147.582 171.737 148.474 170.861 149.784C170.367 150.523 169.784 151.395 169.097 152.442C169.083 152.463 169.066 152.478 169.049 152.487C169.033 152.496 169.016 152.5 169 152.5C168.984 152.5 168.968 152.496 168.951 152.487Z" fill="#01DCFA" fill-opacity="0.77" stroke="black"/>
<path d="M312.951 101.487C312.94 101.481 312.929 101.472 312.918 101.461L312.329 100.223L312.267 100.481C311.848 99.8476 311.474 99.2883 311.141 98.7894C310.264 97.4771 309.667 96.5833 309.258 95.8697C308.945 95.3225 308.76 94.9096 308.65 94.5206C308.541 94.1349 308.5 93.7496 308.5 93.25C308.5 90.6031 310.537 88.5 313 88.5C315.463 88.5 317.5 90.6031 317.5 93.25C317.5 93.7496 317.459 94.1348 317.35 94.5203C317.24 94.9092 317.055 95.322 316.742 95.8689C316.334 96.5816 315.737 97.4741 314.861 98.7842C314.367 99.5232 313.784 100.395 313.097 101.442C313.083 101.463 313.066 101.478 313.049 101.487C313.033 101.496 313.016 101.5 313 101.5C312.984 101.5 312.968 101.496 312.951 101.487Z" fill="#01DCFA" fill-opacity="0.77" stroke="black"/>
<path d="M111.951 159.487C111.94 159.481 111.929 159.472 111.918 159.461L111.329 158.223L111.267 158.481C110.848 157.848 110.474 157.288 110.141 156.789C109.264 155.477 108.667 154.583 108.258 153.87C107.945 153.323 107.76 152.91 107.65 152.521C107.541 152.135 107.5 151.75 107.5 151.25C107.5 148.603 109.537 146.5 112 146.5C114.463 146.5 116.5 148.603 116.5 151.25C116.5 151.75 116.459 152.135 116.35 152.52C116.24 152.909 116.055 153.322 115.742 153.869C115.334 154.582 114.737 155.474 113.861 156.784C113.367 157.523 112.784 158.395 112.097 159.442C112.083 159.463 112.066 159.478 112.049 159.487C112.033 159.496 112.016 159.5 112 159.5C111.984 159.5 111.968 159.496 111.951 159.487Z" fill="#01DCFA" fill-opacity="0.77" stroke="black"/>
<path d="M143.951 155.487C143.94 155.481 143.929 155.472 143.918 155.461L143.329 154.223L143.267 154.481C142.848 153.848 142.474 153.288 142.141 152.789C141.264 151.477 140.667 150.583 140.258 149.87C139.945 149.323 139.76 148.91 139.65 148.521C139.541 148.135 139.5 147.75 139.5 147.25C139.5 144.603 141.537 142.5 144 142.5C146.463 142.5 148.5 144.603 148.5 147.25C148.5 147.75 148.459 148.135 148.35 148.52C148.24 148.909 148.055 149.322 147.742 149.869C147.334 150.582 146.737 151.474 145.861 152.784C145.367 153.523 144.784 154.395 144.097 155.442C144.083 155.463 144.066 155.478 144.049 155.487C144.033 155.496 144.016 155.5 144 155.5C143.984 155.5 143.968 155.496 143.951 155.487Z" fill="#01DCFA" fill-opacity="0.77" stroke="black"/>
<path d="M207.951 408.487C207.94 408.481 207.929 408.472 207.918 408.461L207.329 407.223L207.267 407.481C206.848 406.848 206.474 406.288 206.141 405.789C205.264 404.477 204.667 403.583 204.258 402.87C203.945 402.323 203.76 401.91 203.65 401.521C203.541 401.135 203.5 400.75 203.5 400.25C203.5 397.603 205.537 395.5 208 395.5C210.463 395.5 212.5 397.603 212.5 400.25C212.5 400.75 212.459 401.135 212.35 401.52C212.24 401.909 212.055 402.322 211.742 402.869C211.334 403.582 210.737 404.474 209.861 405.784C209.367 406.523 208.784 407.395 208.097 408.442C208.083 408.463 208.066 408.478 208.049 408.487C208.033 408.496 208.016 408.5 208 408.5C207.984 408.5 207.968 408.496 207.951 408.487Z" fill="#01DCFA" fill-opacity="0.77" stroke="black"/>
<path d="M143.951 661.487C143.94 661.481 143.929 661.472 143.918 661.461L143.329 660.223L143.267 660.481C142.848 659.848 142.474 659.288 142.141 658.789C141.264 657.477 140.667 656.583 140.258 655.87C139.945 655.323 139.76 654.91 139.65 654.521C139.541 654.135 139.5 653.75 139.5 653.25C139.5 650.603 141.537 648.5 144 648.5C146.463 648.5 148.5 650.603 148.5 653.25C148.5 653.75 148.459 654.135 148.35 654.52C148.24 654.909 148.055 655.322 147.742 655.869C147.334 656.582 146.737 657.474 145.861 658.784C145.367 659.523 144.784 660.395 144.097 661.442C144.083 661.463 144.066 661.478 144.049 661.487C144.033 661.496 144.016 661.5 144 661.5C143.984 661.5 143.968 661.496 143.951 661.487Z" fill="#01DCFA" fill-opacity="0.77" stroke="black"/>
<path d="M161.951 470.487C161.94 470.481 161.929 470.472 161.918 470.461L161.329 469.223L161.267 469.481C160.848 468.848 160.474 468.288 160.141 467.789C159.264 466.477 158.667 465.583 158.258 464.87C157.945 464.323 157.76 463.91 157.65 463.521C157.541 463.135 157.5 462.75 157.5 462.25C157.5 459.603 159.537 457.5 162 457.5C164.463 457.5 166.5 459.603 166.5 462.25C166.5 462.75 166.459 463.135 166.35 463.52C166.24 463.909 166.055 464.322 165.742 464.869C165.334 465.582 164.737 466.474 163.861 467.784C163.367 468.523 162.784 469.395 162.097 470.442C162.083 470.463 162.066 470.478 162.049 470.487C162.033 470.496 162.016 470.5 162 470.5C161.984 470.5 161.968 470.496 161.951 470.487Z" fill="#01DCFA" fill-opacity="0.77" stroke="black"/>
<path d="M309.951 471.487C309.94 471.481 309.929 471.472 309.918 471.461L309.329 470.223L309.267 470.481C308.848 469.848 308.474 469.288 308.141 468.789C307.264 467.477 306.667 466.583 306.258 465.87C305.945 465.323 305.76 464.91 305.65 464.521C305.541 464.135 305.5 463.75 305.5 463.25C305.5 460.603 307.537 458.5 310 458.5C312.463 458.5 314.5 460.603 314.5 463.25C314.5 463.75 314.459 464.135 314.35 464.52C314.24 464.909 314.055 465.322 313.742 465.869C313.334 466.582 312.737 467.474 311.861 468.784C311.367 469.523 310.784 470.395 310.097 471.442C310.083 471.463 310.066 471.478 310.049 471.487C310.033 471.496 310.016 471.5 310 471.5C309.984 471.5 309.968 471.496 309.951 471.487Z" fill="#01DCFA" fill-opacity="0.77" stroke="black"/>
<path d="M396.951 465.487C396.94 465.481 396.929 465.472 396.918 465.461L396.329 464.223L396.267 464.481C395.848 463.848 395.474 463.288 395.141 462.789C394.264 461.477 393.667 460.583 393.258 459.87C392.945 459.323 392.76 458.91 392.65 458.521C392.541 458.135 392.5 457.75 392.5 457.25C392.5 454.603 394.537 452.5 397 452.5C399.463 452.5 401.5 454.603 401.5 457.25C401.5 457.75 401.459 458.135 401.35 458.52C401.24 458.909 401.055 459.322 400.742 459.869C400.334 460.582 399.737 461.474 398.861 462.784C398.367 463.523 397.784 464.395 397.097 465.442C397.083 465.463 397.066 465.478 397.049 465.487C397.033 465.496 397.016 465.5 397 465.5C396.984 465.5 396.968 465.496 396.951 465.487Z" fill="#01DCFA" fill-opacity="0.77" stroke="black"/>
<path d="M417.951 429.487C417.94 429.481 417.929 429.472 417.918 429.461L417.329 428.223L417.267 428.481C416.848 427.848 416.474 427.288 416.141 426.789C415.264 425.477 414.667 424.583 414.258 423.87C413.945 423.323 413.76 422.91 413.65 422.521C413.541 422.135 413.5 421.75 413.5 421.25C413.5 418.603 415.537 416.5 418 416.5C420.463 416.5 422.5 418.603 422.5 421.25C422.5 421.75 422.459 422.135 422.35 422.52C422.24 422.909 422.055 423.322 421.742 423.869C421.334 424.582 420.737 425.474 419.861 426.784C419.367 427.523 418.784 428.395 418.097 429.442C418.083 429.463 418.066 429.478 418.049 429.487C418.033 429.496 418.016 429.5 418 429.5C417.984 429.5 417.968 429.496 417.951 429.487Z" fill="#01DCFA" fill-opacity="0.77" stroke="black"/>
<path d="M449.951 362.487C449.94 362.481 449.929 362.472 449.918 362.461L449.329 361.223L449.267 361.481C448.848 360.848 448.474 360.288 448.141 359.789C447.264 358.477 446.667 357.583 446.258 356.87C445.945 356.323 445.76 355.91 445.65 355.521C445.541 355.135 445.5 354.75 445.5 354.25C445.5 351.603 447.537 349.5 450 349.5C452.463 349.5 454.5 351.603 454.5 354.25C454.5 354.75 454.459 355.135 454.35 355.52C454.24 355.909 454.055 356.322 453.742 356.869C453.334 357.582 452.737 358.474 451.861 359.784C451.367 360.523 450.784 361.395 450.097 362.442C450.083 362.463 450.066 362.478 450.049 362.487C450.033 362.496 450.016 362.5 450 362.5C449.984 362.5 449.968 362.496 449.951 362.487Z" fill="#01DCFA" fill-opacity="0.77" stroke="black"/>
<path d="M439.951 280.487C439.94 280.481 439.929 280.472 439.918 280.461L439.329 279.223L439.267 279.481C438.848 278.848 438.474 278.288 438.141 277.789C437.264 276.477 436.667 275.583 436.258 274.87C435.945 274.323 435.76 273.91 435.65 273.521C435.541 273.135 435.5 272.75 435.5 272.25C435.5 269.603 437.537 267.5 440 267.5C442.463 267.5 444.5 269.603 444.5 272.25C444.5 272.75 444.459 273.135 444.35 273.52C444.24 273.909 444.055 274.322 443.742 274.869C443.334 275.582 442.737 276.474 441.861 277.784C441.367 278.523 440.784 279.395 440.097 280.442C440.083 280.463 440.066 280.478 440.049 280.487C440.033 280.496 440.016 280.5 440 280.5C439.984 280.5 439.968 280.496 439.951 280.487Z" fill="#01DCFA" fill-opacity="0.77" stroke="black"/>
<path d="M397.951 134.487C397.94 134.481 397.929 134.472 397.918 134.461L397.329 133.223L397.267 133.481C396.848 132.848 396.474 132.288 396.141 131.789C395.264 130.477 394.667 129.583 394.258 128.87C393.945 128.323 393.76 127.91 393.65 127.521C393.541 127.135 393.5 126.75 393.5 126.25C393.5 123.603 395.537 121.5 398 121.5C400.463 121.5 402.5 123.603 402.5 126.25C402.5 126.75 402.459 127.135 402.35 127.52C402.24 127.909 402.055 128.322 401.742 128.869C401.334 129.582 400.737 130.474 399.861 131.784C399.367 132.523 398.784 133.395 398.097 134.442C398.083 134.463 398.066 134.478 398.049 134.487C398.033 134.496 398.016 134.5 398 134.5C397.984 134.5 397.968 134.496 397.951 134.487Z" fill="#01DCFA" fill-opacity="0.77" stroke="black"/>
<path d="M360.951 81.4871C360.94 81.481 360.929 81.4724 360.918 81.4612L360.329 80.223L360.267 80.4805C359.848 79.8476 359.474 79.2883 359.141 78.7894C358.264 77.4771 357.667 76.5833 357.258 75.8697C356.945 75.3225 356.76 74.9096 356.65 74.5206C356.541 74.1349 356.5 73.7496 356.5 73.25C356.5 70.6031 358.537 68.5 361 68.5C363.463 68.5 365.5 70.6031 365.5 73.25C365.5 73.7496 365.459 74.1348 365.35 74.5203C365.24 74.9092 365.055 75.322 364.742 75.8689C364.334 76.5816 363.737 77.4741 362.861 78.7842C362.367 79.5232 361.784 80.3951 361.097 81.4425C361.083 81.4632 361.066 81.4778 361.049 81.4869C361.033 81.496 361.016 81.5 361 81.5C360.984 81.5 360.968 81.4961 360.951 81.4871Z" fill="#01DCFA" fill-opacity="0.77" stroke="black"/>
<path d="M215.951 289.487C215.94 289.481 215.929 289.472 215.918 289.461L215.329 288.223L215.267 288.481C214.848 287.848 214.474 287.288 214.141 286.789C213.264 285.477 212.667 284.583 212.258 283.87C211.945 283.323 211.76 282.91 211.65 282.521C211.541 282.135 211.5 281.75 211.5 281.25C211.5 278.603 213.537 276.5 216 276.5C218.463 276.5 220.5 278.603 220.5 281.25C220.5 281.75 220.459 282.135 220.35 282.52C220.24 282.909 220.055 283.322 219.742 283.869C219.334 284.582 218.737 285.474 217.861 286.784C217.367 287.523 216.784 288.395 216.097 289.442C216.083 289.463 216.066 289.478 216.049 289.487C216.033 289.496 216.016 289.5 216 289.5C215.984 289.5 215.968 289.496 215.951 289.487Z" fill="#01DCFA" fill-opacity="0.77" stroke="black"/>
<path d="M407.951 432.487C407.94 432.481 407.929 432.472 407.918 432.461L407.329 431.223L407.267 431.481C406.848 430.848 406.474 430.288 406.141 429.789C405.264 428.477 404.667 427.583 404.258 426.87C403.945 426.323 403.76 425.91 403.65 425.521C403.541 425.135 403.5 424.75 403.5 424.25C403.5 421.603 405.537 419.5 408 419.5C410.463 419.5 412.5 421.603 412.5 424.25C412.5 424.75 412.459 425.135 412.35 425.52C412.24 425.909 412.055 426.322 411.742 426.869C411.334 427.582 410.737 428.474 409.861 429.784C409.367 430.523 408.784 431.395 408.097 432.442C408.083 432.463 408.066 432.478 408.049 432.487C408.033 432.496 408.016 432.5 408 432.5C407.984 432.5 407.968 432.496 407.951 432.487Z" fill="#80FF00" fill-opacity="0.74" stroke="black"/>
<path d="M409.951 471.487C409.94 471.481 409.929 471.472 409.918 471.461L409.329 470.223L409.267 470.481C408.848 469.848 408.474 469.288 408.141 468.789C407.264 467.477 406.667 466.583 406.258 465.87C405.945 465.323 405.76 464.91 405.65 464.521C405.541 464.135 405.5 463.75 405.5 463.25C405.5 460.603 407.537 458.5 410 458.5C412.463 458.5 414.5 460.603 414.5 463.25C414.5 463.75 414.459 464.135 414.35 464.52C414.24 464.909 414.055 465.322 413.742 465.869C413.334 466.582 412.737 467.474 411.861 468.784C411.367 469.523 410.784 470.395 410.097 471.442C410.083 471.463 410.066 471.478 410.049 471.487C410.033 471.496 410.016 471.5 410 471.5C409.984 471.5 409.968 471.496 409.951 471.487Z" fill="#80FF00" fill-opacity="0.74" stroke="black"/>
<path d="M138.951 151.487C138.94 151.481 138.929 151.472 138.918 151.461L138.329 150.223L138.267 150.481C137.848 149.848 137.474 149.288 137.141 148.789C136.264 147.477 135.667 146.583 135.258 145.87C134.945 145.323 134.76 144.91 134.65 144.521C134.541 144.135 134.5 143.75 134.5 143.25C134.5 140.603 136.537 138.5 139 138.5C141.463 138.5 143.5 140.603 143.5 143.25C143.5 143.75 143.459 144.135 143.35 144.52C143.24 144.909 143.055 145.322 142.742 145.869C142.334 146.582 141.737 147.474 140.861 148.784C140.367 149.523 139.784 150.395 139.097 151.442C139.083 151.463 139.066 151.478 139.049 151.487C139.033 151.496 139.016 151.5 139 151.5C138.984 151.5 138.968 151.496 138.951 151.487Z" fill="#80FF00" fill-opacity="0.74" stroke="black"/>
<rect x="196" y="159" width="74" height="22" rx="11" fill="white" fill-opacity="0.5"/>
<path d="M218.992 165.981V166.784C218.992 168.203 218.002 169.49 216.506 170.018L216.968 170.744C218.64 170.139 219.74 168.61 219.74 166.784V165.981H218.992ZM219.157 165.981V166.773C219.157 168.467 220.213 169.886 221.874 170.436L222.314 169.721C220.851 169.237 219.905 168.071 219.905 166.773V165.981H219.157ZM216.781 165.651V166.399H222.094V165.651H216.781ZM223.348 164.914V170.909H224.261V164.914H223.348ZM224.008 167.433V168.203H225.735V167.433H224.008ZM221.093 171.173C219.069 171.173 217.826 171.844 217.826 172.999C217.826 174.165 219.069 174.836 221.093 174.836C223.117 174.836 224.36 174.165 224.36 172.999C224.36 171.844 223.117 171.173 221.093 171.173ZM221.093 171.91C222.567 171.91 223.469 172.306 223.469 172.999C223.469 173.703 222.567 174.121 221.093 174.121C219.619 174.121 218.717 173.703 218.717 172.999C218.717 172.306 219.619 171.91 221.093 171.91ZM228.902 165.739C227.615 165.739 226.79 167.07 226.79 169.204C226.79 171.338 227.615 172.669 228.902 172.669C230.189 172.669 231.025 171.338 231.025 169.204C231.025 167.07 230.189 165.739 228.902 165.739ZM228.902 166.586C229.683 166.586 230.178 167.598 230.178 169.204C230.178 170.81 229.683 171.822 228.902 171.822C228.121 171.822 227.626 170.81 227.626 169.204C227.626 167.598 228.121 166.586 228.902 166.586ZM234.237 164.914V174.858H235.117V164.914H234.237ZM232.664 168.852V169.6H234.567V168.852H232.664ZM232.037 165.123V174.363H232.906V165.123H232.037ZM237.195 165.321V169.666H241.793V165.321H240.902V166.751H238.097V165.321H237.195ZM238.097 167.466H240.902V168.929H238.097V167.466ZM243.586 164.914V170.04H244.499V164.914H243.586ZM244.103 167.048V167.807H245.962V167.048H244.103ZM238.185 170.524V171.25H243.608V172.251H238.207V174.429H239.109V172.933H244.499V170.524H238.185ZM238.207 174.022V174.748H244.862V174.022H238.207ZM248.986 165.53V166.861C248.986 167.983 248.205 169.27 246.896 169.842L247.391 170.557C248.854 169.908 249.712 168.346 249.712 166.861V165.53H248.986ZM249.129 165.53V166.861C249.129 168.324 249.954 169.699 251.384 170.271L251.879 169.578C250.603 169.083 249.855 167.961 249.855 166.861V165.53H249.129ZM254.409 164.925V171.052H255.278V164.925H254.409ZM252.825 167.576V168.324H254.706V167.576H252.825ZM252.275 165.112V170.733H253.144V165.112H252.275ZM252.011 171.272C249.954 171.272 248.7 171.932 248.7 173.065C248.7 174.187 249.954 174.836 252.011 174.836C254.057 174.836 255.333 174.187 255.333 173.065C255.333 171.932 254.057 171.272 252.011 171.272ZM252.011 171.987C253.507 171.987 254.42 172.383 254.42 173.065C254.42 173.736 253.507 174.132 252.011 174.132C250.515 174.132 249.591 173.736 249.591 173.065C249.591 172.383 250.515 171.987 252.011 171.987Z" fill="black"/>
<path d="M206.861 176.471C206.833 176.458 206.81 176.443 206.794 176.427L206.229 175.439L206.171 175.645C205.603 174.929 205.102 174.305 204.66 173.754C203.608 172.442 202.891 171.548 202.401 170.835C202.025 170.288 201.806 169.878 201.676 169.496C201.549 169.119 201.5 168.743 201.5 168.25C201.5 165.687 203.897 163.5 207 163.5C210.103 163.5 212.5 165.687 212.5 168.25C212.5 168.743 212.451 169.119 212.324 169.496C212.195 169.878 211.975 170.287 211.599 170.834C211.109 171.547 210.393 172.439 209.343 173.749C208.75 174.488 208.05 175.36 207.225 176.407C207.208 176.429 207.18 176.452 207.14 176.47C207.1 176.489 207.052 176.5 207.001 176.5C206.95 176.5 206.901 176.489 206.861 176.471Z" fill="#F40A0A" fill-opacity="0.74" stroke="black"/>
</g>
<defs>
<clipPath id="clip0_218_166">
<rect width="483" height="697" fill="white"/>
</clipPath>
</defs>
</svg>
