<svg width="483" height="697" viewBox="0 0 483 697" fill="none" xmlns="http://www.w3.org/2000/svg">
<path d="M154.989 148.211L159.411 152.653L160.296 158.93L161.607 159.428L164.412 157.973L168.012 164.745L170.115 163.904L174.294 164.362L179.143 161.683L182.71 161.34L183.504 164.745L187.744 162.334L191.219 162.029L193.173 160.193L193.142 158.854L194.606 158.509L196.1 156.519L194.728 155.256L195.185 152.347L198.903 149.858L197.228 145.721L191.647 148.249L189.847 147.751L191.494 141.544L189.085 136.062L188.961 130.807L186.524 129.311L180.76 129.081L178.228 130.846L176.336 134.069L176.247 137.558L174.964 138.478L168.987 138.938L167.097 144.189L162.888 146.065L157.001 142.349L154.471 146.372L154.989 148.211Z" fill="#9D9D9D" stroke="white"/>
<path d="M420.231 443.843L420.282 444.73H424.898L426.454 446.287L427.621 448.232L427.427 449.984L425.68 451.251L424.703 457.091L422.539 458.243L424.401 458.466L424.765 460.362L423.118 463.892L421.988 463.297L421.287 464.932L422.202 466.53L421.561 468.536L418.847 469.317L418.177 471.88L416.864 472.698L414.944 471.992L413.448 473.068L411.528 471.807L411.649 472.735L409.759 472.995L409.057 475.409L410.247 475.592L410.855 477.338L410.703 480.381L409.332 479.639L407.106 480.01L406.738 479.563L404.483 479.267L404.727 476.966L403.903 476.445L401.829 477.968L399.847 481.086L399.603 483.163L398.658 483.276L399.449 484.945L398.628 486.278L397.346 482.125L396.096 482.346L397.162 486.834L396.066 487.318L395.882 485.61L394.756 485.202L394.998 487.13L393.655 486.981L394.451 488.057L393.079 489.021L393.2 486.981L392.348 486.537L391.402 482.68L392.043 479.155L389.634 481.975L389.543 478.636L387.254 482.829H385.335L386.523 477.56L385.301 477.116L384.173 482.829L379.019 482.235L377.281 480.343L373.866 482.867L372.981 481.827L375.114 480.047L373.65 480.269L374.016 477.57L382.063 474.533L382.563 468.716L385.224 468.382L389.713 465.556L394.534 465.389L399.252 459.649L403.841 456.767L405.975 457.135L410.164 449.425L415.818 448.76L416.484 446.598L419.909 443.45L420.231 443.843ZM403.385 479.712L405.55 481.569L405.215 483.461L407.471 485.353L406.89 486.614H405.854L405.305 485.24L404.573 485.539L403.902 484.054L400.273 481.384L403.385 479.712Z" fill="#9D9D9D" stroke="white"/>
<path d="M345.737 407.411L344.209 412.367L342.642 413.433L339.832 412.397L338.063 412.834L334.008 415.734L331.206 415.803L330.353 411.821L325.642 406.022L326.003 402.761L329.991 404.935H332.527L333.252 402.036L329.629 398.049L331.078 394.425L332.527 391.164L338.689 390.077L338.326 387.902L335.065 385.364L329.629 385.003L331.44 378.117L333.977 374.493L338.689 372.317L339.413 378.842H342.313L346.299 369.418L353.185 367.969L356.447 364.345L360.434 363.256L364.057 363.619L368.405 367.244L369.131 375.942L371.306 380.653L370.218 383.191L366.232 384.639L364.421 388.626V392.25L361.521 392.613V394.788L362.971 396.6V401.311L358.984 402.761L357.172 404.935L353.91 404.572L353.185 401.311H349.561L347.024 402.761L345.212 405.66L345.737 407.411Z" fill="#9D9D9D" stroke="white"/>
<path d="M131.69 144.099L136.505 140.946L138.959 137.643L141.37 137.866L150.029 144.873L154.471 146.373L154.988 148.213L150.872 153.492L151.023 158.167L154.866 161.534L154.348 165.932L152.273 168.633L149.951 167.946L150.5 165.843L149.708 165.23L149.25 167.181L148.549 164.466L149.068 167.946L146.781 170.583L142.633 170.01L138.364 175.396L133.027 175.55L132.63 176.81L131.471 176.773L132.448 176.466L133.056 174.327L138.363 175.282L142.541 170.047L137.844 166.377L136.747 161.406L136.167 164.084L134.46 163.969L134.674 160.948L133.728 162.44L132.325 161.866L133.728 156.472L137.205 155.094L138.638 155.553L137.569 153.602L134.763 154.903L134.825 153.371L133.636 152.109L134.763 152.224L134.581 150.769L133.148 149.313L133.941 148.969L134.002 147.322L130.769 149.236L129.61 149.046L129.488 148.969L134.033 147.092L131.69 144.099ZM101.493 145.977L103.626 147.433L104.634 147.125L106.281 149.462L109.726 148.964L109.422 150.649L107.043 150.152L104.879 150.88L104.42 150.228L103.232 151.339L103.659 148.89L101.493 145.977ZM124.306 149.654L125.159 151.033L129.306 152.182L130.922 153.712L131.411 155.856L128.789 157.502L126.47 156.736L116.161 165.304L112.838 165.954L113.233 163.66L112.136 162.896L110.703 163.851L111.74 162.781L111.192 161.939L109.332 163.393L107.441 162.436L108.447 161.709L106.649 159.642L106.922 158.036L108.844 157.997L113.418 154.746L119.883 154.44L121.439 153.329L122.232 150.19L124.306 149.654ZM112.868 166.682L116.102 170.046L115.125 172.53L113.296 173.027L112.198 171.957L112.32 169.703L110.947 169.358L111.983 166.529L112.868 166.682Z" fill="#9D9D9D" stroke="white"/>
<path d="M173.105 461.4L170.979 460.39L168.148 460.289L162.99 462.615L160.664 465.042L158.944 465.143L154.797 462.714L154.089 460.186L151.56 460.085L149.132 466.255L146.401 466.154L144.379 468.582L143.064 474.145L143.57 478.9L151.964 480.111L156.315 487.193H160.664L164.608 484.867H169.058L170.778 483.653L174.418 484.362L178.364 481.63L179.983 479.507L182.005 472.426V470.807L179.578 469.694L176.544 469.392L175.359 464.118L173.105 461.4Z" fill="#9D9D9D" stroke="white"/>
<path d="M221.988 296.571L223.436 302.725L223.795 302.923L225.496 300.178L226.205 299.425L227.814 299.634L227.44 301.152L227.36 301.893L230.687 299.109L233.587 302.007L233.864 305.055L236.684 306.398L236.315 308.287L238.661 311.068L235.398 313.244L234.311 319.767L232.86 327.015L234.217 331.366L230.325 333.901L227.788 337.162L223.438 334.626L220.901 330.277L220.176 326.29H218.364L218.002 335.712L216.915 338.25H215.465L214.378 334.626L211.478 333.538L209.667 331.001L209.303 327.015L206.767 324.84L206.404 320.13L208.941 317.228L208.579 307.081L216.552 304.544L217.663 297.425L221.988 296.571Z" fill="#9D9D9D" stroke="white"/>
<path d="M419.301 402.265L421.394 403.973L424.859 405.013L425.135 405.972L424.641 409.274L425.823 410.561L428.118 411.316L434.351 408.538L443.801 411.031L447.165 411.507L447.973 413.193L447.941 414.798L446.63 415.696L447.241 419.352L446.479 422.152L445.166 422.748L446.051 422.86L445.838 424.687L444.434 425.285L445.595 426.142L444.129 426.851L445.867 427.671L444.679 429.05L443.52 428.566L441.415 430.059L441.598 427.188L440.257 426.142L439.524 422.711L437.268 420.247L435.529 419.689L438.213 422.412L438.122 423.718L439.25 424.016L439.646 425.695L436.902 425.845L437.51 426.666L438.639 426.365L439.678 428.194L436.658 431.958L434.065 429.983L434.949 433.487L436.291 433.412L435.711 434.569L437.298 433.71V435.574L435.468 436.99L436.78 439.002L434.674 442.391L436.749 445.293L435.011 446.301L433.638 445.741L431.292 449.314L430.039 449.389L429.733 450.765L427.424 449.984L427.621 448.231L426.453 446.287L424.897 444.73H420.282L420.231 443.843L418.438 441.655L414.852 441.412L408.276 434.596L404.491 430.699L401.702 430.457H398.516L395.923 429.24L395.526 423.635L398.117 421.441L399.511 420.223V418.518L397.805 415.699L402.36 412.112L404.287 411.91L405.831 411.057L404.259 408.176L404.692 406.368L413.133 402.188L419.301 402.265Z" fill="#9D9D9D" stroke="white"/>
<path d="M91.979 119.2L89.8737 116.779L91.6439 114.858L91.8871 112.207L93.7154 110.478H96.796L100.334 112.514L103.11 111.746L104.361 113.129L102.379 116.357L100.091 117.74L97.0415 117.356L94.4486 118.047L93.229 119.698L91.979 119.2ZM103.232 187.687L99.2364 185.626L97.9854 187.076L102.622 189.518L105.031 188.908L105.885 187.497L104.299 186.887L103.232 187.687ZM95.4844 133.173L91.8557 133.057L96.1873 137.544L96.583 136.891L95.2714 135.933L95.4844 133.173ZM81.6702 188.45L80.603 189.175L79.7185 185.855L78.4383 185.664L76.6682 192.646L78.1311 192.418L78.3452 191.502L78.8038 192.989L80.1456 192.569L79.9629 194.247L83.8977 193.637L85.7586 191.465L81.946 189.1L81.6702 188.45ZM87.19 130.065L85.9704 129.643L84.5366 130.68L85.9087 131.525L87.2506 130.949L88.2572 132.674L90.4219 133.059L90.7582 131.37L89.0812 128.453L87.19 130.065ZM179.116 52.2519L173.425 59.0054H170.163L164.726 56.8302L161.826 58.6423L155.303 64.0783L151.316 69.8775L153.491 70.9645L155.665 75.3136L162.992 75.6499L166.9 77.8506L167.625 81.4747L166.177 82.5617L165.813 84.7368L160.015 84.0117L159.652 88.3608L157.839 89.449L158.202 92.348L160.376 93.435L160.014 101.046L157.476 102.496L153.852 98.1471L155.302 93.073L153.027 90.2054L150.236 90.2892L149.866 93.4361L147.691 95.6112L143.655 91.73L142.794 91.8545L143.835 97.5478L143.271 99.7182L148.777 101.771L152.764 107.57L145.153 109.744H141.859L140.743 115.024L137.254 115.228L133.685 118.09L129.546 117.475L127.198 115.609L126.497 116.971L124.455 117.893L125.735 119.93L124.728 124.845L125.979 126.918L125.4 130.525L126.741 131.138L125.857 133.133L128.938 140.495L131.686 144.098L136.501 140.944L138.955 137.642L141.367 137.865L150.025 144.872L154.466 146.373L156.997 142.35L162.883 146.066L167.094 144.19L168.984 138.939L174.961 138.479L176.244 137.559L176.334 134.069L178.225 130.846L180.756 129.081L186.521 129.31L188.959 130.807L189.082 136.062L191.491 141.544L189.845 147.751L191.644 148.249L197.224 145.721L198.901 149.858L195.182 152.347L194.724 155.256L196.096 156.519L194.602 158.509L193.138 158.855L193.169 160.193L191.217 162.029L187.74 162.335L183.501 164.745L182.708 161.341L179.141 161.684L174.292 164.363L170.111 163.905L168.008 164.746L164.409 157.975L161.604 159.43L160.294 158.932L159.409 152.654L154.987 148.213L150.87 153.492L151.022 158.166L154.864 161.533L154.347 165.931L152.272 168.632L153.702 169.32L149.097 168.441L148.06 169.664L149.006 170.391L148.549 172.149L143.089 175.205L143.426 176.963L134.733 179.942L131.319 182.538L130.25 182.232L130.8 183.377L129.305 184.98L125.95 183.377L129.305 188.071L128.907 190.474L126.803 191.771L128.481 193.486H127.078L127.413 194.478L126.163 195.736L128.083 194.935L129.273 196.764L131.407 192.838L134.915 194.63L135.83 190.778L136.134 192.685L138.453 194.134L137.843 196.117L138.513 196.841L139.429 194.134L139.032 192.228L135.982 190.664L135.25 187.536L132.688 187.078L130.218 184.751L131.407 182.651L135.128 180.056L142.661 177.459L153.548 182.728L157.147 182.271L160.348 186.087L161.812 185.591L160.653 187.652L158.823 185.324L156.596 184.752L156.779 183.683L155.742 184.065L155.346 184.981L156.444 186.47L154.217 186.354L155.07 188.377L154.003 189.37L154.766 189.598L152.173 193.487L150.648 192.458L151.318 191.658L150.617 188.149L147.537 189.14L147.14 187.881L142.993 187.004L142.14 189.139L140.156 189.559L140.614 191.581L141.682 192.268L140.585 194.289L141.712 196.081L140.066 196.12L138.724 197.835L140.096 200.846L138.847 201.951L140.586 201.226L143.422 201.798L140.829 204.274L142.323 205.226L142.11 207.283L143.086 208.198L143.544 206.331L147.448 204.122L149.857 200.159L152.815 200.426L154.432 197.948L155.529 200.731L153.028 202.255L158.457 202.332L156.047 203.016L157.115 204.199L156.169 203.78L154.584 205.304L153.363 204.465L151.016 206.713L151.076 214.935L149.247 218.13L149.674 219.044L154.675 219.425L155.01 221.858L153.455 222.353L153.516 223.302L158.059 224.253L159.95 229.079L162.175 229.992L162.694 232.158L164.951 231.778L166.598 232.842L167.603 238.137L171.62 235.725L180.39 237.771L186.126 235.712L189.621 233.309L192.623 233.211L196.094 234.867L199.912 238.796L205.83 239.607L209.041 239.338L213.432 237.361L215.412 235.924L217.979 236.082L220.065 234.051L220.257 231.603L219.905 230.342L225.815 226.847L226.745 223.795L229.461 220.81L230.393 222.192L232.116 222.167L231.799 224.57L233.655 220.825L238.653 221.732L243.364 217.383L246.263 217.021L246.988 207.961H248.8L250.612 210.136H252.787L255.879 202.416L258.955 201.738L259.673 193.102L258.948 189.115L260.761 187.666L260.398 178.968L264.385 169.545L264.748 164.834L262.48 164.008L261.567 161.243L265.21 156.56L267.608 155.744L268.53 153.208L266.612 149.839L256.195 148.253L251.191 143.962L248.068 143.585L243.29 140.706L239.064 142.333L235.998 139.03L238.029 134.95L238.39 129.853L234.22 130.902L234.36 128.551L237.494 124.976L235.96 120.905L236.919 118.628L235.933 115.204L236.618 113.432L239.245 112.56L241.334 110.161L245.179 108.915L246.341 104.307L245.391 99.6217L243.714 97.7759L238.831 96.1268L238.734 92.9881L237.711 92.2874L233.973 92.6855L230.379 90.9107L228.571 87.3995L228.103 78.6699L226.449 76.3784L224.175 77.5923L221.745 75.7919L220.019 76.0188L215.25 78.2638L210.061 74.0997L210.622 67.9177L211.891 66.8493L209.602 65.8287L205.35 70.1766L202.521 70.3651L200.612 69.4003L200.153 65.6948L198.999 66.0556L198.791 64.8057L199.516 62.6317L197.702 61.1817L196.615 55.0205H191.179V52.8466L192.628 51.7584L187.125 46.6284L185.583 47.3011L179.116 52.2519ZM107.899 127.494L105.001 127.072L102.56 125.153L102.53 122.466L103.719 120.046L102.652 119.393L98.9001 120.928L98.8082 124.884L97.0392 125.537L102.376 129.222L103.568 130.909L103.262 133.326L104.513 134.553L108.661 131.369L109.118 128.99L107.899 127.494ZM125.983 131.754L124.275 130.18L125.19 126.496L123.848 124.5L125.283 120.16L123.696 118.202L123.3 115.55L118.055 112.13L115.554 108.902L110.979 109.748L110.004 112.093L105.948 114.283L106.558 125.997L110.034 126.918L112.322 132.252L111.315 135.014L107.626 135.704L108.968 138.119L108.297 139.039L112.108 141.302L118.33 141.723L118.361 140.535L119.398 141.034L120.069 139.961L123.728 141.034L124.673 139.117L126.261 138.656L124.888 133.173L125.983 131.754ZM119.547 183.413L117.291 183.909L117.077 185.398L115.279 185.245L114.455 187.001L115.401 189.291L115.006 191.465L117.201 191.426L117.262 192.493L117.994 192.418L119.549 191.12L119.245 190.129L121.013 190.014L119.671 188.489L121.135 188.45L120.892 187.573L122.05 188.413L122.844 186.124L121.318 184.14L119.547 183.413Z" fill="#D9D9D9" stroke="white"/>
<path d="M326.593 0L328.24 3.2656L330.741 6.45089L331.41 6.25653L332.326 8.27571L331.687 9.7514L333.73 12.4689L333.058 13.9841L334.4 15.1491L334.217 16.8552L338.518 22.5193L337.206 23.1012L337.147 25.0785L343.55 33.9152L342.818 34.418L343.123 36.3545L344.982 38.9498L344.952 40.6535L347.637 42.9753L348.611 49.5135L353.249 55.5454L352.302 56.8593L354.651 60.0283L353.584 61.1875L354.651 65.8997L361.145 73.5423L361.97 77.0523L366.665 82.0659L367.946 82.1811L367.367 84.3783L371.729 91.5461L373.683 92.931L373.59 94.1647L378.347 98.5137L378.255 101.401L383.348 107.248L383.623 108.939L403.323 130.411L401.921 135.819L404.697 139.577L409.912 143.87L410.339 145.977L409.241 148.237L411.498 154.248L417.504 160.409L418.785 166.26L424.4 170.618L426.38 178.602L428.514 180.474L429.703 180.36L430.253 183.298L432.175 183.375L433.12 184.634L432.815 186.734L436.078 190.701L434.37 191.998L435.194 194.057L434.216 196.84L434.857 199.852L438.031 204.423L437.662 205.794L438.611 206.766L433.641 207.597L431.468 210.134L428.568 211.222L425.306 214.121L423.494 216.657V218.107L425.306 221.369L417.717 221.557L414.628 218.918L411.201 217.721L408.168 217.259L405.209 220.18L396.58 217.142L392.694 217.975L391.905 216.437L389.905 215.643L386.528 220.644L385.441 222.093H380.73L373.48 217.02L371.136 217.234L370.506 222.712L369.213 224.011L365.649 222.416L363.422 222.712L358.484 219.998L355.721 217.515L351.665 217.759L347.068 216.277L342.903 212.892L340.569 212.788L335.651 213.952L333.461 214.497L332.511 212.874L330.425 210.963L330.547 207.918L329.426 206.978L327.734 207.357L323.919 207.194L322.536 208.653L320.252 209.417L319.447 209.963L316.758 207.909L315.99 205.939L319.782 203.587L322.514 200.418L322.638 198.831L320.83 198.218L319.245 199.185L318.023 199.492L316.036 199.225L314.324 197.21L311.856 196.706L309.553 194.954L306.701 195.637L304.622 198.481L300.38 197.424L296.111 201.002L290.215 202L289.898 197.53L287.833 193.69L282.878 193.176L281.138 194.273L277.836 197.393L278.992 202.839L278.502 204.932L274.84 207.374L272.136 206.034L268.611 206.143L266.929 208.322L264.392 209.409L259.68 205.785L258.962 201.737L259.68 193.1L258.955 189.113L260.768 187.664L260.405 178.967L264.392 169.543L264.754 164.832L262.486 164.006L261.574 161.241L265.216 156.558L267.614 155.742L268.537 153.206L266.619 149.837L256.202 148.251L251.198 143.96L248.075 143.583L243.297 140.703L239.071 142.33L236.005 139.028L238.035 134.947L238.397 129.851L234.227 130.9L234.367 128.549L237.501 124.974L235.966 120.903L236.925 118.626L235.939 115.201L236.624 113.43L239.251 112.558L241.34 110.16L245.186 108.913L246.348 104.305L245.398 99.6205L243.72 97.7736L238.837 96.1245L238.74 92.9857L237.717 92.2851L233.978 92.6831L230.384 90.9084L228.575 87.3972L228.108 78.6676L226.454 76.3761L224.18 77.5899L221.749 75.7896L220.023 76.0165L215.254 78.2614L210.063 74.0974L210.625 67.9165L211.895 66.847L209.605 65.8263L205.352 70.1743L202.523 70.3628L200.614 69.398L200.157 65.6937L199.002 66.0533L198.794 64.8034L199.519 62.6294L197.706 61.1793L196.62 55.0182H191.184V52.8443L192.633 51.7561L187.129 46.625L191.824 42.8484L195.733 43.2907L203.505 39.7365L207.472 40.3451L209.332 41.7312L213.04 41.5974L214.362 40.5023L221.347 39.1976L232.07 43.84L241.639 38.9218L244.663 40.5895L249.061 40.1147L252.154 40.8933L254.427 39.3664L261.15 39.7039L264.1 38.0827L268.356 43.4257L272.919 42.1374L275.373 39.5363L282.681 41.6742L284.749 41.1668L292.238 42.8391L295.682 42.305L299.143 39.4723L303.022 39.1534L310.911 32.8666L312.409 30.4145L318.833 24.7899L321.346 19.4435L322.292 14.1098L321.68 3.5612L326.593 0Z" fill="#D9D9D9" stroke="white"/>
<path d="M248.446 356.383L245.909 349.123L243.371 346.948L243.009 343.687L244.459 340.424L244.096 336.8L241.922 333.177L238.67 333.485L234.218 331.366L232.861 327.016L234.311 319.767L235.398 313.244L238.661 311.068L236.315 308.287L236.684 306.398L233.864 305.055L233.587 302.007L230.687 299.109L227.361 301.893L227.44 301.152L227.814 299.634L226.205 299.425L225.496 300.178L223.795 302.923L223.436 302.725L221.988 296.571L217.663 297.425L216.946 296.425L215.659 296.635L214.987 297.544L217.154 290.462L215.898 289.135L216.968 285.323L213.09 285.095L212.565 283.525V280.263L209.303 276.276L211.841 275.551L212.203 272.289L210.391 269.753L216.19 260.693L220.54 261.055L222.352 258.879L220.902 254.53L217.277 251.994H213.933L212.678 251.438L212.866 249.121L212.18 248.555L210.458 247.733L210.19 244.644L206.894 242.415L205.837 239.605L209.049 239.336L213.44 237.359L215.419 235.921L217.986 236.08L220.072 234.049L220.264 231.6L219.912 230.34L225.822 226.845L226.752 223.792L229.468 220.807L230.399 222.19L232.123 222.165L231.806 224.569L233.662 220.824L238.661 221.732L243.371 217.383L246.271 217.02L246.996 207.96H248.808L250.62 210.134H252.795L255.886 202.415L258.962 201.737L259.68 205.785L264.392 209.409L266.929 208.322L268.61 206.143L272.136 206.034L274.84 207.374L278.502 204.932L278.992 202.839L277.836 197.393L281.138 194.273L282.878 193.176L287.833 193.69L289.898 197.53L290.215 202L296.112 201.002L300.38 197.424L304.622 198.482L306.701 195.638L309.553 194.954L311.856 196.706L314.324 197.21L316.036 199.225L318.023 199.492L319.245 199.185L320.83 198.218L322.638 198.831L322.514 200.418L319.782 203.587L315.99 205.939L316.758 207.909L319.447 209.963L320.252 209.417L322.537 208.653L323.919 207.194L327.734 207.357L329.426 206.979L330.547 207.918L330.425 210.963L332.511 212.874L333.46 214.498L335.651 213.952L340.569 212.788L342.903 212.892L347.068 216.277L351.665 217.759L355.721 217.515L358.484 219.998L355.923 222.505L353.432 222.219L350.788 225.254L350.071 225.58L346.249 229.354L342.994 230.293L342.081 231.738L337.961 234.929L334.294 241.512L333.326 243.33L333.266 244.879L334.792 245.588L335.715 248.972L332.412 253.498L327.772 254.405L326.697 255.601L323.863 255.542L321.316 255.751L318.421 250.032L314.66 247.886L313.288 245.596L311.35 249.135L310.036 249.534L309.518 253.29L309.094 253.948L302.469 251.928L301.98 251.197L300.745 250.76L300.035 251.486L297.091 255.076L295.49 255.297L293.587 253.266L292.998 253.621L289.67 261.39L293.612 267.483L288.269 266.427L286.898 265.654L285.495 266.335L281.646 264.44L278.307 268.775L273.369 270.428L271.414 273.187L271.974 275.767L268.218 279.645L266.176 281.448L264.361 281.857L263.211 284.073L264.057 285.349L270.289 286.663L271.704 288.08L271.539 289.16L272.66 291.448L274.991 293.03L274.501 295.012L272.16 296.049L271.22 304.906L271.913 307.781L270.423 310.122L271.951 313.901L272.526 314.258L271.363 317.234L268.272 319.914L268.192 324.892L270.693 326.959L274.659 323.984L275.198 325.662L278.101 327.38L280.25 329.206L281.614 329.667L283.923 328.695L286.516 327.779L288.862 328.588L289.583 329.831L289.758 333.512L291.221 335.687L290.53 337.175L286.905 335.537L284.108 337.193L282.735 339.216L284.101 342.653L283.624 346.803L281.585 348.502L280.378 353.889L278.24 356.907L274.901 356.795L273.643 358.041L270.46 361.024L267.097 358.373L261.301 361.162L260.885 362.211L257.861 362.216L257.682 361.15L255.704 359.938L250.944 358.295L249.72 355.657L248.446 356.383Z" fill="#D9D9D9" stroke="white"/>
<path d="M107.135 312.872L108.232 313.702L107.318 313.816L107.196 314.871L105.671 314.154L105.122 314.946L104.848 313.325L106.097 312.458L106.127 310.913H106.891L107.135 312.872ZM111.159 303.067H112.563L112.747 304.426L114.454 304.991L113.783 303.407L115.278 302.238L114.972 299.746L112.228 297.707L113.386 296.045L112.38 294.384L112.563 292.27L111.283 292.647L111.678 290.305L109.087 288.87L110.032 287.85L108.843 286.263L108.722 282.483L107.014 281.689L108.783 280.554L108.845 279.231L107.716 276.204L106.16 275.486L101.83 279.873L103.752 283.806L103.385 289.851L104.422 292.231L103.171 295.592L104.757 295.14L104.027 299.028L106.864 299.481L106.223 301.671L108.235 303.443L109.363 302.161L111.59 302.198L111.159 303.067ZM116.955 217.062L116.374 214.627L113.63 214.17L113.691 217.405L116.955 217.062ZM115.766 308.272L115.035 306.952L113.845 306.838L112.748 307.366L113.358 309.026L110.43 307.404L109.606 309.289L111.77 309.101L117.901 311.137L118.084 310.044L114.913 309.177L115.766 308.272ZM245.909 349.123L243.372 346.948L243.009 343.687L244.459 340.424L244.096 336.8L241.921 333.177L238.67 333.487L234.216 331.367L230.322 333.902L227.786 337.164L223.438 334.626L220.901 330.278L220.176 326.29H218.364L218.001 335.713L216.914 338.251H215.464L214.377 334.627L211.477 333.539L209.665 331.002L209.302 327.015L206.765 324.841L206.402 320.13L204.42 317.742L202.384 316.175L200.975 312.574L201.131 307.877L200.818 304.59L199.253 300.05L196.121 298.327L193.929 295.353L193.772 293.003L195.026 290.185V286.583L194.869 282.513L194.556 278.599L195.338 275.781L195.025 272.179L194.397 269.831L193.145 267.482L193.614 265.447L196.746 264.193L199.72 265.133L201.443 267.011L204.575 268.89L207.549 269.987L210.387 269.75L216.185 260.69L220.534 261.053L222.346 258.878L220.897 254.529L217.273 251.992H213.927L212.672 251.436L212.86 249.119L212.174 248.552L210.452 247.729L210.185 244.64L206.888 242.412L205.831 239.601L199.914 238.79L196.095 234.861L192.624 233.205L189.622 233.303L186.127 235.706L180.391 237.765L171.621 235.719L167.604 238.131L162.389 239.369L158.243 238.61L156.504 232.799L155.194 232.344L153.242 227.821L153.333 226.225L144.61 223.868L144.183 222.954L136.802 222.688L128.903 217.973L126.341 217.554L124.542 214.929L122.193 214.092L121.156 214.853L120.332 216.451L120.943 217.098L117.923 219.913L119.082 222.119L117.618 222.879L114.508 221.319L109.904 220.863L107.463 222.079L106.517 221.471L104.23 223.411L103.406 222.992L103.773 225.121L107.433 225.958L108.378 225.387L108.897 226.831L110.056 227.022L108.135 228.58L107.312 227.288H104.444L104.201 228.542L105.879 228.352L106.091 229.682L107.159 229.872L106.945 231.429L108.043 230.365L109.416 230.67L110.423 232.798L112.374 231.241L113.442 231.735L113.472 233.482L111.947 234.204L112.343 235.534L114.844 236.483L111.001 237.623L111.184 239.407L108.927 239.104L107.495 239.939L108.196 242.52L106.519 243.962L107.556 246.125L105.147 244L105.635 242.027L103.775 241.684L102.465 244.796L103.592 245.669L103.256 247.034L104.263 248.363L102.951 247.719L101.946 248.743L101.061 248.249L101.031 249.461L99.9335 249.388L99.4761 250.677L98.3484 247.947L98.6219 247.074L102.16 246.011L102.343 245.215L99.9021 244.685L99.994 243.318L101.914 239.067L103.958 237.966H102.829L102.616 236.105L100.695 234.396V230.635L101.793 229.116L100.634 229.231L99.6891 228.015L100.877 227.711L101.09 225.887L98.3763 227.977L99.5948 233.942L98.6196 235.462L99.0467 236.715L94.7465 235.462L95.2643 234.663L93.5559 234.777L90.8128 236.98L89.7457 236.069L89.1661 238.689L86.9991 238.536L88.5551 239.942L87.517 240.739L88.3107 242.713L89.4698 242.638L87.0596 245.825L88.7064 247.647L87.4262 247.761L89.3174 252.804L87.091 248.518L86.2973 249.125L86.359 244.8L85.1696 244.725L85.0777 243.472L84.5284 244.345L83.7975 244.004L84.4679 245.218L83.4007 245.256L84.895 246.66L84.682 248.026L83.1563 249.201L84.0105 249.959L83.5229 251.779L82.302 252.765L81.8144 252.159L81.8447 253.638L79.7394 254.054L81.1429 257.314H82.1496L80.5633 263.035L84.1618 259.928L82.8199 255.646L84.6203 256.631L88.7378 256.328L87.5484 257.882L89.7748 259.132L91.2085 258.451L89.7445 261.178L90.9641 260.42L92.0011 261.178L90.2019 263.414L86.0553 261.633L83.9197 263.338L84.561 267.163L89.1056 267.617L90.3543 264.929L93.0392 264.665L93.77 263.719L93.4046 261.597L95.8451 261.711L98.0097 259.929L98.4683 260.801L97.5233 261.142L97.4302 263.719L96.1197 265.309L96.4863 267.809L99.0176 268.149L100.266 270.837L100.419 274.508L99.1991 275.379L98.5579 278.783L99.7473 280.788L107.493 274.093L112.495 275.53L118.32 279.653L119.174 283.169L118.413 285.135L121.156 288.499L122.895 287.023L127.713 290.5L122.835 287.893L120.485 290.35L120.211 294.315L120.851 297.562L122.285 299.071L121.979 300.468L125.028 298.921L125.395 297.296L126.311 297.222L129.239 293.408L132.075 294.58L134.668 293.673L133.508 295.107L130.367 294.58L129.574 297.788L127.835 297.676L126.066 299.411H124.604L121.827 301.336L120.76 303.562L120.273 307.297L122.347 307.334L127.837 311.142L131.619 311.934L128.599 311.669L123.871 314.949L122.377 315.063L127.684 323.087L125.672 326.739L126.709 331.971L124.97 333.852L125.184 336.447L124.301 337.576L121.556 337.312L121.524 340.508L122.775 341.635L123.112 338.853L124.484 338.477L127.534 339.569L128.601 341.712L130.218 340.095L133.176 342.651L134.731 346.071L135.677 345.243L136.897 345.808L136.866 346.781L138.238 346.408L135.402 348.664L136.623 348.439L136.958 351.707L138.178 351.595L140.801 354.598L139.917 355.161L139.977 357.638L140.83 358.502L142.142 357.789L147.112 359.027L148.73 356.512L149.524 356.893L151.041 356.245L152.763 357.823L166.172 352.023L166.175 342.217L171.622 339.104L175.901 339.883L180.273 342.519L181.744 342.078L184.293 344.413L184.656 348.763L187.484 348.985L188.103 351.332L191.066 351.545L197.657 349.101L200.966 351.3L207.127 350.936L206.401 348.037L211.475 348.401L214.285 346.059L215.603 347.949L219.045 353.876L221.623 362.172L227.336 360.36L228.146 366.158L235.757 365.795L236.844 363.621L237.027 361.059L238.221 360.847L240.414 359.685L245.179 362.534L248.441 359.27V356.384L245.909 349.123Z" fill="#D9D9D9" stroke="white"/>
<path d="M149.527 356.89L151.045 356.242L152.766 357.82L166.177 352.021L166.18 342.215L171.625 339.102L175.906 339.881L180.278 342.516L181.748 342.075L184.297 344.411L184.66 348.76L187.488 348.984L188.107 351.33L191.07 351.543L197.661 349.099L200.969 351.297L207.13 350.934L206.404 348.035L211.478 348.398L214.288 346.057L215.606 347.947L219.049 353.874L221.626 362.169L227.34 360.357L228.15 366.155L235.761 365.793L236.848 363.619L237.03 361.058L238.226 360.846L240.417 359.684L245.184 362.533L248.446 359.269V356.383L249.72 355.657L250.944 358.295L255.703 359.938L257.682 361.15L257.861 362.216L260.885 362.211L261.301 361.162L267.097 358.373L270.46 361.023L273.643 358.041L279.121 368.464L277.626 374.287L274.925 376.045L272.548 381.413L268.942 383.602L267.244 383.611L265.122 384.947L262.782 384.436L262.026 384.986L260.1 389.721L254.364 395.222L253.455 400.824L253.276 403.049L252.239 403.975L246.174 420.71L246.372 423.401L249.592 424.996L250.084 428.372L251.558 431.01L250.762 434.89L251.564 437.129L253.46 437.626L252.93 442.281L248.63 446.423L247.287 450.08L247.926 453.411L245.352 456.087L245.085 456.325L237.679 451.142L232.402 448.728L230.083 448.854L228.045 449.997L224.617 454.405L222.584 454.942L218.874 454.52L216.107 455.331L208.96 455.353L207.651 454.592L205.978 452.998L203.736 454.3L200.071 452.726L198.561 453.696L197.441 454.742L193.918 456.005L191.48 455.379L188.47 453.085L188.957 448.889L187.783 445.548L185.369 444.771L186.602 442.087L186.072 436.959L184.503 435.752L181.582 435.663L180.441 437.738L179.281 438.484L178.502 442.088L177.313 442.895L175.022 442.234L170.891 435.651L166.195 432.18L162.683 431.473L160.86 433.641L159.601 433.391L157.827 432.978L155.195 434.117L154.272 436.427L153.765 440.81L151.901 442.704L152.205 443.599L151.479 447.049L148.678 448.467L145.03 449.586L143.253 451.324L140.843 452.147L139.722 451.651L137.285 451.783L135.6 453.575L130.547 453.844L130.111 451.869H128.122L126.672 447.158L124.498 444.62L123.411 438.097L121.236 436.284L119.062 435.56L114.608 434.977L120.554 423.568L122.14 425.061L122.413 423.232L124.488 421.889L127.05 422.972L129.643 420.546L132.601 420.92L132.875 422.375L134.644 418.234L135.285 418.419L135.223 417L136.9 416.516L138.76 417.076L141.628 420.621L141.261 416.815L140.133 416.143L141.475 414.91L139.859 414.947L137.48 412.969L137.145 413.977L135.436 413.717L134.521 414.798L133.088 413.679L132.601 414.575L126.897 414.538L125.556 415.807L124.488 415.732L124.092 414.575L123.421 415.807L121.438 414.947L120.157 412.596L118.724 413.268L117.87 411.363L119.091 409.161L117.627 407.965L122.627 405.125L126.502 400.975L128.636 399.592L129.978 400.302L132.875 397.835L136.443 392.898L135.619 387.885L136.84 386.012L139.004 387.098L144.373 386.274L149.588 387.66L152.027 389.679L153.582 393.198L154.376 392.449L152.943 392.037L153.644 389.381L152.85 386.012L142.664 380.208L144.341 378.483L148.062 377.061L154.223 377.323L155.289 376.013L155.381 373.576L158.768 371.927L153.918 372.077L151.997 373.989L148.734 373.651L146.234 374.55L142.451 373.388L140.865 374.813L134.857 374.475L135.071 366.865L129.794 366.302L129.764 365.028L127.569 363.302L128.422 362.252L134.125 361.839L135.466 363.003L136.29 362.027L142.938 361.088L144.859 359.661L148.215 360.975L150.197 358.799L150.563 357.261L149.527 356.89Z" fill="#D9D9D9" stroke="white"/>
<path d="M77.37 588.307L77.7971 589.702L75.6627 588.343L74.869 589.738L74.6246 587.866L73.4364 587.939L73.4666 589.774L72.9173 588.489L70.0509 588.268L70.265 586.982L69.1664 587.241L71.1495 585.403L70.8749 585.038L71.8501 583.787L73.3444 585.735L77.2175 584.706L77.37 588.307ZM108.477 560.275L109.514 559.501L108.965 558.174L106.159 556.183L105.366 554.12L104.299 554.489L105.031 553.199L102.195 554.12L100.639 552.35L101.524 551.576L100.671 550.322L93.961 548.221L93.8085 551.098L94.9677 551.724L93.2301 555.115L92.2549 554.34L92.1629 555.742L90.7291 556.221L92.0105 557.621L89.8144 557.804L89.3873 559.019L90.2415 559.978L88.9287 560.604L88.3504 557.953L86.337 561.856L80.2376 565.208L81.335 567.194L80.5716 566.535L79.2611 567.05L77.2489 570.656L80.39 575.955L83.1051 575.036L83.4415 575.955L82.2521 576.469L82.7095 577.169L81.612 578.602H83.5322L83.3798 577.756L84.2654 577.497L85.3326 579.374L87.9547 579.447L91.0352 578.307L90.2729 576.835L91.7056 577.46L92.7739 576.43L93.4745 577.203L94.5126 575.805L96.4026 575.953L96.5551 573.487L98.2938 574.408L100.123 573.451L99.1771 572.311L100.214 571.869L101.159 572.679L100.732 571.281L102.074 572.274L101.799 570.176L103.416 572.201L102.99 573.047L104.422 573.083L104.392 571.133L107.655 567.453L106.831 565.538L108.357 563.587L106.954 563.181L106.984 562.187L108.724 561.708L109.394 562.702L109.334 560.825L108.477 560.275ZM59.9864 529.03L61.2061 528.846L59.742 526.629L59.8037 524.929L65.6588 524.154L66.0556 522.601L67.3975 522.416L67.0914 519.125L64.744 519.495L63.6163 521.714L62.1825 521.418L62.4257 522.157L61.0222 523.006L56.3868 522.304L56.8756 523.708L55.9295 524.153L55.777 523.523L55.3196 524.411L55.9911 525.223L55.1369 529.03L58.4619 531.136L60.9326 530.434L59.9864 529.03ZM152.302 584.668L149.893 583.823L147.787 579.448L147.879 576.174L146.628 574.777L142.694 572.644L137.966 574.925L137.906 580.881L138.729 581.655L138.149 582.683L140.437 583.162L143.731 587.351L145.53 586.653L148.428 588.123L148.213 585.699L149.587 587.425L152.819 588.012L151.202 585.845L152.302 584.668ZM64.4391 531.025L63.3102 528.253L63.1275 530.359L61.6949 530.286L61.5727 532.612L60.4438 531.948L60.7487 531.246L58.3094 531.763L58.065 535.196L58.7668 537.116L60.0772 536.193L60.0179 537.484L60.9931 538.075L62.4874 536.893L62.3652 538.702L63.4929 539.071L65.2328 538.296L65.2631 537.041L67.0006 535.859L67.1845 534.641L68.4344 534.974L68.9837 533.57L64.4391 531.025ZM142.695 602.003L138.791 599.506L138.03 601.305L136.992 601.195L139.096 603.58L136.687 606.037L136.626 607.908L137.45 609.816L139.036 608.899L138.883 610.769L140.042 611.318L141.078 610.109L140.926 607.066L142.208 607.506L142.513 606.259L140.987 606.221L139.738 603.142L142.056 602.847L142.695 602.003ZM134.247 596.35L131.045 595.726L130.435 596.57L129.886 594.954L128.239 595.028L129.672 596.973L128.635 597.084L128.329 597.965H129.458L128.147 598.737L128.605 600.204L127.538 600.681L129.398 601.159L129.337 602.517L132.325 603.14L130.771 601.342L133.088 600.755L132.967 601.818L135.162 601.782L133.728 599.544H135.833L135.131 597.524L134.247 596.35ZM131.379 603.507L130.679 604.682L130.099 603.398L128.483 603.728L126.683 601.857L122.872 604.756L122.78 607.618L123.756 609.89L125.373 609.964L130.801 606.846L131.075 605.048L132.387 604.35L133.728 606.699L133.789 604.755L135.222 606.369L135.77 604.205L134.489 604.609L131.379 603.507ZM69.5935 551.319L70.7213 551.173L71.3625 549.661L72.0643 550.802L74.1684 550.214L74.5955 548.848L74.1079 547.557L73.2839 548.296L73.5586 545.972L71.8827 546.488L70.9075 545.011L71.8222 542.539L70.6025 542.835L70.7853 541.912L68.6206 542.43L69.3212 544.091L68.7114 547.041L69.6575 546.524L70.3581 547.189L69.5959 547.89V551.319H69.5935ZM97.1928 510.285L96.3083 512.395L93.0451 511.358L92.4958 513.467L96.3386 514.65L98.1681 512.468L101.828 512.876L102.255 513.874L103.75 513.21L105.365 515.429L103.383 516.685L103.901 517.462L105.945 518.091L106.158 516.981L107.897 516.722L107.957 512.43L106.707 512.949L106.737 511.47L103.107 511.839L101.98 510.877L103.169 510.321L101.918 509.47L103.26 509.249L103.321 507.806L106.127 507.991L106.097 506.844L104.42 505.399L101.797 505.622L100.271 503.696L98.4427 504.918L100.852 508.361L99.6612 509.103L98.2903 508.399L98.0471 510.287L98.871 511.026L97.5897 511.472L97.1928 510.285ZM81.4561 529.731L83.1028 529.583L83.8348 533.093L87.0667 532.428L87.403 530.36L85.2989 525.631L83.225 526.408L81.2419 523.821L79.2297 524.448L77.1244 523.375L76.7287 524.781L75.9653 524.818L76.4843 526.482L75.4777 528.957L77.8564 527.553L77.9775 528.736L78.7409 528.403L78.3127 530.584L79.6848 530.399L80.4785 531.285L81.4561 529.731ZM87.7696 541.507L88.1362 539.737L84.5983 537.006L83.4694 537.375L82.7374 539.183L81.8226 538.519L81.4561 539.628L80.0839 539.737L80.3889 540.92L81.548 540.182L82.2183 541.029L80.9998 542.912L81.8238 544.793L84.2014 544.129L84.7507 543.023L86.7024 543.685L87.4344 542.469L89.2034 542.285L89.5386 540.881L87.7696 541.507ZM85.8482 483.498L86.0007 484.314L87.1284 483.98L86.4894 484.87L88.6844 485.316L89.1731 484.611L90.1484 485.835L92.2211 485.651L93.35 486.355L92.8612 488.282L93.9284 488.504L94.9351 490.359L96.5818 490.506L97.7096 488.282L96.3689 487.429L95.9103 484.611L94.2636 483.461L94.8431 480.272L94.2333 479.528L92.6168 480.569L92.1583 479.343L89.8714 479.752L88.7123 478.305L87.4938 478.566L84.8392 480.161L85.7237 482.24L85.8482 483.498ZM75.7221 513.171L73.8926 513.504L77.4305 517.98L77.8588 520.383L80.4203 519.975L80.9998 518.348L79.9327 516.426L80.8474 515.094L82.1578 515.686L84.0187 514.244L82.0054 512.95L81.9751 512.025L84.1107 512.098L84.8113 511.173L83.1948 509.063L82.6466 509.952L80.0851 508.915L79.4136 509.359L79.5963 511.431L80.6332 512.281L80.0537 513.354L76.4552 512.06L75.7221 513.171ZM85.1162 493.509L85.8482 491.321L81.4561 489.728L78.2242 493.175L85.1162 493.509ZM64.9884 511.433L71.0262 512.061L72.2458 514.208L72.0328 512.134L72.9173 511.877L73.1617 512.764L74.8376 512.246L74.4419 511.322L76.7299 511.434L76.027 509.768L78.2533 508.695L76.5763 506.955L78.3441 505.327L76.6973 505.067L77.5213 503.661L76.0886 503.994L76.2108 502.475L73.7704 501.474L74.2289 503.994L73.5574 505.104L72.368 505.326L71.8815 504.031L71.1181 505.437L69.0128 505.029L66.4513 509.914L63.9817 509.952L65.5971 510.988L64.9884 511.433ZM73.8623 484.72L74.0753 484.313L75.9059 484.015V485.87L78.649 486.982L78.6804 485.165L80.4505 485.276L79.5044 483.497L80.937 483.236L78.8631 481.196L79.2297 479.453L80.6018 479.415L80.9684 475.814L85.4211 473.884L80.0234 474.145L79.9012 475.407L76.638 478.859L72.9173 479.526L72.1236 482.162L73.9531 483.237L73.5877 484.238L71.636 483.943L72.8568 485.166L73.8623 484.72ZM6.1902 535.418L4.63422 534.57L6.12852 533.35L2.53008 534.015L2.59176 535.454L0.181551 538.85L1.43263 540.032L0 540.733L1.09745 542.651L2.92693 543.315L2.83499 541.358L4.72615 540.548L4.08607 538.702L6.28214 538.149L6.5568 535.749L8.72145 535.01L7.53322 533.791L6.1902 535.418ZM167.091 601.636L167.672 600.241L166.757 599.213L167.581 597.818L165.384 597.195L163.219 598.186L163.006 599.142L161.634 599.506L161.665 602.443L160.507 602.846L161.848 603.47L160.689 604.497L161.513 606.11L162.885 604.056L164.167 606.22L166.241 605.413L167.155 606.11L168.345 605.048L168.497 601.233L167.091 601.636ZM263.494 508.471L263.341 504.473L261.358 502.511L258.217 502.436L258.522 500.436L257.607 499.697L254.619 502.695L254.681 505.028L260.901 506.435L261.481 507.249L261.145 504.103L262.243 503.693L263.339 508.245L263.494 508.471ZM264.013 548.629L265.812 547.926L265.995 546.932L263.83 545.492L264.197 542.985L265.172 542.579L264.959 539.219L265.813 538.371L264.624 538.517L265.263 537.669L263.464 537.226L262.55 535.786L262.885 533.607L261.391 534.015L260.628 532.76L261.299 531.873L262.275 532.648L262.458 532.98L263.984 533.349L263.709 531.024L258.463 528.77L259.257 531.392L260.568 531.577L260.354 534.53L262.031 535.341L259.957 535.71L259.378 537.408L256.724 539.144L256.054 540.804L256.816 541.91L255.26 543.68L258.218 545.046L259.56 547.553L261.237 547.444L264.013 548.629ZM254.193 530.137L251.752 528.66L252.149 527.883L250.106 526.628L250.166 525.779L249.464 525.964L249.677 527.146L247.055 530.692L247.879 532.369L246.08 531.727V530.765L245.592 532.282H244.739L246.265 533.759L245.776 534.94L247.393 535.346L245.594 536.122L247.119 538.706L246.357 539.297L247.882 539.887L246.479 541.584L247.669 541.621L248.156 542.95L245.838 542.617L244.71 540.737L241.904 539.594L240.501 540.036L241.02 542.544L237.787 537.784L239.159 536.418L237.878 536.012L237.939 534.165L240.684 533.131L239.19 533.058V532.098L238.001 533.207L238.427 531.433L237.482 531.545L239.19 530.067L238.916 528.995L239.648 529.549L240.867 528.886L241.264 527.224L243.491 527.296L241.387 526.596L242.119 525.633L241.325 524.082L240.167 525.339L240.137 523.491L238.641 523.047L240.227 522.198L238.641 520.533L238.489 519.017L234.86 518.757L235.074 516.872L236.935 514.357L235.014 514.06L234.099 509.398L231.141 510.213L231.356 513.765L230.653 514.653L228.58 514.025L225.865 515.097L225.317 513.506L224.828 515.097L220.926 516.65L219.43 515.097L216.716 514.986L219.308 516.355L220.377 518.056L224.28 518.093L220.682 520.423L219.766 522.752L217.509 522.64L221.504 524.081L221.047 525.523L218.271 527.701L220.071 531.653L223.883 534.313L224.828 535.863L224.31 536.675L226.445 536.711L226.171 538.299L227.574 537.34L227.512 538.299L228.61 538.409L228.061 537.155L229.768 537.007L229.311 539.332L231.109 539.923L231.08 540.957L229.708 540.183L229.311 541.141L228.244 540.034L227.696 540.549L228.671 541.62L231.904 542.322L232.85 547.265L230.867 548.924L230.807 550.067L227.97 549.145L227.512 547.67L226.079 549.625L224.92 548.112L223.214 548.85L222.146 547.78L217.54 548.445L217.601 549.217L220.345 548.997L220.62 550.104L222.144 549.181L221.687 550.768L219.126 551.21L218.913 552.463L221.199 551.8L223.821 552.241L223.089 552.904L224.674 552.538L225.194 555.19L223.73 555.706L224.46 558.248L222.051 557.216L221.656 559.17L220.009 558.47L218.788 559.316L220.1 560.975L219.825 562.044L218.787 561.49L217.812 562.41L216.256 560.901L215.707 562.778L214.975 562.006L213.054 562.963L214.366 564.142L212.414 564.362L214.366 565.466L214.671 566.644L213.36 567.602L210.797 566.608L210.829 565.871L212.109 565.906L211.285 564.767L209.912 564.73L210.309 563.736L206.771 562.3L208.418 560.052L205.215 556.996L204.087 557.032L204.057 557.879L202.685 557.437L202.928 556.517L200.152 554.084L200.245 557.106L197.316 555.117L196.341 557.142L195.761 556.369L192.346 556.775L190.638 555.853L190.729 554.416L189.632 553.679L190.181 551.43L193.231 548.629L193.627 546.452L194.724 547.706L196.158 547.263L196.219 543.095L199.177 540.144L202.288 539.368L202.775 536.489L204.057 535.234L203.598 533.314L206.19 531.025L206.984 531.652L208.111 530.729L208.691 533.943L207.838 536.747L208.722 537.671L211.833 537.967L213.815 532.245L215.126 531.837L213.785 531.21L213.053 526.37L210.675 526.665L209.364 529.214L207.076 527.775L206.191 529.104L204.179 525.261L202.38 525.668L197.438 534.09L192.955 534.239L191.431 532.835L188.015 537.08L184.599 538.336L182.524 541.767L179.323 543.242L176.67 543.464L176.639 544.572L178.257 545.455L177.067 545.972L176.305 548.959L175.054 550.065L176.151 550.876L178.043 550.507L177.89 552.239L176.03 551.686L176.059 554.561L174.26 554.119L172.918 555.63L174.84 557.989L173.741 558.578L173.314 560.384L175.053 562.814L172.674 563.772L171.057 561.929L170.387 562.887L171.516 565.576L170.538 566.791L168.618 565.871L163.127 565.65L164.898 568.521L164.715 570.213L163.312 568.116L160.292 566.276L157.334 566.68L155.84 565.613L156.176 563.992L153.798 563.918L154.987 562.483L153.889 558.026L155.11 553.456L154.347 552.866L154.834 550.876L153.829 549.696L154.102 548.331L152.913 547.261L153.888 541.249L152.089 544.423L151.387 555.371L152.027 556.109L150.808 556.883L151.601 559.941L148.643 561.746L149.558 563.551L146.996 567.38L144.252 567.711L141.537 569.367L141.445 570.472L140.5 569.514L138.914 570.068L138.304 571.796L137.176 571.502L136.536 572.717L135.895 572.054L135.194 572.974L135.773 573.635L134.676 574.997L135.651 575.844L135.59 578.566L133.608 579.815L134.31 580.405L133.394 581.581L134.004 584.337L129.033 583.346L127.294 585.916L125.617 586.212L125.22 587.387L124.214 587.021L124.519 584.449L123.756 583.824L125.373 581.874L124.671 578.31L122.994 577.573L119.304 579.926L118.602 578.675L118.967 577.904L120.035 578.898L119.79 577.721L120.919 577.83L119.455 575.256L122.231 574.778L120.98 571.944L122.931 573.011L124.182 571.098L123.358 567.823L122.048 568.89L120.554 568.56V569.7L117.502 566.865L118.479 565.871L118.906 565.576L119.09 563.66L118.358 563.954L117.502 562.85L118.662 562.004L117.595 559.609L119.15 558.651L118.235 557.067L116.009 556.883L118.572 554.929L118.206 553.971L115.829 554.709L115.797 552.866L113.144 551.945L113.387 553.345L111.648 553.64L111.679 554.747L110.002 555.555L109.087 554.635L110.154 551.907L107.591 551.796L104.269 550.137L101.95 550.947L100.853 549.62L101.86 548.44L98.1693 547.074L98.2915 543.644L99.7241 542.463L99.2365 541.801L98.7174 542.537L97.3453 542.206L95.972 540.876L95.4541 536.005L96.3386 535.193L96.1559 532.349L96.8262 532.867L97.6199 531.575L98.8384 525.59L100.364 524.962L101.584 526.107L101.217 526.955L102.682 526.807L103.84 530.577L105.885 532.202L104.085 533.716L104.269 536.927L103.445 538.072L106.402 539.732L106.281 543.09L107.805 543.828L108.11 545.968L109.3 544.235L117.138 548.957L116.925 547.923L120.279 546.228L120.797 544.899L119.79 544.271L117.443 545.414L116.924 542.057L115.55 543.423L114.605 540.582L113.385 540.876L113.964 538.737L113.11 538.663L113.172 537.704L112.166 537.741L111.801 539.178L110.184 540.249L108.933 539.144L110.849 536.853L110.032 534.049L111.343 535.12L111.893 534.64L111.038 532.573L109.819 532.351L111.038 531.244L113.143 535.305L115.064 533.091L115.644 533.792L116.284 532.685L117.595 533.46L114.607 537.632L115.917 539.109L117.046 538.665L117.016 539.7L118.906 541.102L123.482 541.692L125.311 543.279L126.471 541.728L124.946 541.286L125.098 539.661L127.661 539.921L128.025 540.954L131.807 542.578L135.924 542.394L132.662 541.398L129.154 538.814L129.428 535.714L126.653 535.566L125.281 532.169L122.17 528.475L119.303 528.179L117.627 529.472L116.772 527.552L114.789 528.179L112.959 526.924L110.154 529.066L107.439 528.069L109.33 526.258L109.087 524.447L110.429 523.93L110.337 522.378L108.02 522.527L107.196 520.005L110.672 515.057L112.776 514.243L110.915 510.877L111.647 509.359L110.153 508.951L110.488 506.656H111.463L111.981 505.176L110.274 502.992L111.037 502.14L110.123 500.733L110.732 498.14L109.391 497.249L108.322 493.472L107.957 496.694L106.95 497.509L107.042 498.399L108.689 499.103L107.652 500.77L108.536 501.363L107.712 502.362L108.17 503.436L105.272 504.658L103.687 504.473L103.412 502.585L101.187 502.881L100.974 502.029L102.712 500.807L99.8765 497.88L101.767 494.916L101.431 496.547L102.529 495.769L103.474 497.734L105.67 496.621L106.767 494.249L104.603 493.767L110.305 490.098L110.214 488.357L109.176 487.058L106.126 488.022L105.821 485.65L103.9 485.167L105.364 484.053L104.022 481.531L102.467 481.495L102.315 482.347L100.728 481.235L102.132 483.831L100.546 485.055L102.01 486.095L100.515 487.503L98.807 485.094L96.398 486.243L95.6962 482.757L94.508 481.977L94.9956 480.493L96.917 480.344L94.3543 477.523L95.3005 475.297L96.185 475.658L95.8789 474.147L97.5874 473.107L98.4113 475.334L99.631 474.369L101.216 474.851L101.308 476.299L102.803 476.224L103.871 474.332L103.169 473.439H104.298L105.549 471.954L105.609 474.927L104.816 477.636L103.931 477.896L103.78 480.754L105.182 481.015L106.219 479.826L105.395 482.906L106.828 483.389L107.682 482.721L107.925 484.983L110.518 481.792L109.756 484.428L111.068 483.055L112.228 484.834L110.427 487.468L111.556 487.431L111.677 489.584L114.269 489.509L113.599 487.469L116.039 485.837L117.716 483.166L115.307 482.055L117.747 481.275L118.509 479.902L113.78 479.049L109.572 472.292L107.041 470.844L107.377 469.285L106.218 468.727L108.108 468.095L108.902 465.123L104.144 466.125L102.315 465.196L102.01 463.19L100.424 461.889L101.705 459.472L103.259 462.78L104.846 461.182L104.205 460.03L106.066 457.503L105.73 456.683L103.687 456.72L104.541 455.196L108.17 455.233L109.024 449.094L111.068 443.921L116.526 445.745L112.501 442.989L111.617 440.197L112.135 437.477L113.843 435.837L119.059 435.565L121.233 436.289L123.408 438.101L124.497 444.625L126.67 447.162L128.121 451.873H130.108L130.545 453.848L135.598 453.579L137.283 451.787L139.72 451.657L140.842 452.154L143.251 451.33L145.028 449.592L148.675 448.473L151.478 447.055L152.203 443.604L151.9 442.708L153.764 440.815L154.272 436.432L155.194 434.122L157.826 432.983L159.6 433.395L160.859 433.645L162.681 431.478L166.193 432.182L170.889 435.655L175.02 442.236L177.311 442.896L178.499 442.09L179.277 438.486L180.438 437.74L181.578 435.665L184.499 435.754L186.068 436.962L186.599 442.088L185.365 444.773L187.781 445.55L188.954 448.892L188.467 453.086L191.476 455.381L193.914 456.006L197.437 454.743L198.557 453.698L200.067 452.727L203.731 454.302L205.974 453L207.646 454.594L208.955 455.355L216.102 455.333L218.87 454.522L222.58 454.943L224.613 454.406L228.04 449.998L230.079 448.857L232.397 448.73L237.674 451.145L245.08 456.327L244.151 458.951L247.239 462.421L248.292 473.128L255.919 480.629L256.143 484L257.413 485.213L261.55 489.627L263.577 491.17L266.174 500.734L262.94 500.624L261.355 497.177L257.909 499.105L257.847 495.733L256.2 493.361L257.512 499.4L255.438 501.845L253.09 502.734L253.426 504.401L249.705 506.177L248.608 507.769L247.509 506.362L248.028 505.696L245.619 505.955L243.849 503.327L244.033 500.475L243.209 499.698L243.057 503.178L240.769 503.807L243.606 505.992L243.025 506.918L242.568 507.138L240.341 508.066L242.018 508.695L243.848 513.061L247.203 513.837L246.106 515.355L247.448 517.02L247.478 515.725L250.162 516.649L253.12 514.578L254.187 512.804L254.309 512.471L257.999 511.36L256.9 512.36L258.943 513.174L258.792 512.284L261.476 511.323L263.032 512.877L262.055 513.099L261.719 519.941L260.682 519.867L259.126 522.898L260.255 528.182H257.937L257.632 529.475L254.193 530.137ZM176.544 469.392L175.359 464.119L173.105 461.401L170.98 460.391L168.148 460.29L162.989 462.616L160.663 465.043L158.942 465.144L154.796 462.715L154.088 460.187L151.559 460.086L149.132 466.257L146.401 466.155L144.379 468.583L143.064 474.146L143.57 478.901L151.964 480.113L156.315 487.194H160.664L164.609 484.868H169.059L170.779 483.654L174.42 484.362L178.365 481.63L179.984 479.507L182.006 472.426V470.807L179.579 469.694L176.544 469.392ZM234.461 565.945L232.813 563.293L232.754 564.62L231.959 564.142L231.441 565.32L230.374 565.283L231.136 564.327L229.184 564.51L227.141 563.148L227.598 566.13L226.653 566.684L229.214 566.093L230.374 566.794L230.13 567.531L227.966 567.272L229.369 568.746H231.32L230.68 570.77L231.26 571.58L234.401 569.591L235.559 570.144L236.445 569.04L236.323 566.646L234.461 565.945ZM261.511 558.47L263.127 557.879L260.993 555.263L260.353 552.758L258.37 552.794L255.411 554.821L253.765 554.674L256.295 556.738L257.76 556.258L256.906 557.622L258.644 558.432L257.943 559.463L260.077 559.243L260.048 559.98L261.968 560.312L260.962 560.975L264.103 561.563L264.987 560.201L261.511 558.47ZM257.182 507.731L256.084 506.768L254.04 507.547L253.247 508.916L254.345 509.767L253.796 510.285L256.418 510.951L257.486 508.731L259.316 508.286L258.919 507.621L257.182 507.731ZM153.064 575.477L151.54 578.492L153.155 579.449L153.186 577.243L154.436 575.55L157.395 575.439L158.036 573.158L160.72 574.593L162.519 574.481L162.61 573.525H161.786L161.603 571.944L160.658 572.092L160.901 570.656L159.621 571.613L157.974 570.436L160.048 570.324L160.383 569.185L159.073 568.853L158.98 567.233L154.039 568.668L151.446 571.649L151.843 573.232L149.86 575.843L153.064 575.477ZM228.788 561.6L230.466 561.969L230.923 561.158L231.594 561.969L232.905 561.01L231.288 558.728L227.933 558.468L228.116 557.548L229.519 557.99L227.75 555.927L229.885 555.005L229.337 553.937L227.567 553.752L224.975 557.106L227.354 558.322L226.867 558.948L227.629 559.463L225.678 560.678L226.775 562.485L227.965 562.668L228.788 561.6ZM265.385 566.091L265.75 564.915L264.501 565.576L264.836 566.608L263.494 569.185L265.231 568.889L263.524 570.803L263.829 571.429L264.836 570.877L264.958 571.832L265.781 571.869L266.91 566.019L266.086 566.571L265.385 566.091ZM173.925 581.14L172.583 582.721L172.888 585.182L173.528 584.741L174.473 586.212L179.14 583.198L178.989 582.132L177.158 581.139L173.925 581.14ZM162.671 584.485L162.61 583.383L163.219 585.073L164.47 585.038L164.196 582.317L165.934 582.133L166.056 580.369L164.104 581.433L163.28 579.744L161.603 580.22L161.45 579.449L160.658 580.441L158.919 578.567L157.333 580.075L157.485 581.287L156.053 581.876L154.192 580.221L152.576 581.693L150.045 581.546L153.217 582.686L154.62 584.303L156.297 582.686L158.463 582.833L159.865 586.471L161.391 585.075L162.671 584.485ZM186.702 578.676L185.665 578.124L182.28 579.596L182.342 577.315L180.542 575.624L180.298 576.654H178.407L179.139 577.389L178.102 577.463V578.787L175.631 578.42L178.102 579.854L178.926 579.006L180.481 580L180.876 580.919L179.23 581.284L180.571 582.057L182.95 580.955L183.102 581.801L181.272 583.087L181.76 585.218L183.681 581.985L186.03 581.396L184.048 581.066L184.688 580.037L188.531 581.359L186.335 579.339L186.702 578.676ZM167.764 574.226L167.062 572.682L166.3 573.38L165.751 572.571L165.568 573.638L164.409 572.166L163.523 573.086L163.464 572.057L162.457 571.578L162.092 572.313L163.189 573.896L162.274 576.654L163.067 577.315L164.622 576.616L164.988 578.491L167.062 579.3L168.953 578.382L169.411 577.02L171.516 577.424L170.753 575.144L171.942 572.681L171.302 571.392L169.868 574.299L167.764 574.226ZM203.964 593.118L203.933 594.477L202.866 594.588L202.042 597.818L203.751 597.048L205.702 598.041L204.756 596.644L206.038 596.315L205.642 592.751L203.964 593.118ZM200.945 560.42L199.328 561.416L196.98 561.083L192.924 563.44L191.369 562.702L190.882 561.045L189.966 561.118L189.783 562.997L187.465 563.771L188.929 565.794L188.165 567.416L190.056 566.679L189.964 567.93L192.891 570.396L193.563 568.961L195.271 569.293L195.515 568.408L200.21 569.144L203.078 562.997L200.945 560.42ZM179.779 565.725L181.06 566.497L181.457 570.214L182.402 571.134L183.104 570.767L182.799 569.295L184.019 569.588L184.171 572.827L185.543 569.185L184.475 566.239L183.347 565.282L182.89 566.166L182.189 565.061L179.779 565.725Z" fill="#D9D9D9" stroke="white"/>
<path d="M482.237 180.883L482.297 181.188L482.512 181.341L482.297 181.38L482.267 181.533L481.903 181.457L481.809 181.037L481.992 180.922L482.113 181.037L482.237 180.883ZM482.785 181.188L483 181.532L482.603 181.797L482.418 181.569L482.785 181.188ZM482.084 180.388L482.176 180.577L481.992 180.769L481.962 180.464L482.084 180.388ZM463.597 154.709L464.691 155.034L463.466 156.735L464.58 158.784L463.725 161.81L464.819 162.601L460.722 164.766L459.849 166.976L452.523 164.119L450.871 157.391L451.744 157.95L456.455 155.527L461.649 154.805L462.541 153.803L463.597 154.709ZM348.021 408.658L347.478 412.201L349.434 416.46L354.598 420.496L361.427 419.211L370.07 422.4L372.303 423.067L378.705 418.614L379.881 418.961L385.647 414.141L388.091 414.19L391.495 415.202L395.797 417.027L396.912 416.616L402.362 412.11L404.289 411.908L405.833 411.053L404.002 406.94L409.519 403.371L413.134 402.185L418.031 401.772L421.395 403.97L423.732 404.33L425.136 405.972L424.642 409.274L425.825 410.56L428.12 411.315L434.352 408.537L443.802 411.03L447.303 411.287L445.626 409.682L445.35 406.992L446.817 404.225L448.037 404.114V402.246L449.377 400.751L448.858 398.619L451.604 389.866L450.871 387.659L453.128 385.261L452.793 382.792L455.659 376.385L453.799 376.012L455.079 374.774L454.563 373.239L455.567 372.377L453.799 368.627L457.213 365.551L457.489 361.875L461.057 356.808L460.263 355.718L460.996 352.829L459.591 348.472L458.219 347.232L456.788 347.57L455.718 350.237L452.153 354.105L452.091 355.644L447.243 358.535L446.969 359.962L446.021 360.262L443.066 359.098L442.76 356.62L440.044 357.334L441.63 355.119L444.254 354.895L441.234 353.804L439.28 355.156L438.123 353.241L438.885 350.537L442.911 348.959L442.697 347.271L444.221 345.354L444.313 344.225L440.808 341.332L440.257 334.336L438.639 333.622L437.662 331.778L439.279 329.182V326.51L437.848 324.815L438.793 321.915L438.001 320.07L439.494 310.799L444.83 301.218L444.555 293.894L446.632 290.421L445.625 289.514L445.29 284.148L442.147 279.914L442.18 274.58L444.953 267.994L446.328 266.858L447.852 266.934L449.318 264.132L448.676 261.14L449.284 259.473L448.217 256.176L449.436 254.888L445.93 245.975L443.978 243.813L442.544 238.803L443.124 230.788L441.753 226.19L442.973 224.023L441.843 219.155L442.636 218.546L442.422 215.617L444.283 215.198L438.185 209.108L438.612 206.766L433.642 207.597L431.47 210.134L428.569 211.221L425.307 214.121L423.495 216.658V218.108L425.307 221.371L417.718 221.558L414.631 218.92L411.203 217.722L408.172 217.26L405.212 220.181L396.584 217.144L392.697 217.976L391.908 216.438L389.907 215.645L386.53 220.645L385.443 222.096H380.732L373.483 217.023L371.139 217.237L370.508 222.716L369.215 224.015L365.651 222.419L363.424 222.716L358.486 220.002L355.926 222.509L353.433 222.222L350.79 225.258L350.073 225.583L346.251 229.359L342.996 230.298L342.084 231.742L337.964 234.933L334.297 241.518L333.328 243.336L333.268 244.885L334.795 245.594L335.718 248.978L332.415 253.504L327.775 254.409L326.701 255.607L323.866 255.546L321.319 255.756L318.425 250.037L314.665 247.891L313.291 245.601L311.352 249.14L310.04 249.54L309.522 253.296L309.097 253.953L302.473 251.934L301.984 251.203L300.748 250.764L300.039 251.492L297.095 255.082L295.495 255.303L293.592 253.272L293.003 253.627L289.676 261.396L293.619 267.489L288.275 266.432L286.904 265.659L285.5 266.339L281.65 264.446L278.311 268.781L273.372 270.434L271.417 273.193L271.978 275.774L268.221 279.651L266.18 281.455L264.364 281.864L263.215 284.079L264.061 285.355L270.293 286.668L271.708 288.087L271.543 289.168L272.663 291.456L274.995 293.039L274.503 295.019L272.162 296.057L271.223 304.913L271.915 307.789L270.425 310.13L271.954 313.909L272.528 314.267L271.366 317.244L268.275 319.924L268.194 324.901L270.695 326.967L274.66 323.992L275.199 325.669L278.103 327.388L280.252 329.214L281.616 329.675L283.924 328.703L286.518 327.788L288.865 328.596L289.585 329.838L289.76 333.519L291.222 335.694L290.531 337.182L286.906 335.544L284.109 337.2L282.736 339.223L284.103 342.66L283.626 346.809L281.586 348.508L280.379 353.896L278.243 356.914L274.903 356.802L273.644 358.047L279.122 368.47L277.627 374.293L277.775 376.543L279.147 378.13L281.578 378.575L282.4 378.999L282.759 382.029L283.856 382.685L288.408 383.317L290.424 385.365L298.548 385.969L300.28 386.842L302.644 388.568L303.55 391.908L304.317 392.483L306.717 393.631L307.214 395.678L310.142 397.412L311.236 399.492L308.842 406.673L308.531 408.6L309.559 410.493L313.976 412.225L317.967 411.511L321.403 410.246L326.618 411.821L329.219 414.355L331.206 415.803L330.354 411.821L325.643 406.023L326.006 402.761L329.993 404.935H332.529L333.254 402.036L329.63 398.049L331.079 394.426L332.529 391.164L338.691 390.077L338.328 387.902L335.067 385.364L329.631 385.002L331.442 378.116L333.979 374.492L338.691 372.317L339.415 378.841H342.315L346.301 369.416L353.187 367.967L356.449 364.343L360.437 363.255L364.059 363.618L368.407 367.242L369.134 375.941L371.308 380.652L370.219 383.191L366.233 384.639L364.421 388.626V392.25L361.522 392.613V394.788L362.971 396.6V401.312L358.984 402.761L357.172 404.935L353.91 404.572L353.185 401.311H349.561L347.024 402.76L345.211 405.659L345.736 407.409L347.216 407.171L348.021 408.658Z" fill="#D9D9D9" stroke="white"/>
<path d="M279.146 378.124L281.577 378.57L282.398 378.993L282.757 382.024L283.854 382.679L288.407 383.311L290.423 385.359L298.547 385.963L300.279 386.836L302.643 388.563L303.549 391.902L304.316 392.477L306.715 393.625L307.213 395.674L310.141 397.408L311.235 399.487L308.841 406.667L308.53 408.594L309.559 410.493L313.976 412.225L317.967 411.511L321.402 410.246L326.618 411.821L329.219 414.355L331.205 415.803L334.008 415.735L338.063 412.834L339.831 412.397L342.642 413.434L344.209 412.368L345.737 407.411L347.217 407.172L348.02 408.658L347.476 412.201L349.433 416.46L354.597 420.496L361.426 419.211L370.069 422.4L372.301 423.067L378.703 418.616L379.88 418.961L385.645 414.141L388.089 414.19L391.493 415.202L395.796 417.027L396.911 416.616L397.806 415.697L399.512 418.515V420.222L398.118 421.44L395.526 423.634L395.924 429.238L398.516 430.456H401.703L404.492 430.698L408.278 434.594L414.852 441.41L418.437 441.653L419.91 443.45L416.485 446.598L415.819 448.76L410.165 449.425L405.976 457.135L403.842 456.767L399.254 459.648L394.535 465.389L389.714 465.556L385.225 468.382L382.564 468.716L382.064 474.533L374.017 477.57L371.914 480.157L370.784 479.304L370.966 480.752L368.346 479.973L367.033 481.197L366.606 480.344L365.598 480.566L365.538 479.49L364.105 479.454L363.404 480.419L362.58 479.564L364.319 477.004L363.616 474.888L362.61 474.554L362.854 473.403L360.903 474.333L361.512 476.375L360.138 477.488L359.742 475.705L357.669 474.853L358.004 473.294L355.869 473.664L355.381 475.669L354.65 474.704L353.672 475.002L354.557 473.74L354.009 471.548L352.239 470.286L351.994 466.532L356.569 463.783L351.689 465.345L349.128 468.354L350.746 470.211L350.41 471.733L351.72 471.883L352.818 474.334L350.287 474.965L350.136 475.781L353.061 475.707L353.123 479.642L355.96 481.905L353.337 482.647L354.252 483.76L355.839 483.39L356.846 484.204L349.952 486.246L351.601 484.912L351.112 484.65L348.825 484.429L349.496 486.024L348.093 486.209L346.599 484.095L349.191 483.911L348.825 482.501L350.99 481.202L346.599 479.867L347.301 479.013L346.294 478.977L346.202 477.306L345.012 479.421L343.213 480.163L340.287 478.791L340.408 479.754L339.218 480.237L336.566 479.198L336.322 480.423L339.767 482.872L338.518 482.424L338.031 483.539L335.589 483.76L334.065 486.022H332.723L332.325 484.983L329.155 487.208L328.27 486.728L329.094 488.58L327.662 489.138L326.532 491.954L329.705 490.695L329.828 488.655L331.565 487.617L336.292 486.43L336.078 484.093L336.995 483.87L337.453 484.834L338.58 483.165L340.046 484.686L339.985 486.096L339.68 487.135L337.605 487.06L339.953 487.84L339.922 489.471L342.21 491.214L341.142 492.658L340.167 492.029L339.465 494.289L337.971 493.696L337.91 494.882L331.871 493.956L331.901 495.625L334.159 495.142L335.562 495.588L335.836 496.811L333.578 499.07L334.249 499.365L333.762 501.33L334.921 502.367L332.97 505.292L333.886 506.18L333.183 507.07L333.396 510.29L336.142 506.516L335.439 504.813L336.873 504.701L338.154 507.627L339.283 507.923L338.399 510.585L337.178 509.033V511.289L336.173 511.14L336.752 513.768L332.177 515.358L335.379 516.097L335.653 517.171L335.622 519.573L334.465 519.758L335.41 520.757L333.214 521.089L334.983 522.493L333.641 525.08L330.745 524.637L330.653 522.678L329.708 523.122L330.042 521.753L329.065 520.348L328.334 521.459L327.023 520.569L328.76 519.46L328.7 517.982L325.225 516.577L324.004 517.686L323.334 516.466L324.401 515.985L324.126 514.321L324.888 515.614L325.988 514.245L327.237 515.91L327.969 515.281L329.403 518.204L329.187 516.169L330.347 516.539L331.444 515.651L330.165 516.021L329.25 515.355L329.737 514.356L328.212 514.467L327.784 513.136L329.796 511.544L333.183 511.692L332.786 510.989H329.521L328.881 508.25L328.546 509.064L327.631 508.582L327.967 510.767L326.137 510.397L325.588 508.435L325.343 510.249L324.581 509.064L323.087 509.878L323.057 508.435L321.807 509.36L319.733 506.214L321.349 505.399L326.075 505.548L324.46 500.18L323.272 500.401L323.514 499.143L321.989 498.4L322.325 500.734L319.975 501.772L320.525 504.179L318.879 505.363L318.056 504.511L318.086 506.141L316.287 505.067L316.316 501.327L314.395 501.031L314.03 500.846L312.139 501.216L311.466 500.513L310.98 501.474L308.631 501.696L309.547 503.177L309.333 507.472L307.137 507.287L306.375 505.659L306.133 507.065H305.279L304.486 505.659L302.624 506.325L301.618 508.14L300.46 505.991L299.24 506.289L298.387 505.103L300.339 503.584L295.399 503.511L291.403 501.253L290.305 498.882L292.838 496.179L291.28 493.769L292.47 491.064L291.982 490.137L291.128 490.879L290.945 490.285L292.44 483.945L293.781 482.795L293.049 482.423L290.7 484.203L289.328 489.618L287.681 488.767L289.052 488.023L288.777 487.208L287.925 488.209L285.545 487.134L284.508 488.691L286.736 488.282L287.894 491.546L289.205 491.842L287.985 495.734L286.857 493.881L285.148 496.328L283.837 493.807L281.307 495.512L281.885 496.512L280.148 495.882L280.575 494.92L279.568 494.438L280.453 494.177L280.544 492.733L278.745 491.064L278.044 495.511H276.973L277.431 496.956L276.271 497.104L275.906 498.66L273.772 500.217L270.357 500.438L270.082 498.66L269.411 499.106L268.769 498.105L268.283 500.55L266.283 500.254L266.18 500.735L263.582 491.171L261.556 489.628L257.419 485.215L256.149 484.001L255.923 480.63L248.298 473.129L247.245 462.422L244.156 458.953L245.086 456.328L245.353 456.091L247.926 453.414L247.287 450.083L248.631 446.428L252.931 442.284L253.461 437.628L251.565 437.131L250.763 434.892L251.56 431.012L250.085 428.374L249.593 424.998L246.373 423.403L246.175 420.713L252.24 403.976L253.277 403.05L253.457 400.825L254.365 395.223L260.101 389.721L262.027 384.987L262.783 384.437L265.124 384.947L267.246 383.612L268.943 383.602L272.549 381.413L274.927 376.045L277.627 374.287L277.776 376.538L279.146 378.124ZM378.254 484.351L378.835 486.02L380.023 485.687L380.572 487.726L378.681 491.694L379.443 492.619L377.919 494.768L378.224 494.066L376.941 492.953L377.889 491.545L375.509 490.506L376.605 489.58L374.531 486.093L378.254 484.351ZM363.006 489.172L363.83 488.43L365.356 489.024L366.394 490.73L365.387 492.656L364.168 492.544L364.747 493.767L363.161 493.842L364.076 494.435L363.617 497.029L365.872 498.104L367.003 501.511L365.997 501.402L366.637 504.808L365.172 505.067L365.904 506.584L363.587 507.918L363.525 509.139L365.203 509.472L365.081 510.509L367.245 507.918L368.375 508.582L368.254 509.434L368.773 510.877L368.009 511.69L366.607 511.358L367.948 514.134L366.637 514.464L365.967 513.319L364.105 514.54L364.867 516.205L365.872 515.02L366.727 515.65L366.025 516.907L368.373 521.713L365.017 520.716L365.659 519.792L364.776 518.202L363.433 520.421L362.641 520.198L362.884 518.757L360.476 518.24L360.201 520.902L361.025 521.9L359.348 523.378L357.975 522.861L357.122 524.93L358.736 527.702L361.877 527.923L361.329 529.548L359.072 527.997L356.175 529.179L355.963 528.367L355.413 529.254L357.335 530.916L357.151 531.987L355.747 531.433L354.01 533.131L351.906 532.061L350.412 532.946L351.326 530.288L353.735 529.144L350.442 527.85L350.684 525.007L353.063 524.822L352.058 523.934L352.637 522.937L350.167 522.863L348.733 524.489L347.758 523.233L349.405 521.608L348.246 521.423L346.628 523.235L346.904 522.015L346.142 521.57L351.234 520.202L351.265 517.54L352.395 515.655L351.571 515.876L350.413 514.1L351.632 514.469L351.663 513.657L349.986 512.695L349.039 515.58L345.198 515.543L345.076 517.134L344.191 516.838L344.618 517.91L343.154 518.761L342.057 516.8L342.849 515.803L339.983 514.544L338.946 510.215L341.141 506.552L342.087 506.478L341.63 505.664L342.575 506.071L342.025 505.146L343.702 505.367L344.769 503.552L349.252 506.811L350.32 506.626L349.681 505.552L351.357 504.663L355.688 507.697L355.017 504.403L353.859 504.737L354.164 503.514L351.358 500.885L353.554 497.291L353.522 498.885L356.544 498.477L356.511 497.736L358.402 498.958L358.221 497.032L359.469 495.735L358.829 494.883L360.049 494.587L359.469 493.66L360.72 493.513L361.026 493.179L361.878 492.327L360.354 492.474L361.238 488.991L362.276 488.842L363.006 489.172ZM358.37 490.357L358.92 491.804L357.974 495.991L355.962 496.436L355.381 495.622L354.04 496.882L354.282 495.252L355.869 494.288L354.832 493.397L356.661 493.361L356.388 492.065L358.37 490.357ZM275.388 500.4L277.95 501.88L278.163 500.955L278.895 501.288V507.767L276.304 508.73L275.907 510.468L277.798 513.576L277.126 514.649L280.817 516.315L281 518.792L282.983 519.088L282.586 518.089L286.002 515.686L290.333 515.353L292.04 516.98L293.687 517.092L294.236 519.791L292.864 519.864L293.413 520.973L292.527 522.378L293.534 526.479L290.821 529.99L293.717 532.057L289.204 533.016L289.965 530.763L288.869 530.061L287.953 530.394L288.044 531.65L286.275 531.429L285.879 530.469L285.329 532.131L282.34 532.057L280.906 527.072L281.64 522.969L276.576 524.522L277.4 528.809L274.929 530.359L271.452 529.62L271.939 528.772L270.69 528.292L270.904 526.888L269.165 526.776L269.593 524.301L270.842 524.004L268.86 520.566L269.134 518.902L266.602 515.536L265.932 512.244L267.152 509.951L268.28 509.877L268.371 507.398L269.745 505.77L270.202 506.472L272.122 506.212L270.993 504.733L271.115 502.917L272.367 502.473L272.854 501.028L275.388 500.4ZM290.423 503.624L288.196 511.024L289.691 511.358L289.538 508.952L291.065 506.917L292.222 507.065L292.466 508.916L293.169 508.62L294.419 510.138L294.267 511.765L292.987 512.986L293.869 512.617L293.717 513.986H295.396L296.646 516.241L295.059 515.244L294.206 515.947L293.077 514.838L292.163 515.207L289.509 513.432L289.144 514.838L287.527 515.207L283.715 514.171L283.075 510.434L284.599 509.472L286.917 505.104L290.423 503.624ZM309.089 511.913L312.655 513.985L309.759 514.244L307.409 516.611L307.256 515.094L305.763 514.725L305.428 513.171L309.089 511.913ZM313.112 514.464L316.315 517.793L315.675 518.718L313.327 518.497L313.632 520.678L308.965 517.535L309.148 516.611L310.55 517.056L309.788 516.353L310.795 514.911L313.112 514.464ZM340.287 517.573L339.584 518.385H340.622L341.261 522.379L342.665 522.084L343.305 523.044L342.939 524.411L340.745 525.704L338.427 525.187L339.097 523.857L337.541 521.787L337.817 519.125L338.366 521.194L339.251 520.752L339.067 519.531L338.243 518.533L338.578 517.573H340.287ZM314.029 539.516L317.353 541.325L316.194 542.136L317.292 543.242L318.39 541.325L319.943 541.288L318.877 543.944L315.98 542.949L313.937 544.019L313.753 545.088L312.716 544.903L312.411 544.24L313.723 543.43L312.807 542.765L313.112 541.88L312.106 542.47L311.587 541.621L312.87 541.179L312.076 540.035L314.029 539.516Z" fill="#D9D9D9" stroke="white"/>
<path d="M172.43 653.442L173.222 654.351L172.704 655.044L174.382 654.934L173.589 658.319L171.18 657.737L170.662 656.063L172.43 653.442ZM167.062 671.015L163.402 673.667L162.853 676.025L159.986 678.901L160.169 680.572L158.644 682.281L152.758 682.171L149.129 685.948L138.669 687.253L135.468 690.667L133.363 691.465L132.204 690.413L130.222 690.34L129.612 691.828L127.904 690.812L125.403 691.03L119.243 692.953L117.108 690.812L114.394 691.537L112.228 690.375L108.385 692.118L103.475 690.812L99.8765 693.17L99.9067 696.616L98.2914 696.037L97.1928 696.762L96.1558 696.073L96.4305 694.767L95.4541 694.731L92.9845 691.392L87.311 688.089L85.1766 684.605L85.847 680.755L85.1766 678.646L87.2505 676.938L87.2808 675.304L90.4835 673.232L91.8556 671.123L93.2592 671.342L95.7904 668.433L96.3083 665.159L101.189 663.194L101.707 660.902L107.958 659.701L109.879 658.135L111.253 659.008L120.433 655.442L121.682 654.021L124.032 654.715L126.837 653.585L131.839 653.476L132.754 652.128L137.053 651.837L138.335 649.506L140.531 651.255L141.811 649.942L147.21 648.887L150.899 649.323L151.174 648.232L155.047 649.543L158.25 648.96L159.774 652.457L161.817 653.549L162.976 652.821L166.758 654.021L166.271 655.549H167.46L167.857 656.642L166.514 659.154L168.619 660.827L170.174 660.245L171.424 662.21L170.875 662.865L169.716 662.103L168.771 663.521L168.648 664.721L170.387 665.994L169.533 667.014L168.1 665.486L167.062 671.015Z" fill="#D9D9D9" stroke="white"/>
<path d="M204.579 268.892L201.448 267.013L199.726 265.134L196.752 264.195L193.62 265.448L193.151 267.483L194.402 269.831L195.029 272.179L195.342 275.781L194.56 278.599L194.872 282.513L195.029 286.584V290.185L193.776 293.003L193.933 295.353L196.124 298.326L199.256 300.05L200.821 304.59L201.134 307.877L200.979 312.574L202.388 316.175L204.423 317.742L206.404 320.13L208.941 317.228L208.579 307.081L216.552 304.544L217.663 297.425L216.946 296.425L215.659 296.635L214.987 297.544L217.154 290.461L215.899 289.135L216.968 285.323L213.089 285.095L212.565 283.525V280.263L209.303 276.276L211.841 275.551L212.203 272.289L210.391 269.753L207.554 269.988L204.579 268.892Z" fill="#9D9D9D" stroke="white"/>
</svg>
